<svg width="18" height="18" viewBox="0 0 18 18" xmlns="http://www.w3.org/2000/svg">
    <defs>
        <filter x="-12.3%" y="-13.3%" width="124.5%" height="153.3%" filterUnits="objectBoundingBox" id="93d64qah9a">
            <feOffset dy="1" in="SourceAlpha" result="shadowOffsetOuter1"/>
            <feGaussianBlur stdDeviation=".5" in="shadowOffsetOuter1" result="shadowBlurOuter1"/>
            <feColorMatrix values="0 0 0 0 0 0 0 0 0 0 0 0 0 0 0 0 0 0 0.1 0" in="shadowBlurOuter1" result="shadowMatrixOuter1"/>
            <feMerge>
                <feMergeNode in="shadowMatrixOuter1"/>
                <feMergeNode in="SourceGraphic"/>
            </feMerge>
        </filter>
    </defs>
    <g fill="none" fill-rule="evenodd">
        <path d="M0 0h18v18H0z"/>
        <path d="M14.75 6.25V15a.748.748 0 0 1-.75.75H4a.748.748 0 0 1-.75-.75V6.25h11.5z" stroke-opacity=".08" stroke="#111D46" stroke-width=".5" fill="#7A8194"/>
        <g filter="url(#93d64qah9a)" transform="translate(1.5 3)">
            <path d="M5 0h5v5a2.5 2.5 0 0 1-5 0V0z" fill="#00B657"/>
            <path d="M1.436 0H5v5a2.5 2.5 0 0 1-2.5 2.5A2.339 2.339 0 0 1 .166 5.006L.438.933A1 1 0 0 1 1.436 0z" fill="#FE5D5D"/>
            <path d="M10 0h3.564a1 1 0 0 1 .998.933l.272 4.073A2.339 2.339 0 0 1 12.5 7.5 2.5 2.5 0 0 1 10 5V0z" fill="#4355E4"/>
        </g>
    </g>
</svg>
