<svg width="160" height="160" viewBox="0 0 160 160" fill="none" xmlns="http://www.w3.org/2000/svg">
<circle cx="80" cy="80" r="79" fill="#444444" stroke="#E6F7CD" stroke-width="2"/>
<path fill-rule="evenodd" clip-rule="evenodd" d="M159 80C159 123.631 123.631 159 80 159C36.3695 159 1 123.631 1 80C1 36.3695 36.3695 1 80 1C123.631 1 159 36.3695 159 80ZM58.9336 66.541C66.3665 66.541 72.3925 60.5149 72.3925 53.0814C72.3925 45.6485 66.3665 39.6222 58.9336 39.6222C51.5 39.6222 45.4739 45.6485 45.4739 53.0814C45.4739 60.5149 51.5 66.541 58.9336 66.541ZM101.066 66.541C108.5 66.541 114.526 60.5149 114.526 53.0814C114.526 45.6485 108.5 39.6222 101.066 39.6222C93.6335 39.6222 87.6075 45.6485 87.6075 53.0814C87.6075 60.5149 93.6335 66.541 101.066 66.541ZM80.5851 107.504C62.4868 107.504 47.8149 92.8318 47.8149 74.7336H33.7704C33.7704 100.588 54.7304 121.548 80.5851 121.548C106.441 121.548 127.4 100.588 127.4 74.7336H113.355C113.355 92.8318 98.684 107.504 80.5851 107.504Z" fill="#EFB7F4"/>
</svg>
