<svg width="24" height="24" viewBox="0 0 24 24" fill="none" xmlns="http://www.w3.org/2000/svg">
<g id="chat">
<path id="chatIcon" fill-rule="evenodd" clip-rule="evenodd" d="M4 10.8444C4 6.54258 7.5583 3.01308 12 3.01308C16.4417 3.01308 20 6.54258 20 10.8444C20 14.8337 17.0977 17.8005 12.7469 18.1137L11.8182 18.1806V20.7148C8.08982 19.2093 4 15.9937 4 10.8444ZM12 1C6.50057 1 2 5.38422 2 10.8444C2 17.7096 7.82102 21.4909 11.9817 22.9226C12.9129 23.243 13.8182 22.5241 13.8182 21.5933V20.0182C18.5989 19.2923 22 15.7108 22 10.8444C22 5.38422 17.4994 1 12 1ZM12.875 6.91341V10.1008H16.125V11.9461H12.875V15.2174H11.0417V11.9461H7.875V10.1008H11.0417V6.91341H12.875Z" fill="white"/>
</g>
</svg>
