<svg width="20" height="20" viewBox="0 0 20 20" fill="none" xmlns="http://www.w3.org/2000/svg">
<g id="notificationOff">
<path id="icon" fill-rule="evenodd" clip-rule="evenodd" d="M15.885 2.00024L2.59973 15.5981L3.31501 16.297L16.6003 2.69908L15.885 2.00024ZM16.8438 14.7155H6.31575L15.0127 5.81399C15.3552 6.56702 15.5468 7.42073 15.5468 8.34158C15.5468 8.41249 15.5457 8.48311 15.5434 8.55343V9.74284C15.5434 11.4845 15.9912 13.1969 16.8438 14.7155ZM9.97781 2.57178C11.0857 2.57178 12.118 2.88942 12.9855 3.45112L3.93548 12.7141C4.24782 11.7458 4.40893 10.7306 4.40893 9.70424V8.399H4.40908L4.40883 8.34158C4.40883 5.01989 6.90215 2.57178 9.97781 2.57178ZM9.97878 17.9996C8.97123 17.9996 8.15445 17.1099 8.15445 16.0125H11.8031C11.8031 17.1099 10.9863 17.9996 9.97878 17.9996Z" fill="#565656"/>
</g>
</svg>
