<svg width="24" height="24" viewBox="0 0 24 24" fill="none" xmlns="http://www.w3.org/2000/svg">
<g id="menuButton">
<path id="icon" fill-rule="evenodd" clip-rule="evenodd" d="M7.99999 7.6C7.99999 8.48366 7.28364 9.2 6.39999 9.2C5.51633 9.2 4.79999 8.48366 4.79999 7.6C4.79999 6.71634 5.51633 6 6.39999 6C7.28364 6 7.99999 6.71634 7.99999 7.6ZM13.6 7.6C13.6 8.48366 12.8836 9.2 12 9.2C11.1163 9.2 10.4 8.48366 10.4 7.6C10.4 6.71634 11.1163 6 12 6C12.8836 6 13.6 6.71634 13.6 7.6ZM17.6 9.2C18.4837 9.2 19.2 8.48366 19.2 7.6C19.2 6.71634 18.4837 6 17.6 6C16.7163 6 16 6.71634 16 7.6C16 8.48366 16.7163 9.2 17.6 9.2Z" fill="white"/>
</g>
</svg>
