<svg width="20" height="20" viewBox="0 0 20 20" fill="none" xmlns="http://www.w3.org/2000/svg">
<g id="icon_setting_emoticon">
<g id="Group">
<path id="Combined Shape" fill-rule="evenodd" clip-rule="evenodd" d="M7.24847 6.5C6.55811 6.5 5.99847 7.05964 5.99847 7.75V7.8125C5.99847 8.50286 6.55811 9.0625 7.24847 9.0625C7.93882 9.0625 8.49847 8.50286 8.49847 7.8125V7.75C8.49847 7.05964 7.93882 6.5 7.24847 6.5ZM12.8141 6.5C12.1238 6.5 11.5641 7.05964 11.5641 7.75V7.8125C11.5641 8.50286 12.1238 9.0625 12.8141 9.0625C13.5045 9.0625 14.0641 8.50286 14.0641 7.8125V7.75C14.0641 7.05964 13.5045 6.5 12.8141 6.5Z" fill="white"/>
<path id="Path 2" d="M5.86754 11.4283V11.4283C7.60641 14.7799 12.4168 14.7592 14.195 11.4283V11.4283" stroke="white" stroke-width="1.8"/>
</g>
<path id="Oval" d="M19 10C19 14.9706 14.9706 19 10 19C5.02944 19 1 14.9706 1 10C1 5.02944 5.02944 1 10 1C14.9706 1 19 5.02944 19 10Z" stroke="white" stroke-width="2"/>
</g>
</svg>
