<svg width="20" height="20" viewBox="0 0 20 20" fill="none" xmlns="http://www.w3.org/2000/svg">
<g id="icon_setting_information">
<circle id="Oval" cx="10" cy="10" r="9" stroke="white" stroke-width="2"/>
<path id="Path" d="M9 14.7274H11V8.72737H9V14.7274Z" fill="white"/>
<path id="Path_2" d="M10 7.59228C10.337 7.59228 10.6213 7.47412 10.8528 7.2378C11.0842 7.00147 11.2 6.71978 11.2 6.39271C11.2 6.06036 11.0842 5.7772 10.8528 5.54324C10.6213 5.30927 10.337 5.19228 10 5.19228C9.666 5.19228 9.38248 5.30927 9.14948 5.54324C8.91649 5.7772 8.79999 6.06036 8.79999 6.39271C8.79999 6.71978 8.91649 7.00147 9.14948 7.2378C9.38248 7.47412 9.666 7.59228 10 7.59228Z" fill="white"/>
</g>
</svg>
