<svg width="20" height="20" viewBox="0 0 20 20" fill="none" xmlns="http://www.w3.org/2000/svg">
<g id="icon_setting_notification">
<path id="Path" d="M8 17C8 18.1046 8.89543 19 10 19C11.1046 19 12 18.1046 12 17" stroke="white" stroke-width="2"/>
<path id="Rectangle" d="M1.99872 15C2.04684 14.8662 2.09578 14.7249 2.1447 14.5767C2.51057 13.4686 2.89024 11.9353 2.89024 10.3158V10.3123V10.3089V10.3054V10.3019V10.2985V10.295V10.2915V10.288V10.2845V10.281V10.2776V10.2741V10.2705V10.267V10.2635V10.26V10.2565V10.253V10.2494V10.2459V10.2424V10.2388V10.2353V10.2317V10.2282V10.2246V10.2211V10.2175V10.2139V10.2104V10.2068V10.2032V10.1996V10.196V10.1925V10.1889V10.1853V10.1817V10.1781V10.1744V10.1708V10.1672V10.1636V10.16V10.1563V10.1527V10.1491V10.1454V10.1418V10.1381V10.1345V10.1308V10.1272V10.1235V10.1198V10.1161V10.1125V10.1088V10.1051V10.1014V10.0977V10.094V10.0903V10.0866V10.0829V10.0792V10.0755V10.0718V10.0681V10.0643V10.0606V10.0569V10.0531V10.0494V10.0457V10.0419V10.0382V10.0344V10.0306V10.0269V10.0231V10.0193V10.0156V10.0118V10.008V10.0042V10.0004V9.99665V9.99286V9.98906V9.98525V9.98145V9.97764V9.97382V9.97001V9.96618V9.96236V9.95853V9.9547V9.95086V9.94702V9.94318V9.93933V9.93548V9.93163V9.92777V9.92391V9.92005V9.91618V9.91231V9.90843V9.90455V9.90067V9.89678V9.89289V9.889V9.8851V9.8812V9.8773V9.87339V9.86948V9.86557V9.86165V9.85773V9.8538V9.84987V9.84594V9.842V9.83807V9.83412V9.83018V9.82623V9.82227V9.81832V9.81436V9.81039V9.80643V9.80246V9.79848V9.7945V9.79052V9.78654V9.78255V9.77856V9.77456V9.77057V9.76657V9.76256V9.75855V9.75454V9.75052V9.74651V9.74248V9.73846V9.73443V9.7304V9.72636V9.72232V9.71828V9.71423V9.71018V9.70613V9.70208V9.69802V9.69395V9.68989V9.68582V9.68175V9.67767V9.67359V9.66951V9.66542V9.66133V9.65724V9.65314V9.64904V9.64494V9.64084V9.63673V9.63261V9.6285V9.62438V9.62026V9.61613V9.612V9.60787V9.60373V9.5996V9.59545V9.59131V9.58716V9.58301V9.57885V9.5747V9.57053V9.56637V9.5622V9.55803V9.55386V9.54968V9.5455V9.54131V9.53713V9.53294V9.52874V9.52455V9.52035V9.51614V9.51194V9.50773V9.50352V9.4993V9.49508V9.49086V9.48663V9.48241V9.47818V9.47394V9.4697V9.46546V9.46122V9.45697V9.45272V9.44847V9.44421V9.43995V9.43569V9.43142V9.42716V9.42288V9.41861V9.41433V9.41005V9.40577V9.40148V9.39719V9.39289V9.3886V9.3843V9.38V9.37569V9.37138V9.36707V9.36276V9.35844V9.35412V9.3498V9.34547V9.34114V9.33681V9.33247V9.32813V9.32379V9.31945V9.3151V9.31075V9.3064V9.30204V9.29768V9.29332V9.28895V9.28458V9.28021V9.27584V9.27146V9.26708V9.2627V9.25831V9.25393V9.24953V9.24514V9.24074V9.23634V9.23194V9.22753V9.22312V9.21871V9.2143V9.20988V9.20546V9.20103V9.19661V9.19218V9.18775V9.18331V9.17887V9.17443V9.16999V9.16555V9.1611V9.15664V9.15219V9.14773V9.14327V9.13881V9.13434V9.12987V9.1254V9.12093V9.11645V9.11197V9.10749V9.103V9.09852V9.09402V9.08953V9.08503V9.08054V9.07603V9.07153V9.06702V9.06251V9.058V9.05348V9.04896V9.04444V9.03992V9.03539V9.03086V9.02633V9.0218V9.01726V9.01272V9.00818V9.00363V8.99908V8.99453V8.98998V8.98542V8.98087V8.9763V8.97174V8.96717V8.9626V8.95803V8.95346V8.94888V8.9443V8.93972V8.93513V8.93055V8.92595V8.92136V8.91677V8.91217V8.90757V8.90296V8.89836V8.89375V8.88914V8.88453V8.87991V8.87529V8.87067V8.86605V8.86142V8.85679V8.85216V8.84753V8.84289V8.83825V8.83361V8.82896V8.82432V8.81967V8.81502V8.81036V8.80571V8.80105V8.79638V8.79172V8.78705V8.78238V8.77771V8.77304V8.76836V8.76368V8.759V8.75432V8.74963V8.74494V8.74025V8.73556V8.73086V8.72616V8.72146V8.71676V8.71205V8.70735V8.70263V8.69792V8.69321V8.68849V8.68377V8.67905V8.67432V8.66959V8.66486V8.66013V8.6554V8.65066V8.64592V8.64118V8.63644V8.63169V8.62694V8.62219V8.61744V8.61268V8.60792V8.60316V8.5984V8.59364V8.58887V8.5841V8.57933V8.57455V8.56978V8.565V8.56022V8.55544V8.55065V8.54586V8.54107V8.53628V8.53149V8.52669V8.52189V8.51709V8.51229V8.50748V8.50267V8.49786V8.49305V8.48824V8.48342V8.4786V8.47378V8.46896V8.46413V8.4593V8.45447V8.44964V8.44481V8.43997V8.43513V8.43029V8.42545V8.4206V8.41575V8.4109V8.40605V8.4012V8.39634V8.39148V8.38662V8.38176V8.3769V8.37203V8.36716V8.36229V8.35742V8.35254V8.34767V8.34279V8.33791V8.33302V8.32814V8.32325V8.31836V8.31347V8.30858V8.30368V8.29878V8.29388V8.28898V8.28408V8.27917V8.27426V8.26935V8.26444V8.25953V8.25461V8.24969V8.24477V8.23985V8.23493V8.23V8.22507V8.22014V8.21521V8.21028V8.20534V8.2004V8.19546V8.19052V8.18558V8.18063V8.17568V8.17073V8.16578V8.16083V8.15587V8.15092V8.14596V8.14099V8.13603V8.13107V8.1261V8.12113V8.11616V8.11119C2.89024 4.18435 6.07362 1 10 1C13.9264 1 17.1098 4.18435 17.1098 8.11119V8.11616V8.12113V8.1261V8.13107V8.13603V8.141V8.14596V8.15092V8.15587V8.16083V8.16578V8.17074V8.17568V8.18063V8.18558V8.19052V8.19546V8.2004V8.20534V8.21028V8.21521V8.22014V8.22507V8.23V8.23493V8.23985V8.24477V8.24969V8.25461V8.25953V8.26444V8.26935V8.27426V8.27917V8.28408V8.28898V8.29388V8.29878V8.30368V8.30858V8.31347V8.31836V8.32325V8.32814V8.33302V8.33791V8.34279V8.34767V8.35255V8.35742V8.36229V8.36716V8.37203V8.3769V8.38176V8.38663V8.39149V8.39634V8.4012V8.40605V8.4109V8.41576V8.4206V8.42545V8.43029V8.43513V8.43997V8.44481V8.44964V8.45447V8.4593V8.46413V8.46896V8.47378V8.4786V8.48342V8.48824V8.49305V8.49786V8.50267V8.50748V8.51229V8.51709V8.52189V8.52669V8.53149V8.53628V8.54107V8.54586V8.55065V8.55544V8.56022V8.565V8.56978V8.57456V8.57933V8.5841V8.58887V8.59364V8.5984V8.60317V8.60793V8.61268V8.61744V8.62219V8.62694V8.63169V8.63644V8.64118V8.64592V8.65066V8.6554V8.66013V8.66487V8.66959V8.67432V8.67905V8.68377V8.68849V8.69321V8.69792V8.70264V8.70735V8.71206V8.71676V8.72146V8.72616V8.73086V8.73556V8.74025V8.74494V8.74963V8.75432V8.759V8.76369V8.76836V8.77304V8.77771V8.78239V8.78706V8.79172V8.79639V8.80105V8.80571V8.81036V8.81502V8.81967V8.82432V8.82897V8.83361V8.83825V8.84289V8.84753V8.85216V8.85679V8.86142V8.86605V8.87067V8.87529V8.87991V8.88453V8.88914V8.89375V8.89836V8.90297V8.90757V8.91217V8.91677V8.92136V8.92596V8.93055V8.93513V8.93972V8.9443V8.94888V8.95346V8.95803V8.96261V8.96717V8.97174V8.97631V8.98087V8.98542V8.98998V8.99453V8.99909V9.00363V9.00818V9.01272V9.01726V9.0218V9.02633V9.03086V9.03539V9.03992V9.04444V9.04897V9.05348V9.058V9.06251V9.06702V9.07153V9.07603V9.08054V9.08504V9.08953V9.09403V9.09852V9.103V9.10749V9.11197V9.11645V9.12093V9.1254V9.12988V9.13434V9.13881V9.14327V9.14773V9.15219V9.15664V9.1611V9.16555V9.16999V9.17444V9.17888V9.18331V9.18775V9.19218V9.19661V9.20104V9.20546V9.20988V9.2143V9.21871V9.22312V9.22753V9.23194V9.23634V9.24074V9.24514V9.24953V9.25393V9.25831V9.2627V9.26708V9.27146V9.27584V9.28021V9.28458V9.28895V9.29332V9.29768V9.30204V9.3064V9.31075V9.3151V9.31945V9.32379V9.32813V9.33247V9.33681V9.34114V9.34547V9.3498V9.35412V9.35844V9.36276V9.36707V9.37138V9.37569V9.38V9.3843V9.3886V9.3929V9.39719V9.40148V9.40577V9.41005V9.41433V9.41861V9.42288V9.42716V9.43142V9.43569V9.43995V9.44421V9.44847V9.45272V9.45697V9.46122V9.46546V9.4697V9.47394V9.47818V9.48241V9.48664V9.49086V9.49508V9.4993V9.50352V9.50773V9.51194V9.51614V9.52035V9.52455V9.52874V9.53294V9.53713V9.54132V9.5455V9.54968V9.55386V9.55803V9.5622V9.56637V9.57053V9.5747V9.57885V9.58301V9.58716V9.59131V9.59545V9.5996V9.60373V9.60787V9.612V9.61613V9.62026V9.62438V9.6285V9.63261V9.63673V9.64084V9.64494V9.64904V9.65314V9.65724V9.66133V9.66542V9.66951V9.67359V9.67767V9.68175V9.68582V9.68989V9.69395V9.69802V9.70208V9.70613V9.71019V9.71423V9.71828V9.72232V9.72636V9.7304V9.73443V9.73846V9.74248V9.74651V9.75052V9.75454V9.75855V9.76256V9.76657V9.77057V9.77457V9.77856V9.78255V9.78654V9.79052V9.7945V9.79848V9.80246V9.80643V9.81039V9.81436V9.81832V9.82227V9.82623V9.83018V9.83412V9.83807V9.842V9.84594V9.84987V9.8538V9.85773V9.86165V9.86557V9.86948V9.87339V9.8773V9.8812V9.8851V9.889V9.89289V9.89678V9.90067V9.90455V9.90843V9.91231V9.91618V9.92005V9.92391V9.92777V9.93163V9.93548V9.93933V9.94318V9.94702V9.95086V9.9547V9.95853V9.96236V9.96618V9.97001V9.97382V9.97764V9.98145V9.98525V9.98906V9.99286V9.99665V10.0004V10.0042V10.008V10.0118V10.0156V10.0193V10.0231V10.0269V10.0306V10.0344V10.0382V10.0419V10.0457V10.0494V10.0531V10.0569V10.0606V10.0643V10.0681V10.0718V10.0755V10.0792V10.0829V10.0866V10.0903V10.094V10.0977V10.1014V10.1051V10.1088V10.1125V10.1161V10.1198V10.1235V10.1272V10.1308V10.1345V10.1381V10.1418V10.1454V10.1491V10.1527V10.1563V10.16V10.1636V10.1672V10.1708V10.1744V10.1781V10.1817V10.1853V10.1889V10.1925V10.196V10.1996V10.2032V10.2068V10.2104V10.2139V10.2175V10.2211V10.2246V10.2282V10.2317V10.2353V10.2388V10.2424V10.2459V10.2494V10.253V10.2565V10.26V10.2635V10.267V10.2705V10.2741V10.2776V10.281V10.2845V10.288V10.2915V10.295V10.2985V10.3019V10.3054V10.3089V10.3123V10.3158C17.1098 11.9353 17.4894 13.4686 17.8553 14.5767C17.9042 14.7249 17.9532 14.8662 18.0013 15H1.99872Z" stroke="white" stroke-width="2"/>
</g>
</svg>
