<svg width="24" height="24" viewBox="0 0 24 24" fill="none" xmlns="http://www.w3.org/2000/svg">
<g id="searTabIconOff">
<g id="icon">
<path id="Union" fill-rule="evenodd" clip-rule="evenodd" d="M22.75 12C22.75 17.9371 17.9371 22.75 12 22.75C6.06294 22.75 1.25 17.9371 1.25 12C1.25 6.06294 6.06294 1.25 12 1.25C17.9371 1.25 22.75 6.06294 22.75 12ZM17.375 6.625L14.2993 14.2993L6.625 17.375L9.70074 9.70074L17.375 6.625ZM12 10.5C12.8285 10.5 13.5 11.1716 13.5 12C13.5 12.8284 12.8285 13.5 12 13.5C11.1716 13.5 10.5 12.8284 10.5 12C10.5 11.1716 11.1716 10.5 12 10.5Z" fill="#A2A8B2"/>
</g>
</g>
</svg>
