<svg width="24" height="25" viewBox="0 0 24 25" fill="none" xmlns="http://www.w3.org/2000/svg">
<g id="searTabIconOff">
<g id="icon">
<path id="Union" fill-rule="evenodd" clip-rule="evenodd" d="M22.75 12.6667C22.75 18.6037 17.9371 23.4167 12 23.4167C6.06294 23.4167 1.25 18.6037 1.25 12.6667C1.25 6.7296 6.06294 1.91666 12 1.91666C17.9371 1.91666 22.75 6.7296 22.75 12.6667ZM17.375 7.29166L14.2993 14.9659L6.625 18.0417L9.70074 10.3674L17.375 7.29166ZM12 11.1667C12.8285 11.1667 13.5 11.8382 13.5 12.6667C13.5 13.4951 12.8285 14.1667 12 14.1667C11.1716 14.1667 10.5 13.4951 10.5 12.6667C10.5 11.8382 11.1716 11.1667 12 11.1667Z" fill="black"/>
</g>
</g>
</svg>
