<svg width="24" height="24" viewBox="0 0 24 24" fill="none" xmlns="http://www.w3.org/2000/svg">
<g id="&#8;feedIcon">
<g id="icon">
<mask id="path-1-inside-1_179_4627" fill="white">
<path fill-rule="evenodd" clip-rule="evenodd" d="M2.5 10L12 2L21.5 10V22H2.5V10ZM15.8 15.8716V13.0145H8.2V15.8716H15.8Z"/>
</mask>
<path fill-rule="evenodd" clip-rule="evenodd" d="M2.5 10L12 2L21.5 10V22H2.5V10ZM15.8 15.8716V13.0145H8.2V15.8716H15.8Z" fill="white"/>
<path d="M12 2L12.3374 1.59933L12 1.3152L11.6626 1.59933L12 2ZM2.5 10L2.1626 9.59933L1.97619 9.7563V10H2.5ZM21.5 10H22.0238V9.7563L21.8374 9.59933L21.5 10ZM21.5 22V22.5238H22.0238V22H21.5ZM2.5 22H1.97619V22.5238H2.5V22ZM15.8 13.0145H16.3238V12.4907H15.8V13.0145ZM15.8 15.8716V16.3954H16.3238V15.8716H15.8ZM8.2 13.0145V12.4907H7.67619V13.0145H8.2ZM8.2 15.8716H7.67619V16.3954H8.2V15.8716ZM11.6626 1.59933L2.1626 9.59933L2.8374 10.4007L12.3374 2.40067L11.6626 1.59933ZM21.8374 9.59933L12.3374 1.59933L11.6626 2.40067L21.1626 10.4007L21.8374 9.59933ZM22.0238 22V10H20.9762V22H22.0238ZM2.5 22.5238H21.5V21.4762H2.5V22.5238ZM1.97619 10V22H3.02381V10H1.97619ZM15.2762 13.0145V15.8716H16.3238V13.0145H15.2762ZM8.2 13.5383H15.8V12.4907H8.2V13.5383ZM8.72381 15.8716V13.0145H7.67619V15.8716H8.72381ZM15.8 15.3478H8.2V16.3954H15.8V15.3478Z" fill="black" fill-opacity="0.04" mask="url(#path-1-inside-1_179_4627)"/>
</g>
</g>
</svg>
