<svg width="24" height="24" viewBox="0 0 24 24" fill="none" xmlns="http://www.w3.org/2000/svg">
<g id="notificationOffIcon">
<path id="Union" fill-rule="evenodd" clip-rule="evenodd" d="M2.86171 19.9555L20.0492 2.76802L19.2007 1.91949L2.01318 19.107L2.86171 19.9555ZM12.2897 2.11319C13.6058 2.11319 14.8443 2.45999 15.9258 3.07321L4.22412 14.7749C4.42981 13.846 4.54969 12.8978 4.58096 11.9423L4.63872 10.1775C4.63872 5.68795 8.0642 2.11319 12.2897 2.11319ZM12.2669 17.8284H7.11031L18.8785 6.06018C19.5533 7.26178 19.9405 8.66793 19.9406 10.1775L19.9406 10.1775L19.9983 11.9423C20.0649 13.9759 20.5328 15.9763 21.3751 17.8284H12.3124L12.2897 17.8284L12.2669 17.8284ZM12.2896 22.1593C11.0237 22.1593 9.99739 21.092 9.99739 19.7754H14.5818C14.5818 21.092 13.5556 22.1593 12.2896 22.1593Z" fill="white"/>
</g>
</svg>
