<svg width="24" height="25" viewBox="0 0 24 25" fill="none" xmlns="http://www.w3.org/2000/svg">
<rect x="3" y="3.00195" width="18.5" height="18.5" rx="9.25" stroke="white" stroke-width="1.9"/>
<path fill-rule="evenodd" clip-rule="evenodd" d="M9.35 12.202C9.35 12.9199 8.76797 13.502 8.05 13.502C7.33203 13.502 6.75 12.9199 6.75 12.202C6.75 11.484 7.33203 10.902 8.05 10.902C8.76797 10.902 9.35 11.484 9.35 12.202ZM13.55 12.202C13.55 12.9199 12.968 13.502 12.25 13.502C11.532 13.502 10.95 12.9199 10.95 12.202C10.95 11.484 11.532 10.902 12.25 10.902C12.968 10.902 13.55 11.484 13.55 12.202ZM16.45 13.502C17.168 13.502 17.75 12.9199 17.75 12.202C17.75 11.484 17.168 10.902 16.45 10.902C15.732 10.902 15.15 11.484 15.15 12.202C15.15 12.9199 15.732 13.502 16.45 13.502Z" fill="white"/>
</svg>
