<svg width="24" height="25" viewBox="0 0 24 25" fill="none" xmlns="http://www.w3.org/2000/svg">
<path d="M3.19613 17.7645C3.24264 17.492 3.29313 17.1864 3.34364 16.8631C3.52067 15.7304 3.71127 14.3009 3.71127 13.3336V13.3307V13.3278V13.3249V13.3219V13.319V13.316V13.313V13.31V13.307V13.304V13.301V13.2979V13.2948V13.2918V13.2887V13.2855V13.2824V13.2793V13.2761V13.2729V13.2698V13.2666V13.2633V13.2601V13.2569V13.2536V13.2503V13.247V13.2437V13.2404V13.2371V13.2338V13.2304V13.227V13.2236V13.2202V13.2168V13.2134V13.2099V13.2065V13.203V13.1995V13.196V13.1925V13.1889V13.1854V13.1818V13.1783V13.1747V13.1711V13.1675V13.1638V13.1602V13.1565V13.1529V13.1492V13.1455V13.1417V13.138V13.1343V13.1305V13.1267V13.123V13.1192V13.1154V13.1115V13.1077V13.1038V13.1V13.0961V13.0922V13.0883V13.0844V13.0804V13.0765V13.0725V13.0685V13.0645V13.0605V13.0565V13.0525V13.0484V13.0444V13.0403V13.0362V13.0321V13.028V13.0239V13.0198V13.0156V13.0114V13.0073V13.0031V12.9989V12.9946V12.9904V12.9862V12.9819V12.9776V12.9734V12.9691V12.9647V12.9604V12.9561V12.9517V12.9474V12.943V12.9386V12.9342V12.9298V12.9254V12.9209V12.9165V12.912V12.9075V12.903V12.8985V12.894V12.8895V12.8849V12.8803V12.8758V12.8712V12.8666V12.862V12.8574V12.8527V12.8481V12.8434V12.8388V12.8341V12.8294V12.8247V12.8199V12.8152V12.8105V12.8057V12.8009V12.7961V12.7913V12.7865V12.7817V12.7769V12.772V12.7672V12.7623V12.7574V12.7525V12.7476V12.7427V12.7377V12.7328V12.7278V12.7229V12.7179V12.7129V12.7079V12.7029V12.6978V12.6928V12.6877V12.6827V12.6776V12.6725V12.6674V12.6623V12.6571V12.652V12.6468V12.6417V12.6365V12.6313V12.6261V12.6209V12.6157V12.6104V12.6052V12.5999V12.5947V12.5894V12.5841V12.5788V12.5735V12.5681V12.5628V12.5574V12.5521V12.5467V12.5413V12.5359V12.5305V12.5251V12.5196V12.5142V12.5087V12.5033V12.4978V12.4923V12.4868V12.4813V12.4758V12.4702V12.4647V12.4591V12.4536V12.448V12.4424V12.4368V12.4312V12.4255V12.4199V12.4142V12.4086V12.4029V12.3972V12.3915V12.3858V12.3801V12.3744V12.3687V12.3629V12.3571V12.3514V12.3456V12.3398V12.334V12.3282V12.3224V12.3165V12.3107V12.3048V12.2989V12.2931V12.2872V12.2813V12.2754V12.2694V12.2635V12.2576V12.2516V12.2456V12.2397V12.2337V12.2277V12.2217V12.2157V12.2096V12.2036V12.1975V12.1915V12.1854V12.1793V12.1732V12.1671V12.161V12.1549V12.1488V12.1426V12.1365V12.1303V12.1241V12.1179V12.1117V12.1055V12.0993V12.0931V12.0869V12.0806V12.0744V12.0681V12.0618V12.0555V12.0492V12.0429V12.0366V12.0303V12.024V12.0176V12.0113V12.0049V11.9985V11.9921V11.9857V11.9793V11.9729V11.9665V11.96V11.9536V11.9471V11.9407V11.9342V11.9277V11.9212V11.9147V11.9082V11.9017V11.8952V11.8886V11.8821V11.8755V11.8689V11.8623V11.8558V11.8492V11.8425V11.8359V11.8293V11.8227V11.816V11.8094V11.8027V11.796V11.7893V11.7826V11.7759V11.7692V11.7625V11.7558V11.749V11.7423V11.7355V11.7288V11.722V11.7152V11.7084V11.7016V11.6948V11.688V11.6811V11.6743V11.6674V11.6606V11.6537V11.6468V11.6399V11.6331V11.6262V11.6192V11.6123V11.6054V11.5984V11.5915V11.5845V11.5776V11.5706V11.5636V11.5566V11.5496V11.5426V11.5356V11.5286V11.5215V11.5145V11.5074V11.5004V11.4933V11.4862V11.4792V11.4721V11.465V11.4578V11.4507V11.4436V11.4365V11.4293V11.4222V11.415V11.4078V11.4006V11.3935V11.3863V11.3791V11.3718V11.3646V11.3574V11.3502V11.3429V11.3357V11.3284V11.3211V11.3139V11.3066V11.2993V11.292V11.2847V11.2773V11.27V11.2627V11.2553V11.248V11.2406V11.2333V11.2259V11.2185V11.2111V11.2037V11.1963V11.1889V11.1815V11.1741V11.1666V11.1592V11.1517V11.1443V11.1368V11.1293V11.1219V11.1144V11.1069V11.0994V11.0918V11.0843V11.0768V11.0693V11.0617V11.0542V11.0466V11.039V11.0315V11.0239V11.0163V11.0087V11.0011V10.9935V10.9859V10.9783V10.9706V10.963V10.9553V10.9477V10.94V10.9324V10.9247V10.917V10.9093V10.9016V10.8939V10.8862V10.8785V10.8708V10.863V10.8553V10.8476V10.8398V10.832V10.8243V10.8165V10.8087V10.8009V10.7931V10.7853V10.7775V10.7697V10.7619V10.7541V10.7462V10.7384V10.7305V10.7227V10.7148V10.707V10.6991V10.6912V10.6833V10.6754V10.6675V10.6596V10.6517V10.6438V10.6359V10.6279V10.62V10.612V10.6041V10.5961V10.5882V10.5802V10.5722V10.5642V10.5562V10.5482V10.5402V10.5322V10.5242V10.5162V10.5081V10.5001V10.4921V10.484V10.476V10.4679V10.4598V10.4518V10.4437V10.4356V10.4275V10.4194V10.4113V10.4032V10.3951V10.387V10.3789V10.3707V10.3626V10.3544V10.3463V10.3381V10.33V10.3218V10.3136V10.3055V10.2973C3.71127 5.95771 7.2292 2.43945 11.5686 2.43945C15.9078 2.43945 19.426 5.95896 19.426 10.2987V10.3067V10.3146V10.3225V10.3304V10.3383V10.3462V10.3541V10.362V10.3699V10.3777V10.3856V10.3935V10.4013V10.4092V10.417V10.4249V10.4327V10.4406V10.4484V10.4562V10.464V10.4718V10.4796V10.4874V10.4952V10.503V10.5108V10.5186V10.5264V10.5341V10.5419V10.5497V10.5574V10.5652V10.5729V10.5806V10.5884V10.5961V10.6038V10.6115V10.6192V10.6269V10.6346V10.6423V10.65V10.6577V10.6653V10.673V10.6807V10.6883V10.696V10.7036V10.7112V10.7189V10.7265V10.7341V10.7417V10.7493V10.7569V10.7645V10.7721V10.7797V10.7873V10.7948V10.8024V10.81V10.8175V10.8251V10.8326V10.8401V10.8477V10.8552V10.8627V10.8702V10.8777V10.8852V10.8927V10.9002V10.9077V10.9151V10.9226V10.93V10.9375V10.9449V10.9524V10.9598V10.9672V10.9747V10.9821V10.9895V10.9969V11.0043V11.0116V11.019V11.0264V11.0338V11.0411V11.0485V11.0558V11.0632V11.0705V11.0778V11.0851V11.0925V11.0998V11.1071V11.1144V11.1216V11.1289V11.1362V11.1435V11.1507V11.158V11.1652V11.1725V11.1797V11.1869V11.1941V11.2013V11.2085V11.2157V11.2229V11.2301V11.2373V11.2444V11.2516V11.2588V11.2659V11.273V11.2802V11.2873V11.2944V11.3015V11.3086V11.3157V11.3228V11.3299V11.337V11.344V11.3511V11.3582V11.3652V11.3722V11.3793V11.3863V11.3933V11.4003V11.4073V11.4143V11.4213V11.4283V11.4352V11.4422V11.4492V11.4561V11.4631V11.47V11.4769V11.4838V11.4907V11.4976V11.5045V11.5114V11.5183V11.5252V11.532V11.5389V11.5457V11.5526V11.5594V11.5662V11.5731V11.5799V11.5867V11.5935V11.6003V11.607V11.6138V11.6206V11.6273V11.6341V11.6408V11.6475V11.6543V11.661V11.6677V11.6744V11.6811V11.6878V11.6944V11.7011V11.7078V11.7144V11.721V11.7277V11.7343V11.7409V11.7475V11.7541V11.7607V11.7673V11.7739V11.7805V11.787V11.7936V11.8001V11.8066V11.8132V11.8197V11.8262V11.8327V11.8392V11.8457V11.8521V11.8586V11.8651V11.8715V11.878V11.8844V11.8908V11.8972V11.9036V11.91V11.9164V11.9228V11.9292V11.9356V11.9419V11.9483V11.9546V11.9609V11.9672V11.9735V11.9799V11.9861V11.9924V11.9987V12.005V12.0112V12.0175V12.0237V12.03V12.0362V12.0424V12.0486V12.0548V12.061V12.0672V12.0733V12.0795V12.0856V12.0918V12.0979V12.104V12.1101V12.1163V12.1223V12.1284V12.1345V12.1406V12.1466V12.1527V12.1587V12.1648V12.1708V12.1768V12.1828V12.1888V12.1948V12.2008V12.2067V12.2127V12.2186V12.2246V12.2305V12.2364V12.2423V12.2482V12.2541V12.26V12.2659V12.2717V12.2776V12.2834V12.2892V12.2951V12.3009V12.3067V12.3125V12.3183V12.324V12.3298V12.3356V12.3413V12.347V12.3528V12.3585V12.3642V12.3699V12.3756V12.3813V12.3869V12.3926V12.3982V12.4039V12.4095V12.4151V12.4207V12.4263V12.4319V12.4375V12.4431V12.4486V12.4542V12.4597V12.4652V12.4707V12.4762V12.4817V12.4872V12.4927V12.4982V12.5036V12.5091V12.5145V12.5199V12.5254V12.5308V12.5362V12.5415V12.5469V12.5523V12.5576V12.563V12.5683V12.5736V12.5789V12.5842V12.5895V12.5948V12.6001V12.6053V12.6106V12.6158V12.6211V12.6263V12.6315V12.6367V12.6419V12.647V12.6522V12.6574V12.6625V12.6676V12.6728V12.6779V12.683V12.6881V12.6931V12.6982V12.7033V12.7083V12.7133V12.7184V12.7234V12.7284V12.7334V12.7384V12.7433V12.7483V12.7532V12.7582V12.7631V12.768V12.7729V12.7778V12.7827V12.7876V12.7924V12.7973V12.8021V12.8069V12.8117V12.8165V12.8213V12.8261V12.8309V12.8357V12.8404V12.8451V12.8499V12.8546V12.8593V12.864V12.8686V12.8733V12.878V12.8826V12.8873V12.8919V12.8965V12.9011V12.9057V12.9103V12.9148V12.9194V12.9239V12.9285V12.933V12.9375V12.942V12.9465V12.9509V12.9554V12.9598V12.9643V12.9687V12.9731V12.9775V12.9819V12.9863V12.9907V12.995V12.9994V13.0037V13.008V13.0123V13.0166V13.0209V13.0252V13.0294V13.0337V13.0379V13.0422V13.0464V13.0506V13.0548V13.0589V13.0631V13.0673V13.0714V13.0755V13.0796V13.0837V13.0878V13.0919V13.096V13.1V13.1041V13.1081V13.1121V13.1161V13.1201V13.1241V13.1281V13.1321V13.136V13.1399V13.1439V13.1478V13.1517V13.1555V13.1594V13.1633V13.1671V13.171V13.1748V13.1786V13.1824V13.1862V13.1899V13.1937V13.1974V13.2012V13.2049V13.2086V13.2123V13.216V13.2197V13.2233V13.227V13.2306V13.2342V13.2378V13.2414V13.245V13.2486V13.2521V13.2557V13.2592V13.2627V13.2662V13.2697V13.2732V13.2767V13.2801V13.2835V13.287V13.2904V13.2938V13.2972V13.3006V13.3039V13.3073V13.3106V13.3139V13.3172V13.3205V13.3238V13.3271V13.3303V13.3336C19.426 14.45 19.6478 15.8858 19.855 16.9953C19.9063 17.2701 19.9576 17.5294 20.0058 17.7645H3.19613Z" stroke="white" stroke-width="2"/>
<path d="M8.35256 20.5859C10.1568 22.3653 13.082 22.3653 14.8862 20.5859" stroke="white" stroke-width="2"/>
</svg>
