<svg width="61" height="60" viewBox="0 0 61 60" fill="none" xmlns="http://www.w3.org/2000/svg">
<g opacity="0.7" filter="url(#filter0_d_339_758)">
<path fill-rule="evenodd" clip-rule="evenodd" d="M25.875 43.0059V35.7813L16.8771 27.7831C16.7606 28.5049 16.7 29.2454 16.7 30C16.7 35.9993 20.5282 41.1044 25.875 43.0059ZM44.3 30C44.3 32.5291 43.6197 34.8993 42.432 36.9375H37.4375V32.3125C37.4375 31.0353 36.4022 30 35.125 30H25.875V26.5313H28.1875C29.4647 26.5313 30.5 25.4959 30.5 24.2188V20.75H40.7411C42.953 23.1974 44.3 26.4414 44.3 30ZM49 30C49 40.2173 40.7173 48.5 30.5 48.5C20.2827 48.5 12 40.2173 12 30C12 19.7827 20.2827 11.5 30.5 11.5C40.7173 11.5 49 19.7827 49 30Z" fill="#5F5F5F"/>
</g>
<defs>
<filter id="filter0_d_339_758" x="8" y="7.5" width="45" height="45" filterUnits="userSpaceOnUse" color-interpolation-filters="sRGB">
<feFlood flood-opacity="0" result="BackgroundImageFix"/>
<feColorMatrix in="SourceAlpha" type="matrix" values="0 0 0 0 0 0 0 0 0 0 0 0 0 0 0 0 0 0 127 0" result="hardAlpha"/>
<feOffset/>
<feGaussianBlur stdDeviation="2"/>
<feComposite in2="hardAlpha" operator="out"/>
<feColorMatrix type="matrix" values="0 0 0 0 0 0 0 0 0 0 0 0 0 0 0 0 0 0 0.16 0"/>
<feBlend mode="normal" in2="BackgroundImageFix" result="effect1_dropShadow_339_758"/>
<feBlend mode="normal" in="SourceGraphic" in2="effect1_dropShadow_339_758" result="shape"/>
</filter>
</defs>
</svg>
