<svg width="61" height="60" viewBox="0 0 61 60" fill="none" xmlns="http://www.w3.org/2000/svg">
<g opacity="0.7" filter="url(#filter0_d_339_763)">
<path fill-rule="evenodd" clip-rule="evenodd" d="M30.5 10.1117C25.5122 10.1117 21.4688 14.1551 21.4688 19.143V22.0492H18C16.3431 22.0492 15 23.3923 15 25.0492V46.1742C15 47.831 16.3431 49.1742 18 49.1742H43C44.6569 49.1742 46 47.831 46 46.1742V25.0492C46 23.3923 44.6569 22.0492 43 22.0492H39.5312V19.143C39.5312 14.1551 35.4878 10.1117 30.5 10.1117ZM35.0312 22.0492V19.143C35.0312 16.6404 33.0025 14.6117 30.5 14.6117C27.9975 14.6117 25.9688 16.6404 25.9688 19.143V22.0492H35.0312ZM27.5938 35.6117C27.5938 34.0066 28.8949 32.7054 30.5 32.7054C32.1051 32.7054 33.4062 34.0066 33.4062 35.6117C33.4062 37.2167 32.1051 38.5179 30.5 38.5179C28.8949 38.5179 27.5938 37.2167 27.5938 35.6117Z" fill="#5F5F5F"/>
</g>
<defs>
<filter id="filter0_d_339_763" x="11" y="6.11169" width="39" height="47.0625" filterUnits="userSpaceOnUse" color-interpolation-filters="sRGB">
<feFlood flood-opacity="0" result="BackgroundImageFix"/>
<feColorMatrix in="SourceAlpha" type="matrix" values="0 0 0 0 0 0 0 0 0 0 0 0 0 0 0 0 0 0 127 0" result="hardAlpha"/>
<feOffset/>
<feGaussianBlur stdDeviation="2"/>
<feComposite in2="hardAlpha" operator="out"/>
<feColorMatrix type="matrix" values="0 0 0 0 0 0 0 0 0 0 0 0 0 0 0 0 0 0 0.16 0"/>
<feBlend mode="normal" in2="BackgroundImageFix" result="effect1_dropShadow_339_763"/>
<feBlend mode="normal" in="SourceGraphic" in2="effect1_dropShadow_339_763" result="shape"/>
</filter>
</defs>
</svg>
