<svg width="60" height="60" viewBox="0 0 60 60" fill="none" xmlns="http://www.w3.org/2000/svg">
<g opacity="0.6" filter="url(#filter0_d_339_781)">
<path fill-rule="evenodd" clip-rule="evenodd" d="M25.375 43.0059V35.7813L16.3771 27.7831C16.2606 28.5049 16.2 29.2454 16.2 30C16.2 35.9993 20.0282 41.1044 25.375 43.0059ZM43.8 30C43.8 32.5291 43.1197 34.8993 41.932 36.9375H36.9375V32.3125C36.9375 31.0353 35.9022 30 34.625 30H25.375V26.5313H27.6875C28.9647 26.5313 30 25.4959 30 24.2188V20.75H40.2411C42.453 23.1974 43.8 26.4414 43.8 30ZM48.5 30C48.5 40.2173 40.2173 48.5 30 48.5C19.7827 48.5 11.5 40.2173 11.5 30C11.5 19.7827 19.7827 11.5 30 11.5C40.2173 11.5 48.5 19.7827 48.5 30Z" fill="white"/>
</g>
<defs>
<filter id="filter0_d_339_781" x="7.5" y="7.5" width="45" height="45" filterUnits="userSpaceOnUse" color-interpolation-filters="sRGB">
<feFlood flood-opacity="0" result="BackgroundImageFix"/>
<feColorMatrix in="SourceAlpha" type="matrix" values="0 0 0 0 0 0 0 0 0 0 0 0 0 0 0 0 0 0 127 0" result="hardAlpha"/>
<feOffset/>
<feGaussianBlur stdDeviation="2"/>
<feComposite in2="hardAlpha" operator="out"/>
<feColorMatrix type="matrix" values="0 0 0 0 0 0 0 0 0 0 0 0 0 0 0 0 0 0 0.16 0"/>
<feBlend mode="normal" in2="BackgroundImageFix" result="effect1_dropShadow_339_781"/>
<feBlend mode="normal" in="SourceGraphic" in2="effect1_dropShadow_339_781" result="shape"/>
</filter>
</defs>
</svg>
