<svg width="72" height="72" viewBox="0 0 72 72" fill="none" xmlns="http://www.w3.org/2000/svg">
<path opacity="0.5" fill-rule="evenodd" clip-rule="evenodd" d="M44.6153 26.1493C44.6153 29.5297 43.2667 32.5134 41.2102 34.2931C42.0453 34.5557 42.9353 34.6974 43.859 34.6974C48.6585 34.6974 52.5492 30.8703 52.5492 26.1492C52.5492 21.4282 48.6585 17.601 43.859 17.601C42.9353 17.601 42.0453 17.7428 41.2102 18.0054C43.2667 19.7851 44.6153 22.7688 44.6153 26.1493ZM51.9845 54.7088H61.5V48.3627C61.5 43.7932 56.9656 38.8848 50.7433 38.8848H46.1924C46.1924 38.8848 51.9845 40.6626 51.9845 48.4473V54.7088Z" fill="#8C919E"/>
<path fill-rule="evenodd" clip-rule="evenodd" d="M30.9415 35.5303C35.9772 35.5303 40.0595 31.427 40.0595 26.3652C40.0595 21.3034 35.9772 17.2 30.9415 17.2C25.9057 17.2 21.8235 21.3034 21.8235 26.3652C21.8235 31.427 25.9057 35.5303 30.9415 35.5303ZM25.8389 38.8555C19.5766 38.8555 14.5 43.9321 14.5 50.1944V54.8H47.3829V50.1944C47.3829 43.9321 42.3063 38.8555 36.044 38.8555H30.9415H25.8389Z" fill="#8C919E"/>
</svg>
