<svg width="72" height="72" viewBox="0 0 72 72" fill="none" xmlns="http://www.w3.org/2000/svg">
<path fill-rule="evenodd" clip-rule="evenodd" d="M36 12C29.8788 12 24.9167 16.9622 24.9167 23.0833V26.25H21C18.7909 26.25 17 28.0409 17 30.25V54.9722C17 57.1814 18.7909 58.9722 21 58.9722H51C53.2091 58.9722 55 57.1814 55 54.9722V30.25C55 28.0409 53.2091 26.25 51 26.25H47.0833V23.0833C47.0833 16.9622 42.1212 12 36 12ZM41.8056 26.25V23.0833C41.8056 19.877 39.2063 17.2778 36 17.2778C32.7937 17.2778 30.1944 19.877 30.1944 23.0833V26.25H41.8056ZM32.1136 42.6111C32.1136 40.5707 33.7677 38.9167 35.8081 38.9167C37.8485 38.9167 39.5025 40.5707 39.5025 42.6111C39.5025 44.6515 37.8485 46.3056 35.8081 46.3056C33.7677 46.3056 32.1136 44.6515 32.1136 42.6111Z" fill="#8C919E"/>
</svg>
