<svg width="24" height="24" viewBox="0 0 24 24" fill="none" xmlns="http://www.w3.org/2000/svg">
<g id="sticker">
<path id="Union" fill-rule="evenodd" clip-rule="evenodd" d="M12 21C7.02944 21 3 16.9706 3 12C3 7.02944 7.02944 3 12 3C16.9706 3 21 7.02944 21 12C21 16.9706 16.9706 21 12 21ZM1 12C1 5.92487 5.92487 1 12 1C18.0751 1 23 5.92487 23 12C23 18.0751 18.0751 23 12 23C5.92487 23 1 18.0751 1 12ZM8.70002 11C9.41799 11 10 10.418 10 9.70002C10 8.98205 9.41799 8.40002 8.70002 8.40002C7.98205 8.40002 7.40002 8.98205 7.40002 9.70002C7.40002 10.418 7.98205 11 8.70002 11ZM16.6 9.70002C16.6 10.418 16.018 11 15.3 11C14.582 11 14 10.418 14 9.70002C14 8.98205 14.582 8.40002 15.3 8.40002C16.018 8.40002 16.6 8.98205 16.6 9.70002ZM7.27209 14.1293C9.60668 17.3394 14.3932 17.3394 16.7278 14.1293L15.2721 13.0706C13.6563 15.2923 10.3436 15.2923 8.72782 13.0706L7.27209 14.1293Z" fill="#D2D2D2"/>
</g>
</svg>
