<svg width="240" height="58" viewBox="0 0 240 58" fill="none" xmlns="http://www.w3.org/2000/svg">
<rect x="1" y="1" width="238" height="56" rx="16" fill="white"/>
<rect x="1" y="1" width="238" height="56" rx="16" stroke="#EEEEEE"/>
<path d="M54.1972 33.7901V35.6064H38.0577V33.7901H54.1972ZM39.3768 23.4724V21.7182H52.7884V23.4724H50.1986V29.087H52.7193V30.8135H39.432V29.087H41.932V23.4724H39.3768ZM44.0936 29.087H48.0577V23.4724H44.0936V29.087ZM71.4824 33.8936V35.6892H55.3429V33.8936H62.2973V31.0138H57.2559V25.2403H67.4216V23.0442H57.2282V21.2901H69.5694V26.9599H59.4244V29.2389H69.9769V31.0138H64.452V33.8936H71.4824ZM87.3587 20.0884V29.1768H85.1764V20.0884H87.3587ZM72.9181 27.0152C73.5534 27.0083 74.2371 27.0083 74.9416 26.9945V22.8923H73.3946V21.2141H82.9802V22.8923H81.3988V26.732C82.193 26.6768 82.9733 26.6008 83.7192 26.511L83.8159 28.0718C80.3076 28.6243 76.2399 28.7417 73.1598 28.7279L72.9181 27.0152ZM75.5079 31.6146V29.9296H87.3587V34.4738H77.704V35.855H87.9112V37.5815H75.5493V32.8992H85.204V31.6146H75.5079ZM77.0203 26.953C77.78 26.9254 78.5465 26.8978 79.32 26.8633V22.8923H77.0203V26.953ZM100.965 24.3287C100.951 27.471 102.532 30.6616 105.26 31.9807L103.941 33.721C102.021 32.7541 100.654 30.8895 99.901 28.645C99.1206 31.0414 97.6772 33.0373 95.6607 34.0525L94.3209 32.2983C97.1662 30.9586 98.7822 27.5815 98.796 24.3287V21.5041H100.965V24.3287ZM106.31 37.7265V20.0884H108.485V27.0083H111.206V28.8522H108.485V37.7265H106.31ZM118.65 23.6727C118.65 25.8688 120.149 28.0235 122.96 28.8798L121.848 30.5856C119.838 29.9434 118.388 28.6105 117.587 26.9323C116.786 28.7624 115.287 30.2196 113.201 30.9309L112.076 29.2182C114.921 28.2859 116.44 26 116.447 23.6727V23.1685H112.649V21.4213H122.366V23.1685H118.65V23.6727ZM114.962 37.395V31.732H117.152V35.634H127.138V37.395H114.962ZM124.465 32.9199V20.1022H126.641V32.9199H124.465ZM148.762 20.1022V33.1271H146.593V28.6865H143.043V30.268H134.77V21.2624H136.952V24.1077H140.896V21.2624H143.043V23.1478H146.593V20.1022H148.762ZM136.952 28.5414H140.896V25.779H136.952V28.5414ZM137.125 37.395V31.8425H139.321V35.634H149.148V37.395H137.125ZM143.043 26.9323H146.593V24.9088H143.043V26.9323ZM166.047 20.1022V30.413H163.878V28.4655H159.672V26.7113H163.878V24.7983H159.845C158.733 27.6091 156.15 29.5773 152.304 30.6478L151.44 28.9351C155.563 27.8094 157.766 25.7169 158.112 23.0925H152.373V21.3246H160.474C160.474 21.9392 160.425 22.5193 160.329 23.0787H163.878V20.1022H166.047ZM154.217 34.1146C154.21 31.953 156.585 30.6133 160.204 30.6133C163.782 30.6133 166.157 31.953 166.164 34.1146C166.157 36.2901 163.782 37.6506 160.204 37.6436C156.585 37.6506 154.21 36.2901 154.217 34.1146ZM156.385 34.1146C156.378 35.2818 157.829 35.9171 160.204 35.9171C162.538 35.9171 163.982 35.2818 163.996 34.1146C163.982 32.9475 162.538 32.3052 160.204 32.3191C157.829 32.3052 156.378 32.9475 156.385 34.1146ZM182.372 20.0884V27.1188H185.093V28.9075H182.372V37.7265H180.224V20.0884H182.372ZM168.449 24.5428V22.7887H172.621V20.337H174.789V22.7887H178.864V24.5428H168.449ZM169.264 29.8398C169.25 27.4019 171.143 25.6823 173.719 25.6823C176.26 25.6823 178.145 27.4019 178.159 29.8398C178.145 32.2776 176.26 33.9903 173.719 33.9903C171.143 33.9903 169.25 32.2776 169.264 29.8398ZM171.343 29.8398C171.329 31.2901 172.337 32.2086 173.719 32.1948C175.079 32.2086 176.067 31.2901 176.081 29.8398C176.067 28.4102 175.079 27.4641 173.719 27.4641C172.337 27.4641 171.329 28.4102 171.343 29.8398ZM200.569 20.0884V37.7265H198.379V20.0884H200.569ZM185.949 32.8715C190.569 30.6754 192.71 27.6989 193.096 23.6796H186.846V21.9599H195.306C195.299 27.2155 193.262 31.6768 187.088 34.6119L185.949 32.8715Z" fill="#444444"/>
</svg>
