<svg width="109" height="58" viewBox="0 0 109 58" fill="none" xmlns="http://www.w3.org/2000/svg">
<rect x="1" y="1" width="107" height="56" rx="16" fill="white"/>
<rect x="1" y="1" width="107" height="56" rx="16" stroke="#EEEEEE"/>
<path d="M44.1209 22.8715C44.1071 25.0815 45.5436 27.1878 48.2853 28.0787L47.1941 29.7707C45.2121 29.1285 43.8101 27.8025 43.0505 26.1312C42.277 27.9406 40.8405 29.3494 38.7756 30.0401L37.6637 28.3135C40.5159 27.395 41.9386 25.1229 41.9455 22.692V20.9931H44.1209V22.8715ZM39.9635 33.279V31.5387H51.7314V37.7265H49.5491V33.279H39.9635ZM49.5491 30.7652V20.0884H51.7314V24.5152H54.1969V26.3384H51.7314V30.7652H49.5491ZM70.2735 20.0884V37.7265H68.2155V20.0884H70.2735ZM54.7762 32.7265C57.3246 31.1657 58.4434 27.982 58.4434 24.9088V23.7348H55.3771V21.9807H63.3881V23.7348H60.5359V24.9088C60.529 27.8854 61.5994 30.8757 64.1271 32.326L62.8494 33.9213C61.2127 32.9544 60.1215 31.2762 59.5138 29.2666C58.8923 31.442 57.7666 33.2997 56.1022 34.3287L54.7762 32.7265ZM62.1036 27.9959V26.2417H64.645V20.4199H66.6823V36.8771H64.645V27.9959H62.1036Z" fill="#444444"/>
</svg>
