<svg width="24" height="24" viewBox="0 0 24 24" xmlns="http://www.w3.org/2000/svg" xmlns:xlink="http://www.w3.org/1999/xlink">
    <defs>
        <linearGradient x1="50%" y1="100%" x2="50%" y2="0%" id="gwr28anj4a">
            <stop stop-color="#F3CF03" offset="0%"/>
            <stop stop-color="#FFF443" offset="100%"/>
            <stop stop-color="#F4EA47" offset="100%"/>
        </linearGradient>
        <linearGradient x1="50%" y1="100%" x2="50%" y2="0%" id="kuougn5irb">
            <stop stop-color="#F5AA07" offset="0%"/>
            <stop stop-color="#FFDC24" offset="100%"/>
            <stop stop-color="#F5BC00" offset="100%"/>
        </linearGradient>
        <linearGradient x1="50%" y1="0%" x2="50%" y2="100%" id="jv2gwu2bac">
            <stop stop-color="#FFFBA6" offset="0%"/>
            <stop stop-color="#F1E752" offset="100%"/>
        </linearGradient>
        <path d="M13.647 7C14.947 7 16 7.814 16 8.818c0 .685-.49 1.282-1.215 1.592.725.308 1.215.905 1.215 1.59s-.49 1.282-1.215 1.592c.725.308 1.215.905 1.215 1.59C16 16.186 14.947 17 13.647 17c-.757 0-1.286-.26-1.647-.586-.36.325-.89.586-1.647.586C9.053 17 8 16.186 8 15.182c0-.685.49-1.282 1.215-1.592C8.49 13.282 8 12.685 8 12s.49-1.282 1.215-1.592C8.49 10.1 8 9.503 8 8.818 8 7.814 9.053 7 10.353 7c.757 0 1.287.261 1.648.587.36-.326.89-.587 1.646-.587z" id="6co2aihx8d"/>
    </defs>
    <g fill="none" fill-rule="evenodd">
        <path d="M12 24c6.627 0 12-5.373 12-12S18.627 0 12 0 0 5.373 0 12s5.373 12 12 12z" fill="url(#gwr28anj4a)"/>
        <g stroke-width=".5">
            <circle stroke="#F3C507" stroke-linejoin="square" fill="url(#kuougn5irb)" cx="12" cy="12" r="7.75"/>
            <circle stroke-opacity=".14" stroke="#FFF" cx="12" cy="12" r="8.25"/>
        </g>
        <g>
            <use fill="url(#jv2gwu2bac)" xlink:href="#6co2aihx8d"/>
            <path stroke-opacity=".02" stroke="#000" stroke-width=".5" d="M13.647 6.75c.71 0 1.352.225 1.817.585.491.38.786.907.786 1.483 0 .392-.136.76-.376 1.074-.15.196-.34.37-.561.518.222.146.412.32.56.516.241.315.377.682.377 1.074s-.136.76-.376 1.074c-.15.195-.34.37-.561.517.222.147.412.322.56.517.241.314.377.682.377 1.074 0 .576-.295 1.104-.786 1.483-.465.36-1.107.585-1.817.585-.725 0-1.258-.22-1.647-.512-.388.292-.922.512-1.647.512-.71 0-1.352-.225-1.817-.585-.491-.38-.786-.907-.786-1.483 0-.392.136-.76.376-1.074.15-.196.34-.37.561-.518a2.286 2.286 0 0 1-.56-.516A1.758 1.758 0 0 1 7.75 12c0-.392.136-.76.376-1.074.15-.195.34-.37.561-.517a2.286 2.286 0 0 1-.56-.517 1.758 1.758 0 0 1-.377-1.074c0-.576.295-1.104.786-1.483.465-.36 1.107-.585 1.817-.585.725 0 1.259.22 1.648.513.388-.293.921-.513 1.646-.513z"/>
            <path stroke-opacity=".2" stroke="#FFFEFE" stroke-width=".5" d="M13.647 7.25c.59 0 1.124.182 1.511.48.36.279.592.66.592 1.088 0 .282-.101.545-.274.77a1.95 1.95 0 0 1-.79.592l-.538.23.54.23c.325.139.6.342.788.59.173.225.274.488.274.77 0 .282-.101.545-.274.77a1.95 1.95 0 0 1-.79.592l-.538.23.54.23c.325.138.6.342.788.59.173.225.274.488.274.77 0 .427-.232.81-.592 1.088-.387.298-.922.48-1.51.48-.68 0-1.156-.23-1.481-.522-.658.292-1.135.522-1.814.522-.59 0-1.124-.182-1.511-.48-.36-.279-.592-.66-.592-1.088 0-.282.101-.545.274-.77a1.95 1.95 0 0 1 .79-.592l.538-.23-.54-.23a1.942 1.942 0 0 1-.788-.59A1.263 1.263 0 0 1 8.25 12c0-.282.101-.545.274-.77a1.95 1.95 0 0 1 .79-.592l.538-.23-.54-.23a1.942 1.942 0 0 1-.788-.59 1.263 1.263 0 0 1-.274-.77c0-.427.232-.81.592-1.088.387-.298.922-.48 1.51-.48.68 0 1.157.23 1.482.523.659-.294 1.135-.523 1.813-.523z" stroke-linejoin="square"/>
        </g>
    </g>
</svg>
