<svg width="18" height="18" viewBox="0 0 18 18" xmlns="http://www.w3.org/2000/svg" xmlns:xlink="http://www.w3.org/1999/xlink">
    <defs>
        <filter x="-8.3%" y="-5.4%" width="116.7%" height="121.7%" filterUnits="objectBoundingBox" id="lsyiz224ka">
            <feOffset dy="1" in="SourceAlpha" result="shadowOffsetOuter1"/>
            <feColorMatrix values="0 0 0 0 1 0 0 0 0 1 0 0 0 0 1 0 0 0 0.38 0" in="shadowOffsetOuter1"/>
        </filter>
        <filter x="-5.2%" y="-5.4%" width="113.5%" height="121.7%" filterUnits="objectBoundingBox" id="6tzmmzcj2c">
            <feOffset dy="1" in="SourceAlpha" result="shadowOffsetOuter1"/>
            <feColorMatrix values="0 0 0 0 1 0 0 0 0 1 0 0 0 0 1 0 0 0 0.38 0" in="shadowOffsetOuter1"/>
        </filter>
        <filter x="-8.3%" y="-5.4%" width="113.5%" height="121.7%" filterUnits="objectBoundingBox" id="5543h4fnpe">
            <feOffset dy="1" in="SourceAlpha" result="shadowOffsetOuter1"/>
            <feColorMatrix values="0 0 0 0 1 0 0 0 0 1 0 0 0 0 1 0 0 0 0.38 0" in="shadowOffsetOuter1"/>
        </filter>
        <path d="M6 0h6v6.23a3 3 0 0 1-6 0V0z" id="zkoq0rzoib"/>
        <path d="M1.725 0H6v6.23a3 3 0 0 1-3 3A2.811 2.811 0 0 1 .195 6.238l.332-5.115A1.2 1.2 0 0 1 1.725 0z" id="efnt4xtjsd"/>
        <path d="M12 0h4.275a1.2 1.2 0 0 1 1.198 1.122l.332 5.115A2.811 2.811 0 0 1 15 9.231a3 3 0 0 1-3-3V0z" id="njrgkt5t0f"/>
    </defs>
    <g fill="none" fill-rule="evenodd">
        <path d="M0 0h18v18H0z"/>
        <path d="M15.9 4.992V15.8a.897.897 0 0 1-.9.9H3a.897.897 0 0 1-.9-.9V4.992h13.8z" stroke-opacity=".08" stroke="#111D46" stroke-width=".6" fill="#BEC4D6"/>
        <g transform="translate(0 1)">
            <use fill="#000" filter="url(#lsyiz224ka)" xlink:href="#zkoq0rzoib"/>
            <use fill="#00B657" xlink:href="#zkoq0rzoib"/>
        </g>
        <g transform="translate(0 1)">
            <use fill="#000" filter="url(#6tzmmzcj2c)" xlink:href="#efnt4xtjsd"/>
            <use fill="#FE5D5D" xlink:href="#efnt4xtjsd"/>
        </g>
        <g transform="translate(0 1)">
            <use fill="#000" filter="url(#5543h4fnpe)" xlink:href="#njrgkt5t0f"/>
            <use fill="#4355E4" xlink:href="#njrgkt5t0f"/>
        </g>
    </g>
</svg>
