<svg width="33" height="32" viewBox="0 0 33 32" fill="none" xmlns="http://www.w3.org/2000/svg">
<g id="stickerShop">
<g id="Group 46">
<path id="Fill 1" fill-rule="evenodd" clip-rule="evenodd" d="M21.9843 6.48829C23.0174 6.47355 24.0414 6.08713 24.8246 5.41628C25.6078 4.74554 26.1445 3.79551 26.3132 2.78101C26.3922 3.93305 27.1882 4.86547 28.2419 5.34871C29.2958 5.83196 30.5397 5.80807 31.6386 5.43732C28.947 8.6593 31.1094 11.3802 31.6535 11.6338C30.306 11.2602 29.0126 11.1542 27.8802 11.9767C26.7479 12.7992 26.2162 14.0882 26.4217 15.4683" fill="#F17072"/>
<path id="Fill 3" fill-rule="evenodd" clip-rule="evenodd" d="M21.9257 5.05035C21.9297 5.05321 21.9334 5.05618 21.9374 5.05927C21.9337 5.05664 21.9297 5.05344 21.9257 5.05035ZM26.4209 16.0868C26.118 16.0868 25.8527 15.8661 25.8073 15.5589C25.5682 13.9531 26.2061 12.4272 27.5141 11.4773C28.3758 10.8514 29.2996 10.693 30.1698 10.7409C30.0206 10.4336 29.8939 10.0869 29.8089 9.70861C29.6205 8.86901 29.5967 7.67548 30.2983 6.322C29.4807 6.3683 28.677 6.22917 27.9816 5.91043C27.2606 5.57981 26.6803 5.09382 26.2834 4.51065C25.6814 5.50515 24.8764 5.98154 24.2138 6.20882C22.9512 6.64188 21.6108 6.37859 21.168 6.03047C20.8983 5.81897 20.8525 5.42993 21.0651 5.16196C21.2714 4.90027 21.6481 4.84997 21.9174 5.04409C22.1129 5.14504 23.0739 5.36705 24.0016 4.96498C24.8458 4.59903 25.4208 3.81477 25.7098 2.63449C25.7822 2.33782 26.0609 2.13695 26.3665 2.16473C26.6722 2.19091 26.9127 2.43465 26.9333 2.73909C26.9923 3.59801 27.5783 4.36363 28.5017 4.78709C29.3445 5.17362 30.4157 5.19728 31.4393 4.8518C31.7022 4.76274 31.993 4.85911 32.1508 5.08707C32.3085 5.31526 32.2946 5.61982 32.1167 5.83281C31.1776 6.95695 30.796 8.10442 30.9834 9.24342C31.1583 10.3058 31.7741 10.9845 31.9328 11.0819C32.2253 11.2183 32.3562 11.551 32.2443 11.8529C32.132 12.1539 31.7979 12.3161 31.4868 12.2294C30.0147 11.8215 29.0464 11.8955 28.2468 12.4763C27.3051 13.1605 26.8637 14.218 27.0363 15.3778C27.0867 15.7155 26.8525 16.03 26.5131 16.0801C26.4821 16.0846 26.4514 16.0868 26.4209 16.0868Z" fill="black"/>
<g id="Group 7">
<mask id="mask0_28_1254" style="mask-type:luminance" maskUnits="userSpaceOnUse" x="4" y="19" width="24" height="11">
<path id="Clip 6" fill-rule="evenodd" clip-rule="evenodd" d="M4.66394 19.7382H27.7953V29.8379H4.66394V19.7382Z" fill="white"/>
</mask>
<g mask="url(#mask0_28_1254)">
<path id="Fill 5" fill-rule="evenodd" clip-rule="evenodd" d="M27.7632 21.0104C27.7187 20.5115 27.5853 19.9049 27.0202 19.7594C26.4879 19.6223 25.9924 20.1841 25.5951 20.4531C25.0942 20.792 24.572 21.0994 24.033 21.3745C21.8423 22.4925 19.366 23.0556 16.9049 22.9911C14.3011 22.9229 11.5954 21.8686 9.07034 22.9465C7.85429 23.4657 6.83995 24.3606 5.97207 25.3382C5.29294 26.1033 4.13306 27.3911 4.93752 28.4137C4.9343 28.487 4.96084 28.5616 5.03964 28.6126C5.82894 29.1238 6.75965 29.2664 7.67393 29.3835C9.7303 29.6471 11.7991 29.8082 13.8729 29.8326C15.4127 29.8506 16.9676 29.8314 18.4965 29.6348C18.9524 29.5763 19.7462 29.3937 19.959 29.2804C19.9643 29.2775 20.0228 29.2345 20.0211 29.2329C19.9541 29.1614 19.9755 29.0393 20.0409 28.9661C20.1534 28.8404 20.4171 28.8306 20.3545 28.5964C20.9931 27.7914 21.361 26.8031 21.404 25.7728C22.5895 25.711 23.7514 25.4457 24.8403 24.9704C25.8544 24.5277 27.1335 23.8653 27.5901 22.7939C27.8297 22.232 27.8165 21.6076 27.7632 21.0104Z" fill="#81E247"/>
</g>
</g>
<path id="Fill 8" fill-rule="evenodd" clip-rule="evenodd" d="M15.5973 23.1572C13.2423 22.7055 10.8149 24.2204 10.1098 26.7799C9.81067 27.8653 9.90429 28.8475 10.2872 29.6556C11.4799 29.7542 12.6753 29.8185 13.8727 29.8325C15.2801 29.849 16.6992 29.8275 18.1004 29.6749C18.3267 29.2988 18.5102 28.8791 18.6379 28.4155C19.3432 25.856 17.9523 23.6089 15.5973 23.1572Z" fill="white"/>
<path id="Fill 10" fill-rule="evenodd" clip-rule="evenodd" d="M13.7613 22.8661C16.3527 23.1555 19.1621 23.2407 21.6365 22.6744C23.5343 22.2402 25.4188 21.2916 26.4998 19.6283C28.0338 17.2677 28.2131 13.5924 25.2301 11.2919C25.4706 8.95021 24.6375 6.3865 22.5785 5.08641C21.0961 4.15044 18.8173 4.0184 17.3822 5.12631C16.1515 6.07657 15.3321 7.31789 15.1158 9.29809C15.3321 7.31789 14.7998 5.93035 13.8029 4.7391C12.6406 3.35018 10.3864 2.99189 8.73659 3.58911C6.44508 4.41853 5.07785 6.74422 4.80721 9.08271C1.39717 10.6916 0.778806 14.3194 1.76741 16.9527C2.46412 18.8084 4.0997 20.1378 5.85946 20.9678C8.22736 22.0845 11.0967 22.6018 13.7613 22.8661Z" fill="#81E247"/>
<path id="Fill 12" fill-rule="evenodd" clip-rule="evenodd" d="M19.7107 12.2581C19.5623 12.0603 19.3741 11.889 19.1747 11.7461C18.5561 11.3034 17.8156 11.0816 17.0805 10.9132C15.8522 10.6317 14.5905 10.4895 13.3318 10.5416C12.696 10.5679 12.062 10.6438 11.438 10.7733C10.895 10.8859 10.312 11.0412 9.92077 11.4755C9.55294 11.884 9.4522 12.6435 9.90836 13.0261C10.427 13.4611 11.2813 13.3743 11.8979 13.3318C12.9065 13.2623 13.9187 13.2545 14.9258 13.3477C17.0248 13.5419 17.5816 13.8805 18.82 14.0683C19.129 14.1152 19.4799 14.0669 19.7224 13.8498C19.9907 13.6095 20.0705 13.2003 19.9957 12.8595C19.9472 12.6383 19.8452 12.4373 19.7107 12.2581Z" fill="#5A9842"/>
<path id="Fill 14" fill-rule="evenodd" clip-rule="evenodd" d="M10.3935 3.93112C9.88015 3.93112 9.3808 4.01389 8.94921 4.17029C7.07975 4.84686 5.69621 6.8027 5.42419 9.15331C5.39995 9.36561 5.26693 9.5499 5.07313 9.64136C2.06906 11.059 1.42898 14.2838 2.34958 16.7366C2.90603 18.2187 4.24696 19.5232 6.12549 20.4092C8.0741 21.3278 10.5918 21.9304 13.8229 22.2509C13.8255 22.2511 13.8278 22.2514 13.8304 22.2516C16.9424 22.5989 19.4507 22.5404 21.4973 22.0718C23.5232 21.6083 25.1144 20.621 25.9779 19.2923C27.4069 17.0938 27.4779 13.8078 24.8492 11.781C24.6797 11.6503 24.5899 11.4417 24.6118 11.2292C24.8538 8.87505 23.9245 6.66872 22.2452 5.60871C21.036 4.8448 19.0285 4.63822 17.7627 5.615C16.5392 6.55977 15.9135 7.71615 15.7332 9.36493C15.6959 9.70424 15.3862 9.94935 15.0486 9.91288C14.7299 9.87847 14.494 9.61004 14.494 9.29828C14.4944 9.2761 14.4952 9.25369 14.498 9.23117C14.6778 7.58262 14.3164 6.31912 13.3257 5.13472C12.6293 4.30313 11.4805 3.93112 10.3935 3.93112ZM17.4949 23.7106C16.3289 23.7106 15.0667 23.6341 13.6956 23.4812C10.3221 23.1463 7.67188 22.507 5.59334 21.5269C3.42131 20.5022 1.85569 18.9549 1.1854 17.1695C0.0981131 14.2722 0.815961 10.4822 4.2353 8.67648C4.65253 6.01354 6.3089 3.80972 8.52459 3.00797C10.2484 2.38354 12.8542 2.63871 14.2805 4.34316C14.8064 4.97171 15.1907 5.6293 15.4393 6.33479C15.8344 5.69881 16.3518 5.13896 17.0014 4.63777C18.763 3.27777 21.3611 3.58553 22.9114 4.56414C24.9014 5.82079 26.0436 8.32745 25.876 11.0176C28.8265 13.5124 28.7097 17.3671 27.0217 19.9642C25.9815 21.5644 24.1184 22.741 21.776 23.2771C20.512 23.5663 19.0943 23.7106 17.4949 23.7106Z" fill="black"/>
<path id="Fill 16" fill-rule="evenodd" clip-rule="evenodd" d="M12.849 9.41005C12.849 10.59 11.8878 11.5464 10.7023 11.5464C9.51669 11.5464 8.55554 10.59 8.55554 9.41005C8.55554 8.23011 9.51669 7.27368 10.7023 7.27368C11.8878 7.27368 12.849 8.23011 12.849 9.41005Z" fill="white"/>
<path id="Fill 18" fill-rule="evenodd" clip-rule="evenodd" d="M21.5667 10.4047C21.5667 11.5847 20.6056 12.5411 19.4201 12.5411C18.2345 12.5411 17.2733 11.5847 17.2733 10.4047C17.2733 9.2248 18.2345 8.26837 19.4201 8.26837C20.6056 8.26837 21.5667 9.2248 21.5667 10.4047Z" fill="white"/>
<path id="Fill 20" fill-rule="evenodd" clip-rule="evenodd" d="M10.702 7.89215C9.86101 7.89215 9.17682 8.57306 9.17682 9.41003C9.17682 10.247 9.86101 10.9279 10.702 10.9279C11.543 10.9279 12.2276 10.247 12.2276 9.41003C12.2276 8.57306 11.543 7.89215 10.702 7.89215ZM10.7021 12.1648C9.17601 12.1648 7.93445 10.929 7.93445 9.41001C7.93445 7.89099 9.17601 6.65515 10.7021 6.65515C12.2287 6.65515 13.4702 7.89099 13.4702 9.41001C13.4702 10.929 12.2287 12.1648 10.7021 12.1648Z" fill="black"/>
<path id="Fill 22" fill-rule="evenodd" clip-rule="evenodd" d="M19.4201 8.88687C18.5791 8.88687 17.8945 9.56778 17.8945 10.4047C17.8945 11.2417 18.5791 11.9226 19.4201 11.9226C20.2611 11.9226 20.9453 11.2417 20.9453 10.4047C20.9453 9.56778 20.2611 8.88687 19.4201 8.88687ZM19.4202 13.1595C17.8937 13.1595 16.6522 11.9238 16.6522 10.4048C16.6522 8.88574 17.8937 7.6499 19.4202 7.6499C20.9463 7.6499 22.1879 8.88574 22.1879 10.4048C22.1879 11.9238 20.9463 13.1595 19.4202 13.1595Z" fill="black"/>
<path id="Fill 24" fill-rule="evenodd" clip-rule="evenodd" d="M12.1987 13.8802L16.7968 13.6306L17.432 19.8218L10.5823 19.4517L12.1987 13.8802Z" fill="#B62125"/>
<path id="Fill 26" fill-rule="evenodd" clip-rule="evenodd" d="M17.3508 19.6782L17.1994 18.2026C16.9757 17.8757 16.7129 17.5791 16.3799 17.3426C15.7521 16.8968 14.956 16.7134 14.1926 16.7269C13.1855 16.745 11.908 17.1516 11.2008 17.9686L10.8141 19.3015C10.8241 19.3123 10.8326 19.3245 10.8434 19.3345C10.8449 19.3465 10.8426 19.3582 10.8446 19.37C10.8873 19.6067 11.4236 18.9575 11.5122 19.2134L16.9394 19.7382C17.0191 19.6429 17.2856 19.7846 17.3508 19.6782Z" fill="#F27576"/>
<path id="Fill 28" fill-rule="evenodd" clip-rule="evenodd" d="M11.396 18.8765L16.7402 19.1651L16.239 14.2801L12.6731 14.4739L11.396 18.8765ZM17.432 20.4402C17.4207 20.4402 17.4096 20.4397 17.3983 20.4393L10.5487 20.0693C10.3595 20.059 10.1855 19.9636 10.0758 19.8099C9.96621 19.6564 9.93289 19.4613 9.9855 19.2803L11.6014 13.7087C11.6747 13.4559 11.9008 13.2769 12.1647 13.2626L16.7632 13.013C17.0908 12.9971 17.3812 13.2396 17.415 13.5677L18.0501 19.7588C18.0685 19.9388 18.0069 20.1177 17.8815 20.2485C17.7642 20.3712 17.6015 20.4402 17.432 20.4402Z" fill="black"/>
<path id="Fill 30" fill-rule="evenodd" clip-rule="evenodd" d="M5.02722 28.3559C5.37047 25.3823 6.72506 22.4034 8.93765 20.3481C10.0287 19.3346 11.4727 18.4931 12.9517 18.211C13.7264 18.0633 14.6346 18.1745 15.2056 18.7813C15.9396 19.5611 15.7405 20.7722 15.0712 21.5153C14.5054 22.1437 13.7637 22.5681 13.0949 23.0741C12.4352 23.5731 11.793 24.1091 11.1846 24.6724" fill="#81E247"/>
<path id="Fill 32" fill-rule="evenodd" clip-rule="evenodd" d="M5.02787 28.9743C5.00409 28.9743 4.98019 28.973 4.95596 28.9703C4.61524 28.9311 4.37021 28.6245 4.40984 28.2852C4.78606 25.0271 6.28149 21.9695 8.51383 19.896C9.77733 18.7219 11.3524 17.8864 12.8349 17.6037C13.9577 17.3897 15.0127 17.672 15.6591 18.3585C16.6476 19.4085 16.3716 20.998 15.5338 21.9281C15.0838 22.4278 14.5547 22.798 14.0427 23.1558C13.8503 23.2905 13.6576 23.4252 13.471 23.5663C12.8201 24.0587 12.1935 24.5832 11.6073 25.1253C11.357 25.3577 10.9636 25.3436 10.7294 25.0935C10.4956 24.8433 10.51 24.452 10.7613 24.2194C11.3772 23.6497 12.0356 23.0986 12.7185 22.5817C12.9176 22.4311 13.123 22.2873 13.3284 22.1437C13.804 21.8113 14.2531 21.497 14.6082 21.1025C15.0726 20.5871 15.2533 19.7363 14.7521 19.2039C14.2293 18.6476 13.3312 18.768 13.0686 18.8183C11.81 19.0585 10.4588 19.7808 9.36161 20.8001C7.34235 22.676 5.98752 25.4559 5.64417 28.4265C5.60775 28.7417 5.3394 28.9743 5.02787 28.9743Z" fill="black"/>
<path id="Fill 34" fill-rule="evenodd" clip-rule="evenodd" d="M20.0575 29.5727C19.9762 29.5727 19.893 29.5564 19.8129 29.5224C19.4978 29.3877 19.3518 29.0243 19.4866 28.7105C20.0377 27.4317 20.4423 26.0889 20.6895 24.7198C20.7506 24.383 21.0752 24.1609 21.4114 24.2205C21.749 24.281 21.9737 24.6024 21.9131 24.9386C21.6487 26.3999 21.2168 27.8329 20.6292 29.1976C20.5281 29.4322 20.2988 29.5727 20.0575 29.5727Z" fill="black"/>
<path id="Fill 36" fill-rule="evenodd" clip-rule="evenodd" d="M21.1727 26.3918C20.8703 26.3918 20.605 26.1717 20.5592 25.8648C20.5084 25.527 20.7421 25.2121 21.082 25.1618C22.4543 24.9574 24.0095 24.7259 25.3055 24.0461C25.9433 23.7117 27.0392 22.9931 27.2159 21.9377C27.3265 21.279 27.0275 20.4746 26.3515 20.3237C26.0166 20.2487 25.8063 19.9179 25.8813 19.5846C25.9568 19.2514 26.2854 19.043 26.6238 19.1167C28.0268 19.4305 28.6499 20.9007 28.4422 22.141C28.1769 23.7227 26.7264 24.699 25.8849 25.1403C24.4024 25.918 22.7357 26.1661 21.2653 26.3848C21.2343 26.3895 21.2033 26.3918 21.1727 26.3918Z" fill="black"/>
<path id="Fill 38" fill-rule="evenodd" clip-rule="evenodd" d="M2.4769 28.5769C2.4252 28.5769 2.37305 28.5668 2.3232 28.5453C2.12446 28.4608 2.03233 28.2319 2.11734 28.0342L4.45606 22.5935C4.54153 22.3958 4.77392 22.3047 4.96943 22.3889C5.16805 22.4734 5.2603 22.7022 5.17529 22.9L2.83645 28.3407C2.77316 28.4883 2.62842 28.5769 2.4769 28.5769Z" fill="black"/>
<path id="Fill 40" fill-rule="evenodd" clip-rule="evenodd" d="M1.1384 27.9824C1.0867 27.9824 1.03455 27.9723 0.984694 27.9508C0.785962 27.8663 0.693833 27.6374 0.77884 27.4397L2.34308 23.8007C2.42843 23.6027 2.66082 23.512 2.85645 23.5961C3.05507 23.6806 3.1472 23.9095 3.06231 24.1071L1.49795 27.7462C1.43466 27.8938 1.28991 27.9824 1.1384 27.9824Z" fill="black"/>
<path id="Fill 42" fill-rule="evenodd" clip-rule="evenodd" d="M22.0184 29.434C21.9667 29.434 21.9146 29.424 21.8647 29.4025C21.666 29.318 21.5738 29.0891 21.6588 28.8913L24.0744 23.2727C24.1599 23.0746 24.3918 22.9836 24.5878 23.0679C24.7865 23.1525 24.8787 23.3814 24.7936 23.579L22.378 29.1978C22.3147 29.3454 22.1699 29.434 22.0184 29.434Z" fill="black"/>
<path id="Fill 44" fill-rule="evenodd" clip-rule="evenodd" d="M23.6591 29.6563C23.6075 29.6563 23.5553 29.6463 23.5054 29.6248C23.3067 29.5403 23.2146 29.3114 23.2996 29.1137L24.5074 26.3044C24.5927 26.1066 24.8248 26.0158 25.0207 26.0996C25.2194 26.1842 25.3115 26.413 25.2266 26.6108L24.0187 29.4202C23.9554 29.5677 23.8107 29.6563 23.6591 29.6563Z" fill="black"/>
</g>
</g>
</svg>
