<svg width="108" height="104" viewBox="0 0 108 104" fill="none" xmlns="http://www.w3.org/2000/svg">
<g id="noteEmptyImage">
<g id="Group 102">
<path id="Vector 11" opacity="0.15" d="M3 65.6318H39" stroke="#CADAF1" stroke-width="3" stroke-linecap="round"/>
<path id="Vector 12" opacity="0.15" d="M3 73.6318H89" stroke="#CADAF1" stroke-width="3" stroke-linecap="round"/>
<path id="Vector 13" opacity="0.15" d="M3 81.6318H89" stroke="#CADAF1" stroke-width="3" stroke-linecap="round"/>
<path id="Vector 16 (Stroke)" opacity="0.16" fill-rule="evenodd" clip-rule="evenodd" d="M94.3434 37.5307C90.9413 37.4042 87.8099 37.6798 86.1528 38.1572L86.0867 38.1762L86.019 38.1892C78.6857 39.5901 71.6905 44.2366 66.3382 49.4586C61.3722 54.3037 57.2949 59.9161 53.3746 65.6132L50.7315 67.6724C50.3477 67.9714 49.8063 67.6018 49.9449 67.1355L50.9032 63.9126C54.9346 58.054 59.1368 52.2934 64.2432 47.3113C69.8149 41.8752 77.2924 36.8217 85.3903 35.2551C87.5024 34.6623 90.9651 34.403 94.4549 34.5327C97.984 34.6639 101.815 35.2021 104.545 36.3667C105.307 36.6918 105.661 37.5731 105.336 38.335C105.011 39.097 104.129 39.4512 103.368 39.1261C101.141 38.1762 97.744 37.6571 94.3434 37.5307ZM101.663 40.1412C101.96 40.9143 101.575 41.7823 100.802 42.0799C99.933 42.4143 99.0646 42.7066 98.1895 42.9581C98.2431 43.372 98.1598 43.7328 98.1134 43.9037C98.0001 44.3207 97.7967 44.7188 97.6238 45.0195C97.2667 45.6409 96.8252 46.2091 96.7052 46.3622C94.937 48.6178 92.0135 49.5755 89.6978 50.0292C89.6999 50.1512 89.6939 50.2765 89.6788 50.4049C89.481 52.0941 88.3729 53.2972 87.2655 54.078C86.1453 54.8679 84.8287 55.3735 83.7624 55.6407C79.1812 56.7884 75.4577 56.2011 70.5538 54.5625C70.2411 54.458 69.8596 54.2658 69.5445 54.0983C69.1994 53.915 68.821 53.6996 68.4762 53.4982C68.1295 53.2957 67.8073 53.1017 67.5723 52.9586C67.4546 52.887 67.3582 52.8278 67.2909 52.7863L67.2126 52.7379L67.1843 52.7203C67.1843 52.7203 67.1835 52.7198 67.9765 51.4466L67.1843 52.7203C66.481 52.2824 66.2652 51.3568 66.7032 50.6536C67.1411 49.9504 68.0661 49.7354 68.7694 50.1733L68.7931 50.188L68.8653 50.2326C68.9284 50.2715 69.0198 50.3277 69.132 50.396C69.3569 50.5328 69.6629 50.717 69.9894 50.9078C70.3177 51.0996 70.6575 51.2925 70.9523 51.4492C71.0998 51.5275 71.2279 51.5925 71.3325 51.642C71.3844 51.6665 71.4263 51.6852 71.4585 51.6988C71.488 51.7112 71.5025 51.7164 71.5045 51.7171C76.125 53.261 79.2227 53.6853 83.0334 52.7306C83.8438 52.5276 84.7946 52.1495 85.5368 51.6262C86.1523 51.1922 86.498 50.7535 86.6364 50.336C85.6974 50.3232 84.73 50.1925 83.8442 49.8549C83.7198 49.8075 83.438 49.6887 83.1906 49.4182C82.8707 49.0683 82.6769 48.5263 82.8404 47.9486C82.9642 47.5108 83.2415 47.2571 83.3441 47.1692C83.4742 47.0578 83.5993 46.9849 83.6742 46.9444C83.8277 46.8614 83.9749 46.8066 84.0516 46.7795C84.0965 46.7636 84.1355 46.7509 84.1644 46.7419C84.179 46.7373 84.1916 46.7335 84.2017 46.7304L84.2151 46.7265L84.2204 46.7249L84.2227 46.7243L84.2238 46.724C84.2238 46.724 84.2247 46.7237 84.573 47.9424L84.2248 46.7237L84.3572 46.6859L84.4942 46.6728C85.649 46.5625 86.7523 46.9084 87.5363 47.2071C87.602 47.2322 87.6688 47.2599 87.7361 47.2902C88.1355 47.2527 88.5399 47.1942 88.9375 47.1202C91.1474 46.7091 93.2368 45.924 94.3441 44.5114C94.401 44.4389 94.522 44.2822 94.6596 44.0871C94.1672 44.0094 93.6841 43.9567 93.2199 43.9411C93.1431 43.9497 93.0661 43.9581 92.989 43.9662C92.6983 43.9968 92.0019 44.0611 91.5975 44.0893C91.5012 44.096 91.3934 44.1027 91.3075 44.1047C91.2842 44.1053 91.2513 44.1058 91.2143 44.1051L91.2124 44.1051C91.19 44.1047 91.1004 44.1031 90.9929 44.0863L90.9895 44.0858C90.9537 44.0804 90.7647 44.0518 90.5534 43.947C90.4554 43.8984 90.1535 43.7395 89.9354 43.3789C89.6446 42.8984 89.6671 42.3457 89.8803 41.9244C90.0417 41.6054 90.2718 41.4342 90.349 41.3792C90.4509 41.3066 90.5404 41.2622 90.587 41.2405C90.682 41.1961 90.7613 41.1715 90.7915 41.1623C90.9371 41.118 91.1182 41.092 91.1936 41.0812C91.1989 41.0804 91.2038 41.0797 91.208 41.0791C91.3351 41.0606 91.5102 41.0373 91.7398 41.0083C92.1873 40.952 92.6366 40.9316 93.0797 40.9372C95.3818 40.662 97.5445 40.119 99.7241 39.2801C100.497 38.9825 101.365 39.3681 101.663 40.1412ZM95.9349 44.2707L95.9321 44.2698L95.9349 44.2707Z" fill="#E0EBFC"/>
</g>
</g>
</svg>
