<svg width="32" height="32" viewBox="0 0 32 32" fill="none" xmlns="http://www.w3.org/2000/svg">
<g clip-path="url(#clip0_319_2072)">
<circle cx="16" cy="16" r="16" fill="white"/>
<circle cx="16" cy="16" r="15.5" stroke="black" stroke-opacity="0.08"/>
<path fill-rule="evenodd" clip-rule="evenodd" d="M15.9065 23.9953C15.6166 23.9868 15.3291 23.8858 15.0963 23.6922C14.8635 23.4985 10.3314 19.9528 8.81607 18.1062C7.30073 16.2597 6.83713 13.1332 8.81607 11.2361C10.789 9.34468 15.093 9.37087 15.9587 13.1057C16.8245 9.37087 21.1397 9.34457 23.1128 11.2361C25.0582 13.1011 24.8325 16.0105 23.2117 18.0088C21.5909 20.007 16.9007 23.6313 16.9007 23.6313C16.6573 23.8646 16.3412 23.986 16.0223 23.9953C15.7034 24.0047 15.9065 23.9953 15.9065 23.9953Z" fill="#FF4A4A"/>
</g>
<defs>
<clipPath id="clip0_319_2072">
<rect width="32" height="32" fill="white"/>
</clipPath>
</defs>
</svg>
