<svg width="32" height="32" viewBox="0 0 32 32" fill="none" xmlns="http://www.w3.org/2000/svg">
<g clip-path="url(#clip0_319_2150)">
<circle cx="16" cy="16" r="16" fill="black" fill-opacity="0.26"/>
<circle cx="16" cy="16" r="15.5" stroke="black" stroke-opacity="0.06"/>
<g filter="url(#filter0_d_319_2150)">
<path fill-rule="evenodd" clip-rule="evenodd" d="M15.9065 23.9953C15.6166 23.9868 15.3291 23.8858 15.0963 23.6922C14.8635 23.4985 10.3314 19.9528 8.81607 18.1062C7.30073 16.2597 6.83713 13.1332 8.81607 11.2361C10.789 9.34468 15.093 9.37087 15.9587 13.1057C16.8245 9.37087 21.1397 9.34457 23.1128 11.2361C25.0582 13.1011 24.8325 16.0105 23.2117 18.0088C21.5909 20.007 16.9007 23.6313 16.9007 23.6313C16.6573 23.8646 16.3412 23.986 16.0223 23.9953C15.7034 24.0047 15.9065 23.9953 15.9065 23.9953Z" fill="#FF6262" shape-rendering="crispEdges"/>
<path d="M19.039 9.5677C17.8007 9.77239 16.647 10.4529 15.9589 11.699C15.2719 10.4532 14.1207 9.77255 12.8843 9.56777C11.3076 9.30663 9.57709 9.81386 8.47006 10.8751C6.23716 13.0157 6.81298 16.4535 8.42956 18.4234C9.22084 19.3876 10.7682 20.7639 12.1145 21.901C13.2167 22.8319 14.2515 23.6573 14.6297 23.9589C14.7108 24.0236 14.7616 24.0641 14.7765 24.0765C15.0495 24.3036 15.3746 24.4373 15.7071 24.4805C15.7268 24.486 15.7419 24.489 15.749 24.4904C15.7751 24.4954 15.7959 24.4971 15.8016 24.4976C15.817 24.4989 15.8294 24.4992 15.8331 24.4993H15.8331C15.8489 24.4997 15.8668 24.4994 15.8782 24.4992C15.9073 24.4987 15.9571 24.4975 16.0369 24.4951C16.4631 24.4826 16.8907 24.3232 17.2261 24.0117L17.2608 23.9847C17.296 23.9573 17.3476 23.9171 17.4138 23.8652C17.5462 23.7614 17.7369 23.6111 17.9707 23.4246C18.438 23.0518 19.0784 22.5335 19.7701 21.9521C21.141 20.7999 22.7551 19.3654 23.6 18.3237C25.3398 16.1788 25.6393 12.9655 23.4588 10.8751C22.3514 9.81356 20.6181 9.30668 19.039 9.5677Z" stroke="black" stroke-opacity="0.12" stroke-linejoin="round" shape-rendering="crispEdges"/>
</g>
</g>
<defs>
<filter id="filter0_d_319_2150" x="2.49854" y="5.00012" width="27.002" height="23.9994" filterUnits="userSpaceOnUse" color-interpolation-filters="sRGB">
<feFlood flood-opacity="0" result="BackgroundImageFix"/>
<feColorMatrix in="SourceAlpha" type="matrix" values="0 0 0 0 0 0 0 0 0 0 0 0 0 0 0 0 0 0 127 0" result="hardAlpha"/>
<feOffset/>
<feGaussianBlur stdDeviation="2"/>
<feComposite in2="hardAlpha" operator="out"/>
<feColorMatrix type="matrix" values="0 0 0 0 0 0 0 0 0 0 0 0 0 0 0 0 0 0 0.08 0"/>
<feBlend mode="normal" in2="BackgroundImageFix" result="effect1_dropShadow_319_2150"/>
<feBlend mode="normal" in="SourceGraphic" in2="effect1_dropShadow_319_2150" result="shape"/>
</filter>
<clipPath id="clip0_319_2150">
<rect width="32" height="32" fill="white"/>
</clipPath>
</defs>
</svg>
