<svg width="60" height="60" viewBox="0 0 60 60" fill="none" xmlns="http://www.w3.org/2000/svg">
<path fill-rule="evenodd" clip-rule="evenodd" d="M30 10.1117C25.0122 10.1117 20.9688 14.1551 20.9688 19.143V22.0492H17.5C15.8431 22.0492 14.5 23.3923 14.5 25.0492V46.1742C14.5 47.831 15.8431 49.1742 17.5 49.1742H42.5C44.1569 49.1742 45.5 47.831 45.5 46.1742V25.0492C45.5 23.3923 44.1569 22.0492 42.5 22.0492H39.0312V19.143C39.0312 14.1551 34.9878 10.1117 30 10.1117ZM34.5312 22.0492V19.143C34.5312 16.6404 32.5025 14.6117 30 14.6117C27.4975 14.6117 25.4688 16.6404 25.4688 19.143V22.0492H34.5312ZM27.0938 35.6117C27.0938 34.0066 28.3949 32.7054 30 32.7054C31.6051 32.7054 32.9062 34.0066 32.9062 35.6117C32.9062 37.2167 31.6051 38.5179 30 38.5179C28.3949 38.5179 27.0938 37.2167 27.0938 35.6117Z" fill="#9396A1"/>
</svg>
