<svg width="60" height="60" viewBox="0 0 60 60" fill="none" xmlns="http://www.w3.org/2000/svg">
<path opacity="0.6" fill-rule="evenodd" clip-rule="evenodd" d="M37.6301 21.6164C37.6301 24.4934 36.4823 27.0327 34.7321 28.5473C35.4429 28.7708 36.2003 28.8914 36.9864 28.8914C41.071 28.8914 44.3823 25.6343 44.3823 21.6164C44.3823 17.5985 41.071 14.3413 36.9864 14.3413C36.2003 14.3413 35.4428 14.462 34.7321 14.6854C36.4823 16.2001 37.6301 18.7394 37.6301 21.6164ZM43.9017 45.9224H52V40.5214C52 36.6325 48.141 32.4551 42.8454 32.4551H38.9723C38.9723 32.4551 43.9017 33.9682 43.9017 40.5934V45.9224Z" fill="#9396A1"/>
<path fill-rule="evenodd" clip-rule="evenodd" d="M25.9927 29.6003C30.2785 29.6003 33.7527 26.108 33.7527 21.8001C33.7527 17.4922 30.2785 14 25.9927 14C21.707 14 18.2327 17.4922 18.2327 21.8001C18.2327 26.108 21.707 29.6003 25.9927 29.6003ZM21.6502 32.4302C16.3205 32.4302 12 36.7507 12 42.0803V46H39.9855V42.0803C39.9855 36.7507 35.665 32.4302 30.3353 32.4302H25.9927H21.6502Z" fill="#9396A1"/>
</svg>
