<svg width="121" height="120" viewBox="0 0 121 120" fill="none" xmlns="http://www.w3.org/2000/svg">
<g id="logo">
<path id="logoType" fill-rule="evenodd" clip-rule="evenodd" d="M19.5002 28.75C19.5002 35.2338 23.4499 40.9489 29.4539 44.316C23.4498 47.6831 19.5 53.3983 19.5 59.8821C19.5 66.4423 23.5433 72.2156 29.6668 75.5662C23.5434 78.9168 19.5002 84.69 19.5002 91.2501C19.5002 101.605 29.5751 110 42.0031 110C49.6673 110 56.4366 106.808 60.5 101.931C64.5634 106.808 71.3327 110 78.9969 110C91.4249 110 101.5 101.605 101.5 91.2501C101.5 84.69 97.4565 78.9168 91.3331 75.5662C97.4565 72.2155 101.5 66.4423 101.5 59.8822C101.5 53.3984 97.55 47.6832 91.5459 44.3161C97.55 40.949 101.5 35.2338 101.5 28.75C101.5 18.3947 91.4249 10 78.9969 10C71.3327 10 64.5634 13.1925 60.5 18.0686C56.4366 13.1925 49.6673 10 42.0031 10C29.5751 10 19.5002 18.3947 19.5002 28.75Z" fill="black"/>
</g>
</svg>
