<svg width="16" height="16" viewBox="0 0 16 16" xmlns="http://www.w3.org/2000/svg" xmlns:xlink="http://www.w3.org/1999/xlink">
    <defs>
        <linearGradient x1="50%" y1="100%" x2="50%" y2="0%" id="iyhsks05qa">
            <stop stop-color="#F3CF03" offset="0%"/>
            <stop stop-color="#FFF443" offset="100%"/>
            <stop stop-color="#F4EA47" offset="100%"/>
        </linearGradient>
        <linearGradient x1="50%" y1="100%" x2="50%" y2="0%" id="pvnmpgq39b">
            <stop stop-color="#F5AA07" offset="0%"/>
            <stop stop-color="#FFDC24" offset="100%"/>
            <stop stop-color="#F5BC00" offset="100%"/>
        </linearGradient>
        <linearGradient x1="50%" y1="0%" x2="50%" y2="100%" id="drppvh04lc">
            <stop stop-color="#FFFBA6" offset="0%"/>
            <stop stop-color="#F1E752" offset="100%"/>
        </linearGradient>
        <path d="M9.098 4.667c.866 0 1.569.542 1.569 1.212 0 .457-.328.855-.811 1.061.483.205.81.603.81 1.06 0 .457-.327.855-.81 1.062.483.204.81.602.81 1.06 0 .669-.702 1.211-1.568 1.211-.505 0-.857-.174-1.099-.39-.24.217-.593.39-1.097.39-.866 0-1.569-.542-1.569-1.212 0-.457.328-.855.81-1.061-.482-.205-.81-.603-.81-1.06 0-.457.328-.855.812-1.062-.484-.204-.812-.602-.812-1.06 0-.669.703-1.211 1.569-1.211.504 0 .856.173 1.098.39.24-.216.593-.39 1.098-.39z" id="d5m9ls5wid"/>
    </defs>
    <g fill="none" fill-rule="evenodd">
        <path d="M8 16A8 8 0 1 0 8 0a8 8 0 0 0 0 16z" fill="url(#iyhsks05qa)"/>
        <g stroke-width=".5">
            <circle stroke="#F3C507" stroke-linejoin="square" fill="url(#pvnmpgq39b)" cx="8" cy="8" r="5.083"/>
            <circle stroke-opacity=".14" stroke="#FFF" cx="8" cy="8" r="5.583"/>
        </g>
        <g>
            <use fill="url(#drppvh04lc)" xlink:href="#d5m9ls5wid"/>
            <path stroke-opacity=".02" stroke="#000" stroke-width=".5" d="M9.098 4.417c.494 0 .94.157 1.262.407.35.27.557.645.557 1.055 0 .28-.097.542-.268.767.171.811.268 1.074.268 1.354s-.097.542-.268.767c.171.812.268 1.074.268 1.354 0 .41-.208.785-.557 1.055-.323.25-.768.407-1.262.407-.475 0-.832-.136-1.098-.322-.267.186-.623.322-1.098.322-.494 0-.94-.157-1.262-.407-.35-.27-.557-.645-.557-1.055 0-.28.097-.542.268-.767C5.18 8.542 5.083 8.28 5.083 8s.097-.542.269-.767c-.172-.811-.269-1.074-.269-1.354 0-.41.208-.785.557-1.055.323-.25.768-.407 1.262-.407.475 0 .832.136 1.098.321.266-.185.623-.321 1.098-.321z"/>
            <path stroke-opacity=".2" stroke="#FFFEFE" stroke-width=".5" d="M9.098 4.917c.373 0 .712.113.956.303.219.168.363.399.363.659-.284.618-.456.745-.66.831l-.54.232.541.229c.204.086.375.211.493.366-.118 1.081-.29 1.208-.493 1.295l-.541.23.541.23c.204.086.375.212.493.366.166.723.022.954-.197 1.122a1.57 1.57 0 0 1-.956.303c-.426 0-.727-.143-.932-.326-.538.184-.839.326-1.264.326a1.57 1.57 0 0 1-.956-.303c-.219-.168-.363-.399-.363-.659.284-.618.456-.744.66-.831l.54-.231-.542-.23a1.209 1.209 0 0 1-.492-.366c.118-1.082.29-1.208.494-1.295l.542-.231-.543-.23a1.205 1.205 0 0 1-.493-.365c-.166-.723-.022-.954.197-1.122a1.57 1.57 0 0 1 .956-.303c.426 0 .726.142.93.326.539-.183.84-.326 1.266-.326z" stroke-linejoin="square"/>
        </g>
    </g>
</svg>
