<svg width="20" height="20" viewBox="0 0 20 20" fill="none" xmlns="http://www.w3.org/2000/svg">
<g id="icon_setting_notice">
<path id="Rectangle" d="M1.59375 12.9844L1.59172 12.9844C1.59048 12.9844 1.59027 12.9843 1.59082 12.9844C1.59085 12.9844 1.59088 12.9844 1.59091 12.9844L1.59172 12.9846L1.59287 12.985C1.59316 12.9851 1.59338 12.9852 1.59355 12.9853L1.59384 12.9862C1.59388 12.9864 1.59382 12.9862 1.59378 12.9855C1.59381 12.9855 1.59385 12.9855 1.59388 12.9855C1.59404 12.9856 1.59399 12.9856 1.59377 12.9854C1.59376 12.9851 1.59375 12.9848 1.59375 12.9844ZM1.59375 12.9844L1.59375 5.37799M1.59375 12.9844L1.59941 12.9844L1.60712 12.9844L1.61485 12.9844L1.62261 12.9844L1.63039 12.9844L1.6382 12.9844L1.64603 12.9844L1.65389 12.9844L1.66177 12.9844L1.66967 12.9844L1.6776 12.9844L1.68555 12.9844L1.69353 12.9844L1.70153 12.9844L1.70955 12.9844L1.7176 12.9844L1.72567 12.9844L1.73376 12.9844L1.74188 12.9844L1.75002 12.9844L1.75818 12.9844L1.76637 12.9844L1.77458 12.9844L1.78281 12.9844L1.79107 12.9844L1.79935 12.9844L1.80765 12.9844L1.81598 12.9844L1.82432 12.9844L1.8327 12.9844L1.84109 12.9844L1.8495 12.9844L1.85794 12.9844L1.86641 12.9844L1.87489 12.9844L1.8834 12.9844L1.89192 12.9844L1.90048 12.9844L1.90905 12.9844L1.91764 12.9844L1.92626 12.9844L1.9349 12.9844L1.94356 12.9844L1.95225 12.9844L1.96095 12.9844L1.96968 12.9844L1.97843 12.9844L1.9872 12.9844L1.99599 12.9844L2.0048 12.9844L2.01364 12.9844L2.0225 12.9844L2.03138 12.9844L2.04028 12.9844L2.0492 12.9844L2.05814 12.9844L2.0671 12.9844L2.07609 12.9844L2.08509 12.9844L2.09412 12.9844L2.10317 12.9844L2.11223 12.9844L2.12132 12.9844L2.13043 12.9844L2.13956 12.9844L2.14871 12.9844L2.15789 12.9844L2.16708 12.9844L2.17629 12.9844L2.18552 12.9844L2.19478 12.9844L2.20405 12.9844L2.21335 12.9844L2.22266 12.9844L2.23199 12.9844L2.24135 12.9844L2.25072 12.9844L2.26012 12.9844L2.26953 12.9844L2.27896 12.9844L2.28842 12.9844L2.29789 12.9844L2.30738 12.9844L2.31689 12.9844L2.32643 12.9844L2.33598 12.9844L2.34555 12.9844L2.35514 12.9844L2.36475 12.9844L2.37438 12.9844L2.38402 12.9844L2.39369 12.9844L2.40337 12.9844L2.41308 12.9844L2.4228 12.9844L2.43254 12.9844L2.44231 12.9844L2.45209 12.9844L2.46188 12.9844L2.4717 12.9844L2.48154 12.9844L2.49139 12.9844L2.50126 12.9844L2.51115 12.9844L2.52106 12.9844L2.53099 12.9844L2.54094 12.9844L2.5509 12.9844L2.56088 12.9844L2.57088 12.9844L2.5809 12.9844L2.59093 12.9844L2.60099 12.9844L2.61106 12.9844L2.62115 12.9844L2.63125 12.9844L2.64138 12.9844L2.65152 12.9844L2.66168 12.9844L2.67185 12.9844L2.68205 12.9844L2.69226 12.9844L2.70249 12.9844L2.71273 12.9844L2.72299 12.9844L2.73327 12.9844L2.74357 12.9844L2.75388 12.9844L2.76421 12.9844L2.77456 12.9844L2.78492 12.9844L2.7953 12.9844L2.8057 12.9844L2.81611 12.9844L2.82654 12.9844L2.83699 12.9844L2.84745 12.9844L2.85793 12.9844L2.86843 12.9844L2.87894 12.9844L2.88947 12.9844L2.90001 12.9844L2.91057 12.9844L2.92115 12.9844L2.93174 12.9844L2.94235 12.9844L2.95297 12.9844L2.96361 12.9844L2.97426 12.9844L2.98494 12.9844L2.99562 12.9844L3.00632 12.9844L3.01704 12.9844L3.02777 12.9844L3.03852 12.9844L3.04928 12.9844L3.06006 12.9844L3.07085 12.9844L3.08166 12.9844L3.09248 12.9844L3.10332 12.9844L3.11418 12.9844L3.12504 12.9844L3.13593 12.9844L3.14682 12.9844L3.15774 12.9844L3.16866 12.9844L3.1796 12.9844L3.19056 12.9844L3.20153 12.9844L3.21251 12.9844L3.22351 12.9844L3.23453 12.9844L3.24555 12.9844L3.25659 12.9844L3.26765 12.9844L3.27872 12.9844L3.2898 12.9844L3.3009 12.9844L3.31201 12.9844L3.32313 12.9844L3.33427 12.9844L3.34542 12.9844L3.35659 12.9844L3.36777 12.9844L3.37896 12.9844L3.39017 12.9844L3.40139 12.9844L3.41262 12.9844L3.42386 12.9844L3.43512 12.9844L3.44639 12.9844L3.45768 12.9844L3.46898 12.9844L3.48029 12.9844L3.49161 12.9844L3.50295 12.9844L3.5143 12.9844L3.52566 12.9844L3.53703 12.9844L3.54842 12.9844L3.55982 12.9844L3.57123 12.9844L3.58266 12.9844L3.59409 12.9844L3.60554 12.9844L3.617 12.9844L3.62848 12.9844L3.63996 12.9844L3.65146 12.9844L3.66297 12.9844L3.67449 12.9844L3.68602 12.9844L3.69757 12.9844L3.70912 12.9844L3.72069 12.9844L3.73227 12.9844L3.74386 12.9844L3.75547 12.9844L3.76708 12.9844L3.77871 12.9844L3.79034 12.9844L3.80199 12.9844L3.81365 12.9844L3.82532 12.9844L3.837 12.9844L3.84869 12.9844L3.8604 12.9844L3.87211 12.9844L3.88384 12.9844L3.89557 12.9844L3.90732 12.9844L3.91908 12.9844L3.93084 12.9844L3.94262 12.9844L3.95441 12.9844L3.96621 12.9844L3.97802 12.9844L3.98984 12.9844L4.00167 12.9844L4.01351 12.9844L4.02536 12.9844L4.03722 12.9844L4.04909 12.9844L4.06097 12.9844L4.07286 12.9844L4.08476 12.9844L4.09667 12.9844L4.10859 12.9844L4.12052 12.9844L4.13246 12.9844L4.14441 12.9844L4.15636 12.9844L4.16833 12.9844L4.18031 12.9844L4.19229 12.9844L4.20429 12.9844L4.21629 12.9844L4.22831 12.9844L4.24033 12.9844L4.25236 12.9844L4.2644 12.9844L4.27645 12.9844L4.2885 12.9844L4.30057 12.9844L4.31265 12.9844L4.32473 12.9844L4.33682 12.9844L4.34892 12.9844L4.36103 12.9844L4.37315 12.9844L4.38527 12.9844L4.39741 12.9844L4.40955 12.9844L4.4217 12.9844L4.43386 12.9844L4.44602 12.9844L4.4582 12.9844L4.47038 12.9844L4.48257 12.9844L4.49477 12.9844L4.50697 12.9844L4.51919 12.9844L4.53141 12.9844L4.54364 12.9844L4.55587 12.9844L4.56812 12.9844L4.58037 12.9844L4.59262 12.9844L4.60489 12.9844L4.61716 12.9844L4.62944 12.9844L4.64173 12.9844L4.65402 12.9844L4.66632 12.9844L4.67863 12.9844L4.69094 12.9844L4.70326 12.9844L4.71559 12.9844L4.72792 12.9844L4.74026 12.9844L4.75261 12.9844L4.76496 12.9844L4.77732 12.9844L4.78969 12.9844L4.80206 12.9844L4.81444 12.9844L4.82683 12.9844L4.83922 12.9844L4.85162 12.9844L4.86402 12.9844L4.87643 12.9844L4.88884 12.9844L4.90126 12.9844L4.91369 12.9844L4.92612 12.9844L4.93856 12.9844L4.951 12.9844L4.96345 12.9844L4.97591 12.9844L4.98837 12.9844L5.00083 12.9844L5.0133 12.9844L5.02578 12.9844L5.03826 12.9844L5.05074 12.9844L5.06323 12.9844L5.07573 12.9844L5.08823 12.9844L5.10073 12.9844L5.11325 12.9844L5.12576 12.9844L5.13828 12.9844L5.1508 12.9844L5.16333 12.9844L5.17587 12.9844L5.1884 12.9844L5.20095 12.9844L5.21349 12.9844L5.22604 12.9844L5.2386 12.9844L5.25116 12.9844L5.26372 12.9844L5.27628 12.9844L5.28886 12.9844L5.30143 12.9844L5.31401 12.9844L5.32659 12.9844L5.33918 12.9844L5.35177 12.9844L5.36436 12.9844L5.37696 12.9844L5.38956 12.9844L5.40216 12.9844L5.41477 12.9844L5.42738 12.9844L5.43999 12.9844L5.45261 12.9844L5.46523 12.9844L5.47785 12.9844L5.49048 12.9844L5.50311 12.9844L5.51574 12.9844L5.52837 12.9844L5.54101 12.9844L5.55365 12.9844L5.56629 12.9844L5.57894 12.9844L5.59158 12.9844L5.60423 12.9844L5.61689 12.9844L5.62954 12.9844L5.6422 12.9844L5.65486 12.9844L5.66752 12.9844L5.68018 12.9844L5.69285 12.9844L5.70552 12.9844L5.71818 12.9844L5.73086 12.9844L5.74353 12.9844L5.7562 12.9844L5.76888 12.9844L5.78156 12.9844L5.79424 12.9844L5.80692 12.9844L5.8196 12.9844L5.83229 12.9844L5.84497 12.9844L5.85766 12.9844L5.87034 12.9844L5.88303 12.9844L5.89572 12.9844L5.90841 12.9844L5.92111 12.9844L5.9338 12.9844L5.94649 12.9844L5.95919 12.9844L5.97188 12.9844L5.98458 12.9844L5.99727 12.9844L6.00997 12.9844L6.02267 12.9844L6.03537 12.9844L6.04806 12.9844L6.06076 12.9844L6.07346 12.9844L6.08616 12.9844L6.09886 12.9844L6.11156 12.9844L6.12426 12.9844L6.13696 12.9844L6.14965 12.9844L6.16235 12.9844L6.17505 12.9844L6.18775 12.9844L6.20045 12.9844L6.21315 12.9844L6.22584 12.9844L6.23854 12.9844L6.25123 12.9844L6.26393 12.9844L6.27662 12.9844L6.28932 12.9844L6.30201 12.9844L6.3147 12.9844L6.32739 12.9844L6.34008 12.9844L6.35277 12.9844L6.36546 12.9844L6.37815 12.9844L6.39083 12.9844L6.40351 12.9844L6.4162 12.9844L6.42888 12.9844L6.44156 12.9844L6.45424 12.9844L6.46691 12.9844L6.47959 12.9844L6.49226 12.9844L6.50493 12.9844L6.5176 12.9844L6.53027 12.9844L6.54293 12.9844L6.5556 12.9844L6.56826 12.9844L6.58092 12.9844L6.59357 12.9844L6.60623 12.9844L6.61888 12.9844L6.63153 12.9844L6.64418 12.9844L6.65682 12.9844L6.66947 12.9844L6.68211 12.9844L6.69474 12.9844L6.70738 12.9844L6.72001 12.9844L6.73264 12.9844L6.74526 12.9844L6.75789 12.9844L6.77051 12.9844L6.78312 12.9844L6.79574 12.9844L6.80835 12.9844L6.82095 12.9844L6.83356 12.9844L6.84616 12.9844L6.85875 12.9844L6.87135 12.9844L6.88394 12.9844L6.89652 12.9844L6.9091 12.9844L6.92168 12.9844L6.93426 12.9844L6.94683 12.9844L6.95939 12.9844L6.97196 12.9844L6.98451 12.9844L6.99707 12.9844L7.00962 12.9844L7.02217 12.9844L7.03471 12.9844L7.04725 12.9844L7.05978 12.9844L7.07231 12.9844L7.08483 12.9844L7.09735 12.9844L7.10986 12.9844L7.12238 12.9844L7.13488 12.9844L7.14738 12.9844L7.15988 12.9844L7.17237 12.9844L7.18485 12.9844L7.19733 12.9844L7.20981 12.9844L7.22228 12.9844L7.23474 12.9844L7.2472 12.9844L7.25966 12.9844L7.2721 12.9844L7.28455 12.9844L7.29699 12.9844L7.30942 12.9844L7.32184 12.9844L7.33426 12.9844L7.34668 12.9844L7.35909 12.9844L7.37149 12.9844L7.38389 12.9844L7.39628 12.9844C8.58743 12.9844 9.76646 13.2208 10.8655 13.68L17.3125 16.3735M1.59375 5.37799L1.59924 5.37799L1.60679 5.37799L1.61435 5.37799L1.62194 5.37799L1.62956 5.37799L1.6372 5.37799L1.64486 5.37799L1.65254 5.37799L1.66025 5.37799L1.66798 5.37799L1.67573 5.37799L1.68351 5.37799L1.6913 5.37799L1.69913 5.37799L1.70697 5.37799L1.71484 5.37799L1.72273 5.37799L1.73064 5.37799L1.73857 5.37799L1.74653 5.37799L1.75451 5.37799L1.76251 5.37799L1.77053 5.37799L1.77858 5.37799L1.78664 5.37799L1.79473 5.37799L1.80285 5.37799L1.81098 5.37799L1.81914 5.37799L1.82731 5.37799L1.83551 5.37799L1.84373 5.37799L1.85198 5.37799L1.86024 5.37799L1.86853 5.37799L1.87683 5.37799L1.88516 5.37799L1.89351 5.37799L1.90188 5.37799L1.91028 5.37799L1.91869 5.37799L1.92713 5.37799L1.93558 5.37799L1.94406 5.37799L1.95256 5.37799L1.96108 5.37799L1.96962 5.37799L1.97818 5.37799L1.98676 5.37799L1.99537 5.37799L2.00399 5.37799L2.01263 5.37799L2.0213 5.37799L2.02998 5.37799L2.03869 5.37799L2.04741 5.37799L2.05616 5.37799L2.06493 5.37799L2.07371 5.37799L2.08252 5.37799L2.09135 5.37799L2.1002 5.37799L2.10906 5.37799L2.11795 5.37799L2.12686 5.37799L2.13578 5.37799L2.14473 5.37799L2.1537 5.37799L2.16268 5.37799L2.17169 5.37799L2.18071 5.37799L2.18976 5.37799L2.19882 5.37799L2.20791 5.37799L2.21701 5.37799L2.22613 5.37799L2.23527 5.37799L2.24443 5.37799L2.25361 5.37799L2.26281 5.37799L2.27203 5.37799L2.28126 5.37799L2.29052 5.37799L2.29979 5.37799L2.30909 5.37799L2.3184 5.37799L2.32773 5.37799L2.33708 5.37799L2.34645 5.37799L2.35583 5.37799L2.36524 5.37799L2.37466 5.37799L2.3841 5.37799L2.39356 5.37799L2.40304 5.37799L2.41253 5.37799L2.42205 5.37799L2.43158 5.37799L2.44113 5.37799L2.4507 5.37799L2.46028 5.37799L2.46989 5.37799L2.47951 5.37799L2.48915 5.37799L2.4988 5.37799L2.50848 5.37799L2.51817 5.37799L2.52788 5.37799L2.5376 5.37799L2.54735 5.37799L2.55711 5.37799L2.56689 5.37799L2.57668 5.37799L2.5865 5.37799L2.59633 5.37799L2.60617 5.37799L2.61604 5.37799L2.62592 5.37799L2.63582 5.37799L2.64573 5.37799L2.65566 5.37799L2.66561 5.37799L2.67558 5.37799L2.68556 5.37799L2.69556 5.37799L2.70557 5.37799L2.7156 5.37799L2.72565 5.37799L2.73571 5.37799L2.74579 5.37799L2.75589 5.37799L2.766 5.37799L2.77613 5.37799L2.78627 5.37799L2.79643 5.37799L2.80661 5.37799L2.8168 5.37799L2.82701 5.37799L2.83723 5.37799L2.84747 5.37799L2.85772 5.37799L2.86799 5.37799L2.87828 5.37799L2.88858 5.37799L2.8989 5.37799L2.90923 5.37799L2.91958 5.37799L2.92994 5.37799L2.94032 5.37799L2.95071 5.37799L2.96112 5.37799L2.97154 5.37799L2.98198 5.37799L2.99243 5.37799L3.0029 5.37799L3.01338 5.37799L3.02388 5.37799L3.03439 5.37799L3.04492 5.37799L3.05546 5.37799L3.06601 5.37799L3.07658 5.37799L3.08717 5.37799L3.09776 5.37799L3.10838 5.37799L3.11901 5.37799L3.12965 5.37799L3.1403 5.37799L3.15097 5.37799L3.16166 5.37799L3.17235 5.37799L3.18306 5.37799L3.19379 5.37799L3.20453 5.37799L3.21528 5.37799L3.22605 5.37799L3.23683 5.37799L3.24762 5.37799L3.25843 5.37799L3.26925 5.37799L3.28008 5.37799L3.29093 5.37799L3.30179 5.37799L3.31266 5.37799L3.32355 5.37799L3.33445 5.37799L3.34536 5.37799L3.35629 5.37799L3.36723 5.37799L3.37818 5.37799L3.38915 5.37799L3.40012 5.37799L3.41111 5.37799L3.42212 5.37799L3.43313 5.37799L3.44416 5.37799L3.4552 5.37799L3.46625 5.37799L3.47732 5.37799L3.4884 5.37799L3.49949 5.37799L3.51059 5.37799L3.5217 5.37799L3.53283 5.37799L3.54397 5.37799L3.55512 5.37799L3.56628 5.37799L3.57746 5.37799L3.58864 5.37799L3.59984 5.37799L3.61105 5.37799L3.62227 5.37799L3.6335 5.37799L3.64475 5.37799L3.656 5.37799L3.66727 5.37799L3.67855 5.37799L3.68984 5.37799L3.70114 5.37799L3.71245 5.37799L3.72378 5.37799L3.73511 5.37799L3.74646 5.37799L3.75781 5.37799L3.76918 5.37799L3.78056 5.37799L3.79195 5.37799L3.80335 5.37799L3.81476 5.37799L3.82618 5.37799L3.83761 5.37799L3.84906 5.37799L3.86051 5.37799L3.87197 5.37799L3.88345 5.37799L3.89493 5.37799L3.90642 5.37799L3.91793 5.37799L3.92944 5.37799L3.94097 5.37799L3.9525 5.37799L3.96405 5.37799L3.9756 5.37799L3.98717 5.37799L3.99874 5.37799L4.01033 5.37799L4.02192 5.37799L4.03352 5.37799L4.04514 5.37799L4.05676 5.37799L4.06839 5.37799L4.08003 5.37799L4.09168 5.37799L4.10334 5.37799L4.11501 5.37799L4.12669 5.37799L4.13838 5.37799L4.15007 5.37799L4.16178 5.37799L4.17349 5.37799L4.18522 5.37799L4.19695 5.37799L4.20869 5.37799L4.22044 5.37799L4.2322 5.37799L4.24397 5.37799L4.25574 5.37799L4.26753 5.37799L4.27932 5.37799L4.29112 5.37799L4.30293 5.37799L4.31475 5.37799L4.32658 5.37799L4.33841 5.37799L4.35025 5.37799L4.3621 5.37799L4.37396 5.37799L4.38583 5.37799L4.3977 5.37799L4.40958 5.37799L4.42147 5.37799L4.43337 5.37799L4.44528 5.37799L4.45719 5.37799L4.46911 5.37799L4.48104 5.37799L4.49297 5.37799L4.50492 5.37799L4.51687 5.37799L4.52882 5.37799L4.54079 5.37799L4.55276 5.37799L4.56474 5.37799L4.57673 5.37799L4.58872 5.37799L4.60072 5.37799L4.61273 5.37799L4.62474 5.37799L4.63676 5.37799L4.64879 5.37799L4.66082 5.37799L4.67286 5.37799L4.68491 5.37799L4.69696 5.37799L4.70902 5.37799L4.72109 5.37799L4.73316 5.37799L4.74524 5.37799L4.75733 5.37799L4.76942 5.37799L4.78151 5.37799L4.79362 5.37799L4.80573 5.37799L4.81784 5.37799L4.82996 5.37799L4.84209 5.37799L4.85422 5.37799L4.86636 5.37799L4.87851 5.37799L4.89066 5.37799L4.90281 5.37799L4.91497 5.37799L4.92714 5.37799L4.93931 5.37799L4.95149 5.37799L4.96367 5.37799L4.97586 5.37799L4.98805 5.37799L5.00025 5.37799L5.01245 5.37799L5.02466 5.37799L5.03687 5.37799L5.04909 5.37799L5.06131 5.37799L5.07354 5.37799L5.08577 5.37799L5.09801 5.37799L5.11025 5.37799L5.1225 5.37799L5.13475 5.37799L5.147 5.37799L5.15926 5.37799L5.17152 5.37799L5.18379 5.37799L5.19606 5.37799L5.20834 5.37799L5.22062 5.37799L5.2329 5.37799L5.24519 5.37799L5.25748 5.37799L5.26978 5.37799L5.28208 5.37799L5.29438 5.37799L5.30669 5.37799L5.319 5.37799L5.33131 5.37799L5.34363 5.37799L5.35595 5.37799L5.36827 5.37799L5.3806 5.37799L5.39293 5.37799L5.40527 5.37799L5.41761 5.37799L5.42995 5.37799L5.44229 5.37799L5.45464 5.37799L5.46699 5.37799L5.47934 5.37799L5.4917 5.37799L5.50405 5.37799L5.51642 5.37799L5.52878 5.37799L5.54115 5.37799L5.55352 5.37799L5.56589 5.37799L5.57826 5.37799L5.59064 5.37799L5.60302 5.37799L5.6154 5.37799L5.62778 5.37799L5.64017 5.37799L5.65255 5.37799L5.66494 5.37799L5.67734 5.37799L5.68973 5.37799L5.70213 5.37799L5.71452 5.37799L5.72692 5.37799L5.73932 5.37799L5.75173 5.37799L5.76413 5.37799L5.77654 5.37799L5.78894 5.37799L5.80135 5.37799L5.81376 5.37799L5.82618 5.37799L5.83859 5.37799L5.851 5.37799L5.86342 5.37799L5.87583 5.37799L5.88825 5.37799L5.90067 5.37799L5.91309 5.37799L5.92551 5.37799L5.93793 5.37799L5.95035 5.37799L5.96278 5.37799L5.9752 5.37799L5.98762 5.37799L6.00005 5.37799L6.01247 5.37799L6.0249 5.37799L6.03732 5.37799L6.04975 5.37799L6.06218 5.37799L6.0746 5.37799L6.08703 5.37799L6.09946 5.37799L6.11188 5.37799L6.12431 5.37799L6.13674 5.37799L6.14916 5.37799L6.16159 5.37799L6.17402 5.37799L6.18644 5.37799L6.19887 5.37799L6.2113 5.37799L6.22372 5.37799L6.23614 5.37799L6.24857 5.37799L6.26099 5.37799L6.27341 5.37799L6.28584 5.37799L6.29826 5.37799L6.31068 5.37799L6.3231 5.37799L6.33552 5.37799L6.34793 5.37799L6.36035 5.37799L6.37276 5.37799L6.38518 5.37799L6.39759 5.37799L6.41 5.37799L6.42241 5.37799L6.43482 5.37799L6.44723 5.37799L6.45964 5.37799L6.47204 5.37799L6.48444 5.37799L6.49684 5.37799L6.50924 5.37799L6.52164 5.37799L6.53403 5.37799L6.54643 5.37799L6.55882 5.37799L6.57121 5.37799L6.5836 5.37799L6.59598 5.37799L6.60837 5.37799L6.62075 5.37799L6.63313 5.37799L6.6455 5.37799L6.65788 5.37799L6.67025 5.37799L6.68262 5.37799L6.69498 5.37799L6.70735 5.37799L6.71971 5.37799L6.73207 5.37799L6.74442 5.37799L6.75677 5.37799L6.76912 5.37799L6.78147 5.37799L6.79381 5.37799L6.80615 5.37799L6.81849 5.37799L6.83083 5.37799L6.84316 5.37799L6.85548 5.37799L6.86781 5.37799L6.88013 5.37799L6.89245 5.37799L6.90476 5.37799L6.91707 5.37799L6.92938 5.37799L6.94168 5.37799L6.95398 5.37799L6.96628 5.37799L6.97857 5.37799L6.99086 5.37799L7.00314 5.37799L7.01542 5.37799L7.02769 5.37799L7.03997 5.37799L7.05223 5.37799L7.0645 5.37799L7.07675 5.37799L7.08901 5.37799L7.10126 5.37799L7.1135 5.37799L7.12574 5.37799L7.13798 5.37799L7.15021 5.37799L7.16244 5.37799L7.17466 5.37799L7.18688 5.37799L7.19909 5.37799L7.2113 5.37799L7.2235 5.37799L7.2357 5.37799L7.24789 5.37799L7.26008 5.37799C8.55029 5.37799 9.82496 5.10058 10.9985 4.56464L17.3125 1.68105M1.59375 5.37799L1.59172 5.37799C1.59047 5.37799 1.59027 5.37809 1.59082 5.37799C1.59085 5.37798 1.59088 5.37798 1.59091 5.37797L1.59172 5.37772L1.59287 5.37736C1.59316 5.37723 1.59338 5.37712 1.59355 5.37703M1.59375 5.37799C1.59375 5.37755 1.59376 5.37719 1.59378 5.37691M17.3125 16.3735L17.3125 17.1242C17.3125 16.7672 17.6758 16.5253 18.0052 16.6629L17.3125 16.3735ZM17.3125 16.3735L17.3125 1.68105M17.3125 1.68105L18.0202 1.35784C17.6891 1.50906 17.3125 1.26705 17.3125 0.903024L17.3125 1.68105ZM1.59355 5.37703L1.59355 5.37705C1.5933 5.37763 1.59327 5.37746 1.59373 5.377C1.59401 5.37671 1.59408 5.37673 1.59378 5.37691M1.59355 5.37703C1.59364 5.37699 1.59372 5.37694 1.59378 5.37691M1.59355 5.37703L1.59378 5.37691" stroke="black" stroke-width="2"/>
<path id="Vector 4" d="M7.75 13.6503L7.75 19.6503" stroke="black" stroke-width="2"/>
</g>
</svg>
