<svg width="20" height="20" viewBox="0 0 20 20" fill="none" xmlns="http://www.w3.org/2000/svg">
<g id="icon_setting_help">
<circle id="Oval" cx="10" cy="10" r="9" stroke="black" stroke-width="2"/>
<path id="Shape" fill-rule="evenodd" clip-rule="evenodd" d="M10.6293 12.0562H8.80479L8.79448 11.6576C8.77321 11.3269 8.8009 11.0332 8.87755 10.7766C8.95419 10.5201 9.08775 10.2874 9.27823 10.0787C9.46871 9.87 9.72088 9.67287 10.0348 9.48729C10.3303 9.31088 10.5623 9.14936 10.7307 9.00273C10.8991 8.85611 11.0176 8.70203 11.0863 8.54052C11.1551 8.379 11.1894 8.1917 11.1894 7.97864V7.968C11.1894 7.7462 11.1345 7.55116 11.0247 7.38287C10.9148 7.21459 10.7619 7.0828 10.566 6.98751C10.3701 6.89222 10.1427 6.84457 9.88355 6.84457C9.62237 6.84457 9.39269 6.89721 9.19452 7.00249C8.99634 7.10777 8.8405 7.25241 8.72698 7.43641C8.61347 7.62041 8.54891 7.83137 8.5333 8.06928L8.5289 8.11954L6.66348 8.12018L6.6666 8.0595C6.6845 7.51925 6.82466 7.03736 7.08709 6.61384C7.34953 6.19031 7.72599 5.85713 8.21649 5.61428C8.70699 5.37143 9.30277 5.25 10.0038 5.25C10.6591 5.25 11.2313 5.36226 11.7204 5.58678C12.2095 5.81131 12.5898 6.12237 12.8613 6.51997C13.1328 6.91758 13.2686 7.37964 13.2686 7.90615V7.91678C13.2686 8.43226 13.1449 8.87673 12.8974 9.25017C12.65 9.62361 12.2846 9.95237 11.8012 10.2365C11.4964 10.4129 11.2593 10.5755 11.0898 10.7245C10.9202 10.8734 10.8011 11.0292 10.7324 11.192C10.6637 11.3548 10.6293 11.5453 10.6293 11.7636V12.0562ZM10.558 15.0347C10.3399 15.2429 10.0706 15.347 9.75007 15.347C9.43183 15.347 9.16358 15.2429 8.94532 15.0347C8.72706 14.8266 8.61793 14.5689 8.61793 14.2617C8.61793 13.954 8.72706 13.6966 8.94532 13.4895C9.16358 13.2824 9.43183 13.1788 9.75007 13.1788C10.0706 13.1788 10.3399 13.2824 10.558 13.4895C10.7761 13.6966 10.8851 13.954 10.8851 14.2617C10.8851 14.5689 10.7761 14.8266 10.558 15.0347Z" fill="black"/>
</g>
</svg>
