<svg width="20" height="20" viewBox="0 0 20 20" fill="none" xmlns="http://www.w3.org/2000/svg">
<g id="icon_setting_privicy">
<path id="Rectangle" d="M10.1382 18.6739C10.0868 18.6877 10.0406 18.6997 10 18.71C9.9594 18.6997 9.91321 18.6877 9.86181 18.6739C9.62931 18.6115 9.29165 18.5128 8.8841 18.3706C8.06565 18.085 6.98295 17.6301 5.90829 16.9526C3.75863 15.5974 1.75 13.4351 1.75 10L1.75 1.32483L18.25 1.32483L18.25 10C18.25 13.4351 16.2414 15.5974 14.0917 16.9526C13.0171 17.6301 11.9343 18.085 11.1159 18.3706C10.7083 18.5128 10.3707 18.6115 10.1382 18.6739Z" stroke="black" stroke-width="2" stroke-linejoin="round"/>
<circle id="Ellipse 3" cx="10" cy="11.7125" r="1.4" fill="black"/>
<rect id="Rectangle 5" x="9" y="5.5" width="2" height="4" fill="black"/>
</g>
</svg>
