<svg width="72" height="72" viewBox="0 0 72 72" fill="none" xmlns="http://www.w3.org/2000/svg">
<g id="chatZeroImage">
<g id="image">
<path id="Union" fill-rule="evenodd" clip-rule="evenodd" d="M36.9677 61.8494C53.0884 61.3567 66 48.5985 66 32.9321C66 16.9533 52.5685 4 36 4C19.4315 4 6 16.9533 6 32.9321C6 33.2548 6.00548 33.5764 6.01636 33.8966H6C6.00865 33.9742 6.01715 34.0553 6.02567 34.14C6.37748 42.4016 10.3216 49.7694 16.3916 54.8293C20.6747 59.0089 26.7815 63.4627 35.5147 67.8906C36.1747 68.2252 36.9677 67.751 36.9677 67.0109V61.8494Z" fill="#DADDE2"/>
<g id="logoType" filter="url(#filter0_d_387_3632)">
<path fill-rule="evenodd" clip-rule="evenodd" d="M26.3226 25.88C26.3226 27.4433 27.2549 28.8213 28.6722 29.6331C27.255 30.4449 26.3227 31.8228 26.3227 33.386C26.3227 34.9676 27.277 36.3594 28.7221 37.1673C27.2769 37.9751 26.3226 39.367 26.3226 40.9486C26.3226 43.4453 28.7006 45.4692 31.6341 45.4692C33.4431 45.4692 35.041 44.6995 36.0001 43.5238C36.9592 44.6995 38.557 45.4692 40.3661 45.4692C43.2995 45.4692 45.6776 43.4453 45.6776 40.9486C45.6776 39.3671 44.7233 37.9752 43.2782 37.1674C44.7233 36.3595 45.6776 34.9677 45.6776 33.3861C45.6776 31.8228 44.7452 30.4449 43.328 29.6331C44.7452 28.8213 45.6776 27.4433 45.6776 25.88C45.6776 23.3833 43.2995 21.3594 40.3661 21.3594C38.557 21.3594 36.9592 22.1292 36.0001 23.3049C35.041 22.1292 33.4431 21.3594 31.6341 21.3594C28.7006 21.3594 26.3226 23.3833 26.3226 25.88Z" fill="white"/>
</g>
</g>
</g>
<defs>
<filter id="filter0_d_387_3632" x="24.3226" y="19.3594" width="23.3549" height="28.1099" filterUnits="userSpaceOnUse" color-interpolation-filters="sRGB">
<feFlood flood-opacity="0" result="BackgroundImageFix"/>
<feColorMatrix in="SourceAlpha" type="matrix" values="0 0 0 0 0 0 0 0 0 0 0 0 0 0 0 0 0 0 127 0" result="hardAlpha"/>
<feOffset/>
<feGaussianBlur stdDeviation="1"/>
<feColorMatrix type="matrix" values="0 0 0 0 0 0 0 0 0 0 0 0 0 0 0 0 0 0 0.1 0"/>
<feBlend mode="normal" in2="BackgroundImageFix" result="effect1_dropShadow_387_3632"/>
<feBlend mode="normal" in="SourceGraphic" in2="effect1_dropShadow_387_3632" result="shape"/>
</filter>
</defs>
</svg>
