<svg width="20" height="20" viewBox="0 0 20 20" fill="none" xmlns="http://www.w3.org/2000/svg">
<g id="notificationOff">
<path id="icon" fill-rule="evenodd" clip-rule="evenodd" d="M15.885 2.00024L2.59973 15.5981L3.31501 16.297L16.6003 2.69908L15.885 2.00024ZM16.8439 14.7155H6.31564L15.0126 5.81391C15.3552 6.56696 15.5468 7.4207 15.5468 8.34158C15.5468 8.41249 15.5457 8.48311 15.5434 8.55343V9.74284C15.5434 11.4845 15.9912 13.1969 16.8439 14.7155ZM9.97782 2.57178C11.0857 2.57178 12.118 2.8894 12.9854 3.45107L3.93555 12.7139C4.24785 11.7457 4.40894 10.7305 4.40894 9.70424V8.399H4.40909L4.40884 8.34158C4.40884 5.01989 6.90216 2.57178 9.97782 2.57178ZM9.97879 17.9996C8.97124 17.9996 8.15446 17.1099 8.15446 16.0125H11.8031C11.8031 17.1099 10.9863 17.9996 9.97879 17.9996Z" fill="#A2A8B2"/>
</g>
</svg>
