<svg width="16" height="16" viewBox="0 0 16 16" fill="none" xmlns="http://www.w3.org/2000/svg">
<g id="goalCompletedIcon">
<g id="goalCompletedIcon_2">
<path id="oval" fill-rule="evenodd" clip-rule="evenodd" d="M8.00005 2.16388C7.29727 1.6223 6.41573 1.30005 5.45868 1.30005C3.16193 1.30005 1.30005 3.15591 1.30005 5.44523C1.30005 6.40903 1.63005 7.29601 2.18357 8.00003C1.63005 8.70404 1.30005 9.59102 1.30005 10.5548C1.30005 12.8441 3.16193 14.7 5.45868 14.7C6.41573 14.7 7.29727 14.3778 8.00005 13.8362C8.70284 14.3778 9.58438 14.7 10.5414 14.7C12.8382 14.7 14.7 12.8441 14.7 10.5548C14.7 9.59102 14.37 8.70404 13.8165 8.00003C14.37 7.29601 14.7 6.40904 14.7 5.44523C14.7 3.15591 12.8382 1.30005 10.5414 1.30005C9.58438 1.30005 8.70283 1.6223 8.00005 2.16388Z" fill="#8190AA"/>
<path id="Path" d="M4.92505 6.77637L7.42505 9.65137L10.9235 5.47168" stroke="white" stroke-width="1.5"/>
</g>
</g>
</svg>
