<svg width="24" height="24" viewBox="0 0 24 24" fill="none" xmlns="http://www.w3.org/2000/svg">
<path d="M3.19613 17.7625C3.24264 17.49 3.29313 17.1844 3.34364 16.8612C3.52067 15.7284 3.71127 14.299 3.71127 13.3316V13.3287V13.3258V13.3229V13.32V13.317V13.3141V13.3111V13.3081V13.3051V13.302V13.299V13.296V13.2929V13.2898V13.2867V13.2836V13.2805V13.2773V13.2742V13.271V13.2678V13.2646V13.2614V13.2582V13.2549V13.2517V13.2484V13.2451V13.2418V13.2385V13.2351V13.2318V13.2284V13.2251V13.2217V13.2183V13.2149V13.2114V13.208V13.2045V13.201V13.1975V13.194V13.1905V13.187V13.1834V13.1799V13.1763V13.1727V13.1691V13.1655V13.1619V13.1582V13.1546V13.1509V13.1472V13.1435V13.1398V13.1361V13.1323V13.1286V13.1248V13.121V13.1172V13.1134V13.1096V13.1057V13.1019V13.098V13.0941V13.0902V13.0863V13.0824V13.0785V13.0745V13.0706V13.0666V13.0626V13.0586V13.0546V13.0505V13.0465V13.0424V13.0384V13.0343V13.0302V13.0261V13.0219V13.0178V13.0137V13.0095V13.0053V13.0011V12.9969V12.9927V12.9885V12.9842V12.98V12.9757V12.9714V12.9671V12.9628V12.9585V12.9541V12.9498V12.9454V12.941V12.9366V12.9322V12.9278V12.9234V12.919V12.9145V12.91V12.9056V12.9011V12.8966V12.892V12.8875V12.883V12.8784V12.8738V12.8692V12.8646V12.86V12.8554V12.8508V12.8461V12.8415V12.8368V12.8321V12.8274V12.8227V12.818V12.8132V12.8085V12.8037V12.799V12.7942V12.7894V12.7846V12.7797V12.7749V12.7701V12.7652V12.7603V12.7554V12.7505V12.7456V12.7407V12.7358V12.7308V12.7259V12.7209V12.7159V12.7109V12.7059V12.7009V12.6959V12.6908V12.6858V12.6807V12.6756V12.6705V12.6654V12.6603V12.6552V12.65V12.6449V12.6397V12.6345V12.6294V12.6242V12.6189V12.6137V12.6085V12.6032V12.598V12.5927V12.5874V12.5821V12.5768V12.5715V12.5662V12.5608V12.5555V12.5501V12.5447V12.5394V12.534V12.5286V12.5231V12.5177V12.5122V12.5068V12.5013V12.4958V12.4904V12.4849V12.4793V12.4738V12.4683V12.4627V12.4572V12.4516V12.446V12.4404V12.4348V12.4292V12.4236V12.4179V12.4123V12.4066V12.401V12.3953V12.3896V12.3839V12.3782V12.3724V12.3667V12.3609V12.3552V12.3494V12.3436V12.3378V12.332V12.3262V12.3204V12.3146V12.3087V12.3029V12.297V12.2911V12.2852V12.2793V12.2734V12.2675V12.2616V12.2556V12.2497V12.2437V12.2377V12.2317V12.2257V12.2197V12.2137V12.2077V12.2016V12.1956V12.1895V12.1835V12.1774V12.1713V12.1652V12.1591V12.1529V12.1468V12.1407V12.1345V12.1284V12.1222V12.116V12.1098V12.1036V12.0974V12.0912V12.0849V12.0787V12.0724V12.0661V12.0599V12.0536V12.0473V12.041V12.0347V12.0283V12.022V12.0157V12.0093V12.0029V11.9966V11.9902V11.9838V11.9774V11.971V11.9645V11.9581V11.9516V11.9452V11.9387V11.9323V11.9258V11.9193V11.9128V11.9063V11.8997V11.8932V11.8867V11.8801V11.8735V11.867V11.8604V11.8538V11.8472V11.8406V11.834V11.8273V11.8207V11.8141V11.8074V11.8007V11.7941V11.7874V11.7807V11.774V11.7673V11.7605V11.7538V11.7471V11.7403V11.7336V11.7268V11.72V11.7132V11.7064V11.6996V11.6928V11.686V11.6792V11.6723V11.6655V11.6586V11.6518V11.6449V11.638V11.6311V11.6242V11.6173V11.6104V11.6034V11.5965V11.5895V11.5826V11.5756V11.5687V11.5617V11.5547V11.5477V11.5407V11.5337V11.5266V11.5196V11.5125V11.5055V11.4984V11.4914V11.4843V11.4772V11.4701V11.463V11.4559V11.4488V11.4416V11.4345V11.4274V11.4202V11.413V11.4059V11.3987V11.3915V11.3843V11.3771V11.3699V11.3627V11.3554V11.3482V11.341V11.3337V11.3265V11.3192V11.3119V11.3046V11.2973V11.29V11.2827V11.2754V11.2681V11.2607V11.2534V11.246V11.2387V11.2313V11.2239V11.2166V11.2092V11.2018V11.1944V11.187V11.1795V11.1721V11.1647V11.1572V11.1498V11.1423V11.1349V11.1274V11.1199V11.1124V11.1049V11.0974V11.0899V11.0824V11.0748V11.0673V11.0598V11.0522V11.0447V11.0371V11.0295V11.0219V11.0144V11.0068V10.9992V10.9915V10.9839V10.9763V10.9687V10.961V10.9534V10.9457V10.9381V10.9304V10.9227V10.9151V10.9074V10.8997V10.892V10.8843V10.8765V10.8688V10.8611V10.8533V10.8456V10.8378V10.8301V10.8223V10.8146V10.8068V10.799V10.7912V10.7834V10.7756V10.7678V10.7599V10.7521V10.7443V10.7364V10.7286V10.7207V10.7129V10.705V10.6971V10.6893V10.6814V10.6735V10.6656V10.6577V10.6497V10.6418V10.6339V10.626V10.618V10.6101V10.6021V10.5942V10.5862V10.5782V10.5703V10.5623V10.5543V10.5463V10.5383V10.5303V10.5222V10.5142V10.5062V10.4982V10.4901V10.4821V10.474V10.466V10.4579V10.4498V10.4417V10.4337V10.4256V10.4175V10.4094V10.4013V10.3931V10.385V10.3769V10.3688V10.3606V10.3525V10.3443V10.3362V10.328V10.3199V10.3117V10.3035V10.2953C3.71127 5.95576 7.2292 2.4375 11.5686 2.4375C15.9078 2.4375 19.426 5.957 19.426 10.2968V10.3047V10.3126V10.3205V10.3284V10.3363V10.3442V10.3521V10.36V10.3679V10.3758V10.3837V10.3915V10.3994V10.4072V10.4151V10.4229V10.4308V10.4386V10.4464V10.4543V10.4621V10.4699V10.4777V10.4855V10.4933V10.5011V10.5089V10.5166V10.5244V10.5322V10.54V10.5477V10.5555V10.5632V10.5709V10.5787V10.5864V10.5941V10.6019V10.6096V10.6173V10.625V10.6327V10.6404V10.648V10.6557V10.6634V10.6711V10.6787V10.6864V10.694V10.7017V10.7093V10.7169V10.7245V10.7322V10.7398V10.7474V10.755V10.7626V10.7702V10.7777V10.7853V10.7929V10.8005V10.808V10.8156V10.8231V10.8306V10.8382V10.8457V10.8532V10.8607V10.8683V10.8758V10.8832V10.8907V10.8982V10.9057V10.9132V10.9206V10.9281V10.9355V10.943V10.9504V10.9579V10.9653V10.9727V10.9801V10.9875V10.9949V11.0023V11.0097V11.0171V11.0244V11.0318V11.0392V11.0465V11.0539V11.0612V11.0685V11.0759V11.0832V11.0905V11.0978V11.1051V11.1124V11.1197V11.127V11.1342V11.1415V11.1488V11.156V11.1633V11.1705V11.1777V11.185V11.1922V11.1994V11.2066V11.2138V11.221V11.2281V11.2353V11.2425V11.2497V11.2568V11.264V11.2711V11.2782V11.2853V11.2925V11.2996V11.3067V11.3138V11.3209V11.3279V11.335V11.3421V11.3491V11.3562V11.3632V11.3703V11.3773V11.3843V11.3914V11.3984V11.4054V11.4124V11.4193V11.4263V11.4333V11.4403V11.4472V11.4542V11.4611V11.468V11.475V11.4819V11.4888V11.4957V11.5026V11.5095V11.5164V11.5232V11.5301V11.5369V11.5438V11.5506V11.5575V11.5643V11.5711V11.5779V11.5847V11.5915V11.5983V11.6051V11.6119V11.6186V11.6254V11.6321V11.6389V11.6456V11.6523V11.659V11.6657V11.6724V11.6791V11.6858V11.6925V11.6991V11.7058V11.7125V11.7191V11.7257V11.7324V11.739V11.7456V11.7522V11.7588V11.7654V11.7719V11.7785V11.7851V11.7916V11.7982V11.8047V11.8112V11.8177V11.8242V11.8307V11.8372V11.8437V11.8502V11.8567V11.8631V11.8696V11.876V11.8824V11.8889V11.8953V11.9017V11.9081V11.9145V11.9209V11.9272V11.9336V11.94V11.9463V11.9526V11.959V11.9653V11.9716V11.9779V11.9842V11.9905V11.9968V12.003V12.0093V12.0155V12.0218V12.028V12.0342V12.0404V12.0466V12.0528V12.059V12.0652V12.0714V12.0775V12.0837V12.0898V12.096V12.1021V12.1082V12.1143V12.1204V12.1265V12.1326V12.1386V12.1447V12.1507V12.1568V12.1628V12.1688V12.1748V12.1808V12.1868V12.1928V12.1988V12.2048V12.2107V12.2167V12.2226V12.2285V12.2345V12.2404V12.2463V12.2522V12.258V12.2639V12.2698V12.2756V12.2815V12.2873V12.2931V12.2989V12.3047V12.3105V12.3163V12.3221V12.3279V12.3336V12.3394V12.3451V12.3508V12.3565V12.3622V12.3679V12.3736V12.3793V12.385V12.3906V12.3963V12.4019V12.4075V12.4132V12.4188V12.4244V12.43V12.4355V12.4411V12.4467V12.4522V12.4577V12.4633V12.4688V12.4743V12.4798V12.4853V12.4908V12.4962V12.5017V12.5071V12.5126V12.518V12.5234V12.5288V12.5342V12.5396V12.545V12.5503V12.5557V12.561V12.5664V12.5717V12.577V12.5823V12.5876V12.5929V12.5981V12.6034V12.6086V12.6139V12.6191V12.6243V12.6295V12.6347V12.6399V12.6451V12.6502V12.6554V12.6605V12.6657V12.6708V12.6759V12.681V12.6861V12.6912V12.6962V12.7013V12.7063V12.7114V12.7164V12.7214V12.7264V12.7314V12.7364V12.7414V12.7463V12.7513V12.7562V12.7611V12.7661V12.771V12.7758V12.7807V12.7856V12.7905V12.7953V12.8001V12.805V12.8098V12.8146V12.8194V12.8242V12.8289V12.8337V12.8384V12.8432V12.8479V12.8526V12.8573V12.862V12.8667V12.8714V12.876V12.8807V12.8853V12.8899V12.8945V12.8991V12.9037V12.9083V12.9129V12.9174V12.922V12.9265V12.931V12.9355V12.94V12.9445V12.949V12.9534V12.9579V12.9623V12.9668V12.9712V12.9756V12.98V12.9843V12.9887V12.9931V12.9974V13.0017V13.0061V13.0104V13.0147V13.019V13.0232V13.0275V13.0317V13.036V13.0402V13.0444V13.0486V13.0528V13.057V13.0612V13.0653V13.0694V13.0736V13.0777V13.0818V13.0859V13.09V13.094V13.0981V13.1021V13.1062V13.1102V13.1142V13.1182V13.1222V13.1261V13.1301V13.134V13.138V13.1419V13.1458V13.1497V13.1536V13.1575V13.1613V13.1652V13.169V13.1728V13.1766V13.1804V13.1842V13.188V13.1917V13.1955V13.1992V13.2029V13.2067V13.2104V13.214V13.2177V13.2214V13.225V13.2286V13.2323V13.2359V13.2395V13.243V13.2466V13.2502V13.2537V13.2572V13.2608V13.2643V13.2678V13.2712V13.2747V13.2782V13.2816V13.285V13.2884V13.2918V13.2952V13.2986V13.302V13.3053V13.3086V13.312V13.3153V13.3186V13.3219V13.3251V13.3284V13.3316C19.426 14.448 19.6478 15.8838 19.855 16.9933C19.9063 17.2682 19.9576 17.5275 20.0058 17.7625H3.19613Z" stroke="black" stroke-width="2"/>
<path d="M8.35256 20.584C10.1568 22.3633 13.082 22.3633 14.8862 20.584" stroke="black" stroke-width="2"/>
</svg>
