<svg width="32" height="32" viewBox="0 0 32 32" fill="none" xmlns="http://www.w3.org/2000/svg">
<g id="applogo">
<rect id="Rectangle 19" width="32" height="32" rx="16" fill="#F2F3F5"/>
<path id="logoType" fill-rule="evenodd" clip-rule="evenodd" d="M10.6748 13.4583C9.71485 12.9 9.08789 11.9788 9.08789 10.9368C9.08789 9.23368 10.7629 7.85303 12.8292 7.85303C14.1655 7.85303 15.3382 8.43047 16 9.29914C16.6618 8.43047 17.8344 7.85303 19.1707 7.85303C21.237 7.85303 22.9121 9.23368 22.9121 10.9368C22.9121 11.9751 22.2895 12.8936 21.3352 13.4524C22.339 14.0213 23 14.9909 23 16.0913C23 17.1376 22.4025 18.0656 21.4809 18.6433C22.3524 19.2079 22.9121 20.0847 22.9121 21.0692C22.9121 22.7723 21.2371 24.153 19.1708 24.153C17.8345 24.153 16.6618 23.5755 16 22.7068C15.3382 23.5755 14.1655 24.153 12.8292 24.153C10.7629 24.153 9.08788 22.7723 9.08788 21.0692C9.08788 20.0812 9.65153 19.2018 10.5282 18.6374C9.60077 18.0593 9 17.1341 9 16.0913C9 14.9946 9.66455 14.0279 10.6748 13.4583Z" fill="#121212"/>
</g>
</svg>
