<svg width="113" height="112" viewBox="0 0 113 112" fill="none" xmlns="http://www.w3.org/2000/svg">
<path fill-rule="evenodd" clip-rule="evenodd" d="M44 80.049V66.625L27.3414 51.8173C27.1168 53.1782 27 54.5755 27 56C27 67.1029 34.0959 76.5484 44 80.049ZM78 56C78 60.6447 76.7582 64.9993 74.5886 68.75H65.25V60.25C65.25 57.9028 63.3472 56 61 56H44V49.625H48.25C50.5972 49.625 52.5 47.7222 52.5 45.375V39H71.5069C75.5447 43.5114 78 49.469 78 56ZM86.5 56C86.5 74.7777 71.2777 90 52.5 90C33.7223 90 18.5 74.7777 18.5 56C18.5 37.2223 33.7223 22 52.5 22C71.2777 22 86.5 37.2223 86.5 56Z" fill="#979AA5"/>
</svg>
