<svg width="113" height="112" viewBox="0 0 113 112" fill="none" xmlns="http://www.w3.org/2000/svg">
<path fill-rule="evenodd" clip-rule="evenodd" d="M54.5 17C45.7043 17 38.5741 24.1303 38.5741 32.9259V39.6667H33.2407C29.5179 39.6667 26.5 42.6846 26.5 46.4074V81.6666C26.5 85.3895 29.5179 88.4074 33.2407 88.4074H75.7593C79.4821 88.4074 82.5 85.3895 82.5 81.6666V46.4074C82.5 42.6846 79.4821 39.6667 75.7593 39.6667H70.4259V32.9259C70.4259 24.1303 63.2957 17 54.5 17ZM62.4259 39.6667V32.9259C62.4259 28.5485 58.8774 25 54.5 25C50.1226 25 46.5741 28.5485 46.5741 32.9259V39.6667H62.4259ZM49.3148 64.037C49.3148 61.1733 51.6363 58.8518 54.5 58.8518C57.3637 58.8518 59.6852 61.1733 59.6852 64.037C59.6852 66.9007 57.3637 69.2222 54.5 69.2222C51.6363 69.2222 49.3148 66.9007 49.3148 64.037Z" fill="#979AA5"/>
</svg>
