<svg width="16" height="16" viewBox="0 0 16 16" xmlns="http://www.w3.org/2000/svg">
    <g fill="none" fill-rule="evenodd">
        <circle fill="#E6E6E6" cx="8" cy="8" r="8"/>
        <path d="M8.926 4.3c0 .272-.099.507-.298.704a.973.973 0 0 1-.71.296.947.947 0 0 1-.701-.296.97.97 0 0 1-.29-.704.97.97 0 0 1 .29-.704.947.947 0 0 1 .701-.296c.285 0 .525.096.718.288.194.192.29.43.29.712zm.974 6.352V12H6.1v-1.348h1.174V7.657H6.1V6.302h2.655v4.35H9.9z" fill="#191919" fill-rule="nonzero"/>
    </g>
</svg>
