<svg width="80" height="80" viewBox="0 0 80 80" fill="none" xmlns="http://www.w3.org/2000/svg">
<g id="logo">
<rect id="Rectangle" width="80" height="80" rx="40" fill="#F2F3F5"/>
<path id="logoType" fill-rule="evenodd" clip-rule="evenodd" d="M26.6869 33.6457C24.2871 32.2501 22.7197 29.9469 22.7197 27.342C22.7197 23.0842 26.9074 19.6326 32.0731 19.6326C35.4138 19.6326 38.3455 21.0762 39.9999 23.2478C41.6544 21.0762 44.5861 19.6326 47.9268 19.6326C53.0925 19.6326 57.2802 23.0842 57.2802 27.342C57.2802 29.9378 55.7237 32.234 53.338 33.6311C55.8475 35.0532 57.5 37.4771 57.5 40.2283C57.5 42.844 56.0061 45.1639 53.7023 46.6083C55.881 48.0198 57.2803 50.2117 57.2803 52.673C57.2803 56.9308 53.0927 60.3824 47.9269 60.3824C44.5862 60.3824 41.6545 58.9388 40 56.7671C38.3455 58.9388 35.4138 60.3824 32.0731 60.3824C26.9073 60.3824 22.7197 56.9308 22.7197 52.673C22.7197 50.2031 24.1288 48.0045 26.3206 46.5935C24.0019 45.1482 22.5 42.8351 22.5 40.2283C22.5 37.4866 24.1614 35.0698 26.6869 33.6457Z" fill="#121212"/>
</g>
</svg>
