<svg width="18" height="18" viewBox="0 0 18 18" xmlns="http://www.w3.org/2000/svg">
    <defs>
        <filter x="-10.1%" y="-10.8%" width="120.1%" height="143.3%" filterUnits="objectBoundingBox" id="5z0rsr7uwa">
            <feOffset dy="1" in="SourceAlpha" result="shadowOffsetOuter1"/>
            <feGaussianBlur stdDeviation=".5" in="shadowOffsetOuter1" result="shadowBlurOuter1"/>
            <feColorMatrix values="0 0 0 0 0 0 0 0 0 0 0 0 0 0 0 0 0 0 0.12 0" in="shadowBlurOuter1" result="shadowMatrixOuter1"/>
            <feMerge>
                <feMergeNode in="shadowMatrixOuter1"/>
                <feMergeNode in="SourceGraphic"/>
            </feMerge>
        </filter>
    </defs>
    <g fill="none" fill-rule="evenodd">
        <path d="M0 0h18v18H0z"/>
        <path d="M15.9 4.992V15.8a.897.897 0 0 1-.9.9H3a.897.897 0 0 1-.9-.9V4.992h13.8z" stroke-opacity=".08" stroke="#111D46" stroke-width=".6" fill="#7A8194"/>
        <g filter="url(#5z0rsr7uwa)" transform="translate(0 1)">
            <path d="M6 0h6v6.23a3 3 0 0 1-6 0V0z" fill="#00B657"/>
            <path d="M1.725 0H6v6.23a3 3 0 0 1-3 3A2.811 2.811 0 0 1 .195 6.238l.332-5.115A1.2 1.2 0 0 1 1.725 0z" fill="#FE5D5D"/>
            <path d="M12 0h4.275a1.2 1.2 0 0 1 1.198 1.122l.332 5.115A2.811 2.811 0 0 1 15 9.231a3 3 0 0 1-3-3V0z" fill="#4355E4"/>
        </g>
    </g>
</svg>
