<svg width="24" height="24" viewBox="0 0 24 24" fill="none" xmlns="http://www.w3.org/2000/svg">
<g id="menuIcon">
<g id="icon" filter="url(#filter0_d_1_2462)">
<path fill-rule="evenodd" clip-rule="evenodd" d="M8.00005 12C8.00005 12.8837 7.2837 13.6 6.40005 13.6C5.51639 13.6 4.80005 12.8837 4.80005 12C4.80005 11.1164 5.51639 10.4 6.40005 10.4C7.2837 10.4 8.00005 11.1164 8.00005 12ZM14.2 12C14.2 12.8837 13.4837 13.6 12.6 13.6C11.7164 13.6 11 12.8837 11 12C11 11.1164 11.7164 10.4 12.6 10.4C13.4837 10.4 14.2 11.1164 14.2 12ZM18.8 13.6C19.6837 13.6 20.4 12.8837 20.4 12C20.4 11.1164 19.6837 10.4 18.8 10.4C17.9164 10.4 17.2 11.1164 17.2 12C17.2 12.8837 17.9164 13.6 18.8 13.6Z" fill="white"/>
</g>
</g>
<defs>
<filter id="filter0_d_1_2462" x="4.80005" y="10.4" width="15.6" height="4.20001" filterUnits="userSpaceOnUse" color-interpolation-filters="sRGB">
<feFlood flood-opacity="0" result="BackgroundImageFix"/>
<feColorMatrix in="SourceAlpha" type="matrix" values="0 0 0 0 0 0 0 0 0 0 0 0 0 0 0 0 0 0 127 0" result="hardAlpha"/>
<feOffset dy="1"/>
<feComposite in2="hardAlpha" operator="out"/>
<feColorMatrix type="matrix" values="0 0 0 0 0 0 0 0 0 0 0 0 0 0 0 0 0 0 0.3 0"/>
<feBlend mode="normal" in2="BackgroundImageFix" result="effect1_dropShadow_1_2462"/>
<feBlend mode="normal" in="SourceGraphic" in2="effect1_dropShadow_1_2462" result="shape"/>
</filter>
</defs>
</svg>
