<svg width="24" height="24" viewBox="0 0 24 24" fill="none" xmlns="http://www.w3.org/2000/svg">
<g id="menuButton">
<path id="icon" fill-rule="evenodd" clip-rule="evenodd" d="M8.00005 7.6C8.00005 8.48366 7.2837 9.2 6.40005 9.2C5.51639 9.2 4.80005 8.48366 4.80005 7.6C4.80005 6.71634 5.51639 6 6.40005 6C7.2837 6 8.00005 6.71634 8.00005 7.6ZM13.6001 7.6C13.6001 8.48366 12.8837 9.2 12.0001 9.2C11.1164 9.2 10.4001 8.48366 10.4001 7.6C10.4001 6.71634 11.1164 6 12.0001 6C12.8837 6 13.6001 6.71634 13.6001 7.6ZM17.6001 9.2C18.4837 9.2 19.2001 8.48366 19.2001 7.6C19.2001 6.71634 18.4837 6 17.6001 6C16.7164 6 16.0001 6.71634 16.0001 7.6C16.0001 8.48366 16.7164 9.2 17.6001 9.2Z" fill="black"/>
</g>
</svg>
