<svg width="343" height="254" viewBox="0 0 343 254" fill="none" xmlns="http://www.w3.org/2000/svg">
<g clip-path="url(#clip0_258_2135)">
<path d="M66.9533 50.194C81.1011 46.4031 95.6229 54.7873 99.4138 68.9351L120.823 148.836C127.43 173.494 112.733 198.95 88.0757 205.557L81.6082 207.29L48.2122 82.6545C44.4214 68.5067 52.8055 53.9849 66.9533 50.194Z" fill="url(#paint0_linear_258_2135)"/>
<path d="M135.104 150.765L131.509 145.117C117.801 123.582 124.173 94.8875 145.707 81.1792L185.245 56.0098C197.601 48.1443 213.971 51.7794 221.836 64.1352C229.702 76.4909 226.067 92.8605 213.711 100.726L135.104 150.765Z" fill="url(#paint1_linear_258_2135)"/>
<path d="M6.40961 249.136L-0.0579455 247.403L47.9239 68.3326C51.7147 54.1848 66.2365 45.8007 80.3843 49.5916C94.5321 53.3825 102.916 67.9042 99.1254 82.052L63.13 216.389C56.523 241.046 31.0672 255.743 6.40961 249.136Z" fill="url(#paint2_linear_258_2135)"/>
<path d="M133.163 252.1L126.695 250.367L174.677 71.2965C178.468 57.1487 192.989 48.7646 207.137 52.5554C221.285 56.3463 229.669 70.8681 225.878 85.0159L189.847 219.487C183.24 244.145 157.784 258.842 133.126 252.235L133.163 252.1Z" fill="url(#paint3_linear_258_2135)"/>
<path d="M171.441 233.103C177.16 227.663 194.458 211.342 203.246 202.554C203.246 202.554 205.199 162.938 240.63 130.575C240.63 130.575 238.398 148.291 239.933 149.825C241.467 151.36 241.327 146.756 241.327 146.756C241.327 146.756 243.141 124.577 255.835 111.883C268.529 99.1889 275.225 94.0276 278.851 88.5874C282.478 83.1471 278.014 106.443 280.107 108.535C282.199 110.627 284.571 83.7051 290.29 70.5927C297.125 54.8298 301.728 38.509 285.826 13.5396C285.408 12.9817 286.105 12.2842 286.803 12.7027C292.801 17.1665 306.192 31.5343 314.841 65.8499C328.511 119.555 284.431 155.265 254.021 175.771C242.164 183.722 232.121 189.581 223.891 195.3C219.148 198.648 208.407 204.088 203.246 208.831C201.851 210.087 206.315 208.273 210.22 206.46C214.126 204.646 248.442 185.815 261.415 175.492C274.388 165.17 370.499 114.394 288.616 0.706188C288.337 0.287706 288.895 -0.27027 289.313 0.148212C302.844 11.3077 362.408 65.0129 328.232 115.091C328.232 115.091 328.79 119.416 341.484 100.026C341.763 99.4679 342.6 99.7469 342.461 100.444C341.066 111.325 331.999 157.497 283.734 169.215C283.734 169.215 281.223 176.469 315.12 159.171C315.817 158.892 316.515 159.59 316.096 160.148C310.796 169.215 286.803 204.088 237.282 203.949C237.282 203.949 219.566 212.737 210.918 210.226C210.918 210.226 181.764 230.034 172.139 234.219C171.581 234.498 171.023 233.661 171.441 233.243V233.103Z" fill="url(#paint4_linear_258_2135)"/>
</g>
<defs>
<linearGradient id="paint0_linear_258_2135" x1="84.8706" y1="207.103" x2="84.8706" y2="125.545" gradientUnits="userSpaceOnUse">
<stop stop-color="#F4C2B7"/>
<stop offset="1" stop-color="#ECBFC2"/>
</linearGradient>
<linearGradient id="paint1_linear_258_2135" x1="124.31" y1="101.399" x2="225.862" y2="101.399" gradientUnits="userSpaceOnUse">
<stop stop-color="#E4D7E1"/>
<stop offset="1" stop-color="#D8E1F3"/>
</linearGradient>
<linearGradient id="paint2_linear_258_2135" x1="50.02" y1="250.691" x2="50.02" y2="48.704" gradientUnits="userSpaceOnUse">
<stop stop-color="#F37880"/>
<stop offset="1" stop-color="#ECBFC2"/>
</linearGradient>
<linearGradient id="paint3_linear_258_2135" x1="176.69" y1="253.71" x2="176.69" y2="51.723" gradientUnits="userSpaceOnUse">
<stop stop-color="#B5E0F8"/>
<stop offset="0.855" stop-color="#DEDCEB"/>
</linearGradient>
<linearGradient id="paint4_linear_258_2135" x1="256.951" y1="234.219" x2="256.951" y2="0.00871106" gradientUnits="userSpaceOnUse">
<stop offset="0.375" stop-color="#B5E0F8"/>
<stop offset="1" stop-color="#E6F7CD"/>
</linearGradient>
<clipPath id="clip0_258_2135">
<rect width="342.458" height="253.6" fill="white"/>
</clipPath>
</defs>
</svg>
