<svg width="24" height="24" viewBox="0 0 24 24" fill="none" xmlns="http://www.w3.org/2000/svg">
<g id="Frame">
<path id="Union" fill-rule="evenodd" clip-rule="evenodd" d="M7.5 5.5C7.5 3.01472 9.51472 1 12 1C14.4853 1 16.5 3.01472 16.5 5.5C16.5 7.98528 14.4853 10 12 10C9.51472 10 7.5 7.98528 7.5 5.5ZM14.5 12.2H8.25C5.62665 12.2 3.5 14.3266 3.5 16.95C3.5 18.6457 4.38862 20.1339 5.7256 20.9744L14.5 12.2ZM11 21.7H15.75C18.3734 21.7 20.5 19.5733 20.5 16.95C20.5 15.6383 19.9683 14.4508 19.1088 13.5912L11 21.7ZM18.7319 10.0757L5.73193 23.0757L6.58046 23.9243L19.5805 10.9243L18.7319 10.0757Z" fill="black"/>
</g>
</svg>
