<svg width="27" height="24" viewBox="0 0 27 24" fill="none" xmlns="http://www.w3.org/2000/svg">
<g id="icon">
<path id="Union" fill-rule="evenodd" clip-rule="evenodd" d="M12 2C9.51472 2 7.5 4.01472 7.5 6.5C7.5 8.98528 9.51472 11 12 11C14.4853 11 16.5 8.98528 16.5 6.5C16.5 4.01472 14.4853 2 12 2ZM8 12.6C5.51472 12.6 3.5 14.6147 3.5 17.1C3.5 19.5853 5.51472 21.6 8 21.6H16C18.4853 21.6 20.5 19.5853 20.5 17.1C20.5 14.6147 18.4853 12.6 16 12.6H8Z" fill="black"/>
<g id="Union_2">
<mask id="path-2-outside-1_562_4683" maskUnits="userSpaceOnUse" x="15.375" y="7.6875" width="12" height="12" fill="black">
<rect fill="white" x="15.375" y="7.6875" width="12" height="12"/>
<path fill-rule="evenodd" clip-rule="evenodd" d="M22.125 12.9375V9.6875H20.625V12.9375H17.375V14.4375H20.625V17.6875H22.125V14.4375H25.375V12.9375H22.125Z"/>
</mask>
<path fill-rule="evenodd" clip-rule="evenodd" d="M22.125 12.9375V9.6875H20.625V12.9375H17.375V14.4375H20.625V17.6875H22.125V14.4375H25.375V12.9375H22.125Z" fill="black"/>
<path d="M22.125 9.6875H23.625V8.1875H22.125V9.6875ZM22.125 12.9375H20.625V14.4375H22.125V12.9375ZM20.625 9.6875V8.1875H19.125V9.6875H20.625ZM20.625 12.9375V14.4375H22.125V12.9375H20.625ZM17.375 12.9375V11.4375H15.875V12.9375H17.375ZM17.375 14.4375H15.875V15.9375H17.375V14.4375ZM20.625 14.4375H22.125V12.9375H20.625V14.4375ZM20.625 17.6875H19.125V19.1875H20.625V17.6875ZM22.125 17.6875V19.1875H23.625V17.6875H22.125ZM22.125 14.4375V12.9375H20.625V14.4375H22.125ZM25.375 14.4375V15.9375H26.875V14.4375H25.375ZM25.375 12.9375H26.875V11.4375H25.375V12.9375ZM20.625 9.6875V12.9375H23.625V9.6875H20.625ZM20.625 11.1875H22.125V8.1875H20.625V11.1875ZM22.125 12.9375V9.6875H19.125V12.9375H22.125ZM17.375 14.4375H20.625V11.4375H17.375V14.4375ZM18.875 14.4375V12.9375H15.875V14.4375H18.875ZM20.625 12.9375H17.375V15.9375H20.625V12.9375ZM22.125 17.6875V14.4375H19.125V17.6875H22.125ZM22.125 16.1875H20.625V19.1875H22.125V16.1875ZM20.625 14.4375V17.6875H23.625V14.4375H20.625ZM25.375 12.9375H22.125V15.9375H25.375V12.9375ZM23.875 12.9375V14.4375H26.875V12.9375H23.875ZM22.125 14.4375H25.375V11.4375H22.125V14.4375Z" fill="white" mask="url(#path-2-outside-1_562_4683)"/>
</g>
</g>
</svg>
