<svg width="1440" height="960" viewBox="0 0 1440 960" fill="none" xmlns="http://www.w3.org/2000/svg">
<g filter="url(#filter0_f_206_149)">
<ellipse cx="18.3321" cy="365.6" rx="528.517" ry="478.013" transform="rotate(-64.6771 18.3321 365.6)" fill="#B0C0E8"/>
</g>
<g filter="url(#filter1_f_206_149)">
<ellipse cx="335.392" cy="246.379" rx="553.23" ry="493.123" transform="rotate(-64.6771 335.392 246.379)" fill="#F87980"/>
</g>
<g filter="url(#filter2_f_206_149)">
<ellipse cx="120.84" cy="1027.95" rx="542.62" ry="591.584" transform="rotate(-66.0678 120.84 1027.95)" fill="#B0D2E8" fill-opacity="0.5"/>
</g>
<g filter="url(#filter3_f_206_149)">
<ellipse cx="1043.47" cy="876.944" rx="553" ry="573" transform="rotate(-64.6771 1043.47 876.944)" fill="#E8B0C2"/>
</g>
<g filter="url(#filter4_f_206_149)">
<ellipse cx="1043.05" cy="239.073" rx="568.992" ry="546.677" transform="rotate(-64.6771 1043.05 239.073)" fill="#F87980" fill-opacity="0.5"/>
</g>
<path d="M191.56 226.88V240.896H197.704V221.184H203.912V274.368H197.704V246.336H191.56V261.824H168.776V226.88H191.56ZM214.984 277.056H208.648V220.032H214.984V277.056ZM185.416 256.704V232.064H174.984V256.704H185.416ZM249.495 241.344V246.464H231.063V258.624C241.09 258.624 248.919 258.027 254.551 256.832L255.447 261.952C249.73 263.189 241.452 263.851 230.615 263.936L224.599 264V225.152H250.711V230.336H231.063V241.344H249.495ZM275.095 247.296H266.519V277.056H259.991V220.032H266.519V241.792H275.095V247.296ZM324.582 261.376H318.054V220.032H324.582V261.376ZM325.926 275.392H286.886V257.472H293.414V270.144H325.926V275.392ZM304.486 228.16C307.217 230.763 308.582 234.112 308.582 238.208C308.582 242.304 307.217 245.653 304.486 248.256C301.798 250.859 298.299 252.16 293.99 252.16C289.638 252.16 286.097 250.859 283.366 248.256C280.635 245.653 279.27 242.325 279.27 238.272C279.27 234.176 280.635 230.827 283.366 228.224C286.097 225.579 289.638 224.256 293.99 224.256C298.299 224.256 301.798 225.557 304.486 228.16ZM302.054 238.208C302.054 235.691 301.329 233.643 299.878 232.064C298.427 230.485 296.465 229.696 293.99 229.696C291.601 229.696 289.638 230.507 288.102 232.128C286.609 233.707 285.862 235.733 285.862 238.208C285.862 240.597 286.609 242.603 288.102 244.224C289.638 245.803 291.601 246.592 293.99 246.592C296.422 246.592 298.363 245.803 299.814 244.224C301.307 242.603 302.054 240.597 302.054 238.208ZM368.693 258.496L364.853 263.296C362.08 261.76 359.264 259.392 356.405 256.192C353.546 252.992 351.669 249.984 350.773 247.168C350.005 250.325 348.298 253.568 345.653 256.896C343.05 260.181 340.085 262.699 336.757 264.448L332.597 259.648C337.248 257.045 340.874 253.547 343.477 249.152C346.08 244.715 347.381 239.659 347.381 233.984V231.168H335.477V225.984H365.749V231.168H354.165V233.92C354.165 239.467 355.488 244.352 358.133 248.576C360.778 252.8 364.298 256.107 368.693 258.496ZM380.021 277.056H373.493V220.032H380.021V277.056Z" fill="white"/>
<path d="M541.832 261.376H535.304V220.032H541.832V261.376ZM543.176 275.392H504.136V257.472H510.664V270.144H543.176V275.392ZM521.736 228.16C524.467 230.763 525.832 234.112 525.832 238.208C525.832 242.304 524.467 245.653 521.736 248.256C519.048 250.859 515.549 252.16 511.24 252.16C506.888 252.16 503.347 250.859 500.616 248.256C497.885 245.653 496.52 242.325 496.52 238.272C496.52 234.176 497.885 230.827 500.616 228.224C503.347 225.579 506.888 224.256 511.24 224.256C515.549 224.256 519.048 225.557 521.736 228.16ZM519.304 238.208C519.304 235.691 518.579 233.643 517.128 232.064C515.677 230.485 513.715 229.696 511.24 229.696C508.851 229.696 506.888 230.507 505.352 232.128C503.859 233.707 503.112 235.733 503.112 238.208C503.112 240.597 503.859 242.603 505.352 244.224C506.888 245.803 508.851 246.592 511.24 246.592C513.672 246.592 515.613 245.803 517.064 244.224C518.557 242.603 519.304 240.597 519.304 238.208ZM585.943 258.496L582.103 263.296C579.33 261.76 576.514 259.392 573.655 256.192C570.796 252.992 568.919 249.984 568.023 247.168C567.255 250.325 565.548 253.568 562.903 256.896C560.3 260.181 557.335 262.699 554.007 264.448L549.847 259.648C554.498 257.045 558.124 253.547 560.727 249.152C563.33 244.715 564.631 239.659 564.631 233.984V231.168H552.727V225.984H582.999V231.168H571.415V233.92C571.415 239.467 572.738 244.352 575.383 248.576C578.028 252.8 581.548 256.107 585.943 258.496ZM597.271 277.056H590.743V220.032H597.271V277.056ZM669.395 277.056H662.867V220.032H669.395V277.056ZM628.051 258.944C625.448 255.317 624.147 250.475 624.147 244.416C624.147 238.357 625.448 233.515 628.051 229.888C630.653 226.261 634.216 224.448 638.739 224.448C643.261 224.448 646.803 226.261 649.363 229.888C651.923 233.515 653.203 238.379 653.203 244.48C653.203 250.539 651.923 255.381 649.363 259.008C646.803 262.592 643.261 264.384 638.739 264.384C634.216 264.384 630.653 262.571 628.051 258.944ZM644.691 255.168C646.227 252.523 646.995 248.939 646.995 244.416C646.995 239.893 646.227 236.331 644.691 233.728C643.197 231.125 641.213 229.824 638.739 229.824C636.307 229.824 634.344 231.125 632.851 233.728C631.357 236.331 630.611 239.893 630.611 244.416C630.611 248.939 631.357 252.523 632.851 255.168C634.344 257.771 636.307 259.072 638.739 259.072C641.213 259.072 643.197 257.771 644.691 255.168ZM730.53 239.296H722.146V253.76H715.554V220.032H722.146V233.856H730.53V239.296ZM722.914 265.728C722.914 269.184 721.186 271.936 717.73 273.984C714.316 276.032 709.58 277.056 703.522 277.056C697.506 277.056 692.791 276.032 689.378 273.984C685.964 271.936 684.258 269.184 684.258 265.728C684.258 262.229 685.964 259.456 689.378 257.408C692.791 255.36 697.506 254.336 703.522 254.336C709.58 254.336 714.316 255.36 717.73 257.408C721.186 259.456 722.914 262.229 722.914 265.728ZM716.194 265.728C716.194 263.808 715.084 262.315 712.866 261.248C710.647 260.181 707.532 259.648 703.522 259.648C699.554 259.648 696.46 260.181 694.242 261.248C692.066 262.315 690.978 263.808 690.978 265.728C690.978 267.605 692.066 269.077 694.242 270.144C696.46 271.211 699.554 271.744 703.522 271.744C707.532 271.744 710.647 271.211 712.866 270.144C715.084 269.077 716.194 267.605 716.194 265.728ZM710.882 245.376L707.106 250.496C704.588 249.429 702.071 247.787 699.554 245.568C697.079 243.307 695.266 240.896 694.114 238.336C693.303 241.195 691.618 243.883 689.058 246.4C686.498 248.875 683.703 250.752 680.674 252.032L676.642 246.848C680.866 245.141 684.258 242.645 686.818 239.36C689.378 236.032 690.658 232.235 690.658 227.968V222.528H697.442V227.648C697.442 231.829 698.786 235.541 701.474 238.784C704.204 242.027 707.34 244.224 710.882 245.376ZM766.129 238.144C766.129 242.027 764.699 245.163 761.841 247.552C759.025 249.941 755.483 251.136 751.217 251.136C746.993 251.136 743.494 249.941 740.72 247.552C737.99 245.12 736.625 241.984 736.625 238.144C736.625 234.219 738.011 230.976 740.785 228.416C743.601 225.813 747.078 224.512 751.217 224.512C755.483 224.512 759.025 225.792 761.841 228.352C764.699 230.912 766.129 234.176 766.129 238.144ZM759.537 238.08C759.537 235.691 758.747 233.771 757.169 232.32C755.59 230.869 753.606 230.144 751.217 230.144C748.955 230.144 747.014 230.891 745.393 232.384C743.814 233.877 743.025 235.776 743.025 238.08C743.025 240.299 743.814 242.112 745.393 243.52C747.014 244.885 748.955 245.568 751.217 245.568C753.521 245.568 755.483 244.885 757.105 243.52C758.726 242.112 759.537 240.299 759.537 238.08ZM780.913 220.032V277.056H774.385V220.032H780.913ZM771.185 257.216L771.697 262.464C760.262 263.701 747.633 264.363 733.809 264.448L732.785 258.816C740.337 258.901 746.651 258.795 751.729 258.496C759.409 258.197 765.894 257.771 771.185 257.216ZM852.332 257.792H845.804V241.024H834.54V235.584H845.804V220.032H852.332V257.792ZM834.412 224.576C834.113 232.128 831.724 238.528 827.244 243.776C822.807 248.981 816.748 252.843 809.068 255.36L805.548 250.048C811.137 248.768 816.001 246.272 820.14 242.56C824.279 238.848 826.668 234.688 827.308 230.08H808.364V224.576H834.412ZM855.34 272.512L852.14 277.696C848.343 276.971 844.609 275.371 840.94 272.896C837.271 270.421 834.753 267.883 833.388 265.28C832.279 267.968 829.889 270.528 826.22 272.96C822.551 275.435 818.689 276.992 814.636 277.632L811.5 272.448C816.321 271.893 820.631 270.123 824.428 267.136C828.225 264.149 830.124 260.693 830.124 256.768V254.656H836.972V256.768C836.972 260.608 838.849 264 842.604 266.944C846.359 269.888 850.604 271.744 855.34 272.512Z" fill="white"/>
<path d="M414.52 244.224V234.624H425.016V244.224H414.52ZM411.704 273.856L414.456 259.712H425.208L420.024 273.856H411.704Z" fill="white"/>
<path d="M219.976 349.488H211.144V379.056H204.616V322.032H211.144V344.048H219.976V349.488ZM200.392 361.904C193.736 363.525 185.309 364.379 175.112 364.464L169.224 364.528V327.856H175.688V358.96C185.501 358.96 193.437 358.149 199.496 356.528L200.392 361.904ZM255.191 340.144C255.191 344.027 253.762 347.163 250.903 349.552C248.087 351.941 244.546 353.136 240.279 353.136C236.055 353.136 232.556 351.941 229.783 349.552C227.052 347.12 225.687 343.984 225.687 340.144C225.687 336.219 227.074 332.976 229.847 330.416C232.663 327.813 236.14 326.512 240.279 326.512C244.546 326.512 248.087 327.792 250.903 330.352C253.762 332.912 255.191 336.176 255.191 340.144ZM248.599 340.08C248.599 337.691 247.81 335.771 246.231 334.32C244.652 332.869 242.668 332.144 240.279 332.144C238.018 332.144 236.076 332.891 234.455 334.384C232.876 335.877 232.087 337.776 232.087 340.08C232.087 342.299 232.876 344.112 234.455 345.52C236.076 346.885 238.018 347.568 240.279 347.568C242.583 347.568 244.546 346.885 246.167 345.52C247.788 344.112 248.599 342.299 248.599 340.08ZM269.975 322.032V379.056H263.447V322.032H269.975ZM260.247 359.216L260.759 364.464C249.324 365.701 236.695 366.363 222.871 366.448L221.847 360.816C229.399 360.901 235.714 360.795 240.791 360.496C248.471 360.197 254.956 359.771 260.247 359.216ZM343.123 367.792C343.123 371.205 341.373 373.915 337.875 375.92C334.376 377.968 329.555 378.992 323.411 378.992C317.309 378.992 312.509 377.968 309.01 375.92C305.512 373.915 303.763 371.205 303.763 367.792C303.763 364.336 305.512 361.584 309.01 359.536C312.509 357.488 317.309 356.464 323.411 356.464C329.555 356.464 334.376 357.488 337.875 359.536C341.373 361.584 343.123 364.336 343.123 367.792ZM342.547 356.784H336.275V341.808H330.771V354.352H324.562V323.056H330.771V336.304H336.275V322.032H342.547V356.784ZM323.155 347.952L319.827 352.816C317.779 351.877 315.645 350.363 313.427 348.272C311.251 346.181 309.8 344.197 309.075 342.32C308.307 344.624 306.877 346.949 304.787 349.296C302.696 351.6 300.413 353.371 297.939 354.608L294.163 350C297.661 348.08 300.456 345.541 302.547 342.384C304.68 339.227 305.747 335.685 305.747 331.76V325.552H312.083V331.568C312.083 335.365 313.149 338.672 315.283 341.488C317.459 344.261 320.083 346.416 323.155 347.952ZM336.339 367.792C336.339 365.915 335.187 364.464 332.883 363.44C330.579 362.373 327.421 361.84 323.411 361.84C319.4 361.84 316.243 362.373 313.939 363.44C311.677 364.464 310.547 365.915 310.547 367.792C310.547 369.627 311.677 371.077 313.939 372.144C316.243 373.211 319.4 373.744 323.411 373.744C327.421 373.744 330.579 373.211 332.883 372.144C335.187 371.077 336.339 369.627 336.339 367.792ZM402.53 341.296H394.146V355.696H387.554V322.032H394.146V335.792H402.53V341.296ZM378.274 325.68C378.103 333.189 375.714 339.397 371.106 344.304C366.54 349.211 360.375 352.603 352.61 354.48L349.282 349.36C354.658 348.336 359.436 346.203 363.618 342.96C367.799 339.717 370.274 335.771 371.042 331.12H352.034V325.68H378.274ZM394.21 379.248H387.618V363.632H356.642V358.448H394.21V379.248ZM456.753 351.344H405.233V346.096H456.753V351.344ZM452.017 378.672H411.825V364.592H443.312V360.624H411.505V355.44H449.905V369.392H418.353V373.488H452.017V378.672ZM431.089 322.352C437.318 322.352 442.182 323.291 445.681 325.168C449.179 327.003 450.929 329.456 450.929 332.528C450.929 335.6 449.179 338.053 445.681 339.888C442.182 341.723 437.318 342.64 431.089 342.64C424.902 342.64 420.059 341.723 416.561 339.888C413.105 338.053 411.377 335.6 411.377 332.528C411.377 329.456 413.105 327.003 416.561 325.168C420.059 323.291 424.902 322.352 431.089 322.352ZM440.689 328.816C438.385 327.877 435.185 327.408 431.089 327.408C426.993 327.408 423.793 327.877 421.489 328.816C419.185 329.712 418.033 330.949 418.033 332.528C418.033 334.064 419.185 335.28 421.489 336.176C423.793 337.072 426.993 337.52 431.089 337.52C435.185 337.52 438.385 337.072 440.689 336.176C443.035 335.28 444.209 334.064 444.209 332.528C444.209 330.949 443.035 329.712 440.689 328.816ZM489.068 334.512L490.028 350C491.052 350 492.503 349.957 494.38 349.872C495.148 349.872 496.257 349.829 497.708 349.744L498.604 334.512L504.94 335.28L503.468 349.488C506.881 349.275 509.569 349.019 511.532 348.72L512.108 353.712C507.927 354.395 501.932 354.928 494.124 355.312C487.681 355.611 482.135 355.76 477.484 355.76L476.524 350.256C479.937 350.256 482.455 350.235 484.076 350.192L482.668 335.28L489.068 334.512ZM530.156 343.792H521.708V363.44H515.116V322.032H521.708V338.288H530.156V343.792ZM523.436 377.264H485.164V359.728H491.756V371.952H523.436V377.264ZM509.676 331.952H478.316V326.704H509.676V331.952ZM585.403 343.344H577.083V363.248H570.491V322.032H577.083V337.84H585.403V343.344ZM578.747 377.264H540.987V359.344H547.515V371.952H578.747V377.264ZM564.411 346.224L565.435 351.344C559.334 352.667 551.099 353.328 540.731 353.328H534.779V326.896H560.059V332.144H541.307V348.016C551.248 348.016 558.95 347.419 564.411 346.224ZM617.994 355.568C617.994 359.024 616.735 361.925 614.218 364.272C611.701 366.576 608.437 367.728 604.426 367.728C600.373 367.728 597.066 366.597 594.506 364.336C591.989 362.032 590.73 359.109 590.73 355.568C590.73 352.112 591.989 349.232 594.506 346.928C597.066 344.581 600.373 343.408 604.426 343.408C608.437 343.408 611.701 344.56 614.218 346.864C616.735 349.125 617.994 352.027 617.994 355.568ZM609.61 360.496C610.89 359.216 611.53 357.573 611.53 355.568C611.53 353.563 610.847 351.941 609.482 350.704C608.159 349.424 606.474 348.784 604.426 348.784C602.335 348.784 600.629 349.424 599.306 350.704C597.983 351.941 597.322 353.563 597.322 355.568C597.322 357.573 597.983 359.216 599.306 360.496C600.629 361.733 602.335 362.352 604.426 362.352C606.602 362.352 608.33 361.733 609.61 360.496ZM620.874 340.656H587.722V335.344H620.874V340.656ZM595.786 330.736V325.36H613.066V330.736H595.786ZM632.458 322.032V345.456H641.29V350.96H632.458V379.056H625.866V322.032H632.458ZM695.065 355.76H643.545V350.448H695.065V355.76ZM688.729 343.472H650.521V323.888H657.113V338.224H688.729V343.472ZM689.113 377.52H650.201V360.752H656.793V372.272H689.113V377.52ZM767.253 353.136H715.733V347.824H767.253V353.136ZM760.917 342.064H722.709V323.12H729.301V336.752H760.917V342.064ZM756.117 360.752C759.615 362.672 761.365 365.253 761.365 368.496C761.365 371.739 759.615 374.32 756.117 376.24C752.661 378.16 747.797 379.12 741.525 379.12C735.295 379.12 730.431 378.16 726.933 376.24C723.477 374.32 721.749 371.739 721.749 368.496C721.749 365.253 723.477 362.672 726.933 360.752C730.389 358.832 735.231 357.872 741.461 357.872C747.775 357.872 752.661 358.832 756.117 360.752ZM754.581 368.56C754.581 366.853 753.407 365.531 751.061 364.592C748.757 363.653 745.557 363.184 741.461 363.184C737.45 363.184 734.271 363.675 731.925 364.656C729.578 365.595 728.405 366.896 728.405 368.56C728.405 370.224 729.557 371.525 731.861 372.464C734.207 373.403 737.407 373.872 741.461 373.872C745.557 373.872 748.757 373.403 751.061 372.464C753.407 371.525 754.581 370.224 754.581 368.56ZM800.548 347.632L801.38 352.752C796.43 353.733 789.54 354.224 780.708 354.224H773.284V336.56H791.716V330.352H773.22V325.232H798.244V341.616H779.812V348.976C789.028 348.976 795.94 348.528 800.548 347.632ZM802.34 335.28V329.968H811.492V322.032H818.02V356.464H811.492V347.312H802.34V342H811.492V335.28H802.34ZM779.364 359.6H818.084V379.184H811.556V364.848H779.364V359.6Z" fill="white"/>
<path d="M275.28 491.528H271.248V477.48H268.944V490.216H265.008V463.496H268.944V474.088H271.248V463.016H275.28V491.528ZM264.112 483.208C263.344 483.443 261.968 483.645 259.984 483.816C258 483.965 256.112 484.04 254.32 484.04H252.048V466.28H256.272V480.552H256.848C259.301 480.552 261.563 480.328 263.632 479.88L264.112 483.208ZM305.016 477.256H300.92V491.528H296.696V463.016H300.92V473.768H305.016V477.256ZM293.528 465.96C293.4 470.376 292.322 474.312 290.296 477.768C288.29 481.224 285.069 484.168 280.632 486.6L278.264 483.272C281.314 481.843 283.8 479.88 285.72 477.384C287.64 474.867 288.749 472.221 289.048 469.448H279.992V465.96H293.528ZM337.141 463.016V473.768H341.109V477.224H337.141V491.528H332.917V463.016H337.141ZM314.837 475.144C314.837 472.093 315.509 469.619 316.853 467.72C318.219 465.8 320.053 464.84 322.357 464.84C324.661 464.84 326.485 465.8 327.829 467.72C329.195 469.619 329.877 472.093 329.877 475.144C329.877 478.131 329.195 480.584 327.829 482.504C326.485 484.403 324.661 485.352 322.357 485.352C320.053 485.352 318.219 484.403 316.853 482.504C315.509 480.605 314.837 478.152 314.837 475.144ZM325.877 475.144C325.877 473.032 325.557 471.411 324.917 470.28C324.277 469.149 323.424 468.584 322.357 468.584C321.333 468.584 320.501 469.149 319.861 470.28C319.243 471.411 318.933 473.032 318.933 475.144C318.933 477.213 319.253 478.824 319.893 479.976C320.533 481.107 321.355 481.672 322.357 481.672C323.424 481.672 324.277 481.107 324.917 479.976C325.557 478.845 325.877 477.235 325.877 475.144ZM368.189 480.168H342.429V476.776H368.189V480.168ZM365.085 474.344H345.821V463.944H350.109V471.048H365.085V474.344ZM365.213 490.76H345.597V482.312H349.853V487.464H365.213V490.76ZM402.203 481.672H397.915V474.024H393.083V470.44H397.915V463.016H402.203V481.672ZM403.579 488.296L401.627 491.72C399.707 491.507 397.861 490.856 396.091 489.768C394.341 488.68 393.136 487.507 392.475 486.248C391.877 487.485 390.661 488.648 388.827 489.736C386.992 490.845 385.072 491.507 383.067 491.72L381.339 488.328C383.856 488.093 385.989 487.293 387.739 485.928C389.509 484.541 390.395 482.909 390.395 481.032V480.104H394.715V481.032C394.715 482.909 395.568 484.52 397.275 485.864C398.981 487.187 401.083 487.997 403.579 488.296ZM393.083 465.16C393.061 467.336 392.688 469.341 391.963 471.176C391.237 472.989 390.245 474.515 388.987 475.752C387.749 476.989 386.395 478.024 384.923 478.856C383.451 479.667 381.872 480.285 380.187 480.712L378.555 477.32C381.221 476.744 383.472 475.656 385.307 474.056C387.141 472.456 388.176 470.653 388.411 468.648H379.835V465.16H393.083ZM432.482 477.832H428.77V491.528H424.578V463.016H428.77V474.376H432.482V477.832ZM422.53 465.8C422.53 471.368 422.199 475.635 421.538 478.6L417.602 478.184C418.05 475.496 418.274 472.52 418.274 469.256H407.266V465.8H422.53ZM423.554 485.032C420.546 485.437 417.069 485.747 413.122 485.96C409.815 486.067 407.437 486.12 405.986 486.12L405.538 482.664H411.106V474.952H415.138V482.504C418.807 482.269 421.506 482.045 423.234 481.832L423.554 485.032ZM468.064 487.976H442.304V484.648H453.088V479.112H445.12V465.128H465.184V479.112H457.28V484.648H468.064V487.976ZM460.96 475.752V468.488H449.344V475.752H460.96ZM495.751 488.136H469.991V484.744H495.751V488.136ZM493.287 480.808H473.223V471.144H488.327V468.36H473.191V464.968H492.551V474.504H477.447V477.48H493.287V480.808ZM523.439 480.168H497.679V476.776H523.439V480.168ZM520.335 474.344H501.071V463.944H505.359V471.048H520.335V474.344ZM520.463 490.76H500.847V482.312H505.103V487.464H520.463V490.76ZM557.453 481.672H553.165V474.024H548.333V470.44H553.165V463.016H557.453V481.672ZM558.829 488.296L556.877 491.72C554.957 491.507 553.111 490.856 551.341 489.768C549.591 488.68 548.386 487.507 547.725 486.248C547.127 487.485 545.911 488.648 544.077 489.736C542.242 490.845 540.322 491.507 538.317 491.72L536.589 488.328C539.106 488.093 541.239 487.293 542.989 485.928C544.759 484.541 545.645 482.909 545.645 481.032V480.104H549.965V481.032C549.965 482.909 550.818 484.52 552.525 485.864C554.231 487.187 556.333 487.997 558.829 488.296ZM548.333 465.16C548.311 467.336 547.938 469.341 547.213 471.176C546.487 472.989 545.495 474.515 544.237 475.752C542.999 476.989 541.645 478.024 540.173 478.856C538.701 479.667 537.122 480.285 535.437 480.712L533.805 477.32C536.471 476.744 538.722 475.656 540.557 474.056C542.391 472.456 543.426 470.653 543.661 468.648H535.085V465.16H548.333ZM587.22 477.928H561.46V474.568H587.22V477.928ZM584.756 491.368H564.66V483.752H579.796V482.568H564.628V479.24H584.052V486.696H568.852V487.912H584.756V491.368ZM570.1 467.272C569.14 467.613 568.66 468.051 568.66 468.584C568.66 469.117 569.14 469.555 570.1 469.896C571.06 470.216 572.468 470.376 574.324 470.376C576.159 470.376 577.567 470.216 578.548 469.896C579.529 469.555 580.02 469.117 580.02 468.584C580.02 468.051 579.519 467.613 578.516 467.272C577.535 466.931 576.137 466.76 574.324 466.76C572.489 466.76 571.081 466.931 570.1 467.272ZM566.804 472.136C565.076 471.24 564.212 470.045 564.212 468.552C564.212 467.059 565.076 465.864 566.804 464.968C568.553 464.072 571.06 463.624 574.324 463.624C577.588 463.624 580.095 464.072 581.844 464.968C583.593 465.864 584.468 467.059 584.468 468.552C584.468 470.045 583.593 471.24 581.844 472.136C580.116 473.011 577.609 473.448 574.324 473.448C571.039 473.448 568.532 473.011 566.804 472.136ZM620.21 464.424C620.338 468.989 620.018 473.128 619.25 476.84H623.314V480.168H612.434V491.528H608.242V480.168H597.554V476.84H615.314C615.932 474.216 616.188 471.208 616.082 467.816H600.594V464.424H620.21ZM647.545 475.624H628.697V464.36H632.985V467.048H643.289V464.36H647.545V475.624ZM640.441 485.192H636.185V480.744H625.241V477.416H651.001V480.744H640.441V485.192ZM647.865 490.824H628.505V482.696H632.729V487.528H647.865V490.824ZM643.289 472.264V470.248H632.985V472.264H643.289ZM669.281 473.128H652.705V469.8H669.281V473.128ZM656.801 468.136V464.744H665.601V468.136H656.801ZM675.329 463.016V474.6H679.201V478.056H675.329V491.528H671.105V463.016H675.329ZM654.209 480.2C654.209 478.365 654.859 476.893 656.161 475.784C657.483 474.653 659.147 474.088 661.153 474.088C663.137 474.088 664.801 474.653 666.145 475.784C667.489 476.915 668.161 478.387 668.161 480.2C668.161 482.013 667.489 483.496 666.145 484.648C664.801 485.779 663.137 486.344 661.153 486.344C659.169 486.344 657.515 485.779 656.193 484.648C654.87 483.496 654.209 482.013 654.209 480.2ZM658.849 477.96C658.251 478.536 657.953 479.283 657.953 480.2C657.953 481.117 658.251 481.864 658.849 482.44C659.467 483.016 660.235 483.304 661.153 483.304C662.049 483.304 662.806 483.016 663.425 482.44C664.065 481.864 664.385 481.117 664.385 480.2C664.385 479.283 664.075 478.536 663.457 477.96C662.838 477.384 662.07 477.096 661.153 477.096C660.235 477.096 659.467 477.384 658.849 477.96ZM706.376 480.168H680.616V476.776H706.376V480.168ZM703.272 474.344H684.008V463.944H688.296V471.048H703.272V474.344ZM703.4 490.76H683.784V482.312H688.04V487.464H703.4V490.76ZM740.422 491.208H720.838V482.312H740.422V491.208ZM736.134 487.944V485.512H725.062V487.944H736.134ZM740.422 481.16H736.134V463.016H740.422V481.16ZM734.054 471.144H717.094V467.976H734.054V471.144ZM721.35 467.048V463.784H730.054V467.048H721.35ZM732.742 476.488C732.742 477.875 732.081 479.037 730.758 479.976C729.435 480.893 727.729 481.352 725.638 481.352C723.569 481.352 721.873 480.893 720.55 479.976C719.249 479.037 718.598 477.875 718.598 476.488C718.598 475.123 719.249 473.992 720.55 473.096C721.851 472.179 723.547 471.72 725.638 471.72C727.729 471.72 729.435 472.179 730.758 473.096C732.081 473.992 732.742 475.123 732.742 476.488ZM722.854 476.488C722.854 477.021 723.11 477.469 723.622 477.832C724.155 478.173 724.827 478.344 725.638 478.344C726.47 478.344 727.153 478.173 727.686 477.832C728.241 477.469 728.518 477.021 728.518 476.488C728.518 475.976 728.241 475.549 727.686 475.208C727.153 474.845 726.47 474.664 725.638 474.664C724.827 474.664 724.155 474.845 723.622 475.208C723.11 475.549 722.854 475.976 722.854 476.488Z" fill="white"/>
<path d="M170.44 672.36V622.696H176.072V644.84C176.072 647.485 176.733 649.512 178.056 650.92C179.379 652.285 181.32 652.968 183.88 652.968C186.227 652.968 188.083 652.499 189.448 651.56C190.856 650.579 191.88 649.171 192.52 647.336C193.16 645.459 193.48 643.197 193.48 640.552V622.696H199.112V649.448C199.112 650.771 199.368 651.709 199.88 652.264C200.392 652.776 201.011 653.032 201.736 653.032C202.077 653.032 202.44 652.989 202.824 652.904C203.208 652.819 203.485 652.755 203.656 652.712V656.808C203.443 656.936 203.144 657.064 202.76 657.192C202.376 657.32 201.949 657.427 201.48 657.512C201.011 657.597 200.541 657.64 200.072 657.64C198.493 657.64 197.171 657.256 196.104 656.488C195.08 655.72 194.333 654.355 193.864 652.392H193.416C192.691 653.501 191.859 654.461 190.92 655.272C190.024 656.04 188.957 656.616 187.72 657C186.525 657.427 185.117 657.64 183.496 657.64C182.387 657.64 181.363 657.512 180.424 657.256C179.528 657.043 178.696 656.723 177.928 656.296C177.203 655.827 176.563 655.315 176.008 654.76H175.752C175.837 655.272 175.901 655.912 175.944 656.68C175.987 657.405 176.008 658.237 176.008 659.176C176.051 660.157 176.072 661.224 176.072 662.376V672.36H170.44ZM220.965 657.64C216.015 657.64 212.389 656.701 210.085 654.824C207.823 652.904 206.693 650.515 206.693 647.656C206.693 645.949 207.013 644.563 207.653 643.496C208.335 642.387 209.21 641.512 210.277 640.872C211.386 640.189 212.602 639.656 213.925 639.272V638.952C212.09 638.355 210.618 637.437 209.509 636.2C208.399 634.92 207.845 633.256 207.845 631.208C207.845 629.245 208.335 627.603 209.317 626.28C210.341 624.915 211.791 623.869 213.669 623.144C215.589 622.419 217.871 622.056 220.517 622.056C222.906 622.056 225.061 622.312 226.981 622.824C228.943 623.293 230.543 623.869 231.781 624.552L229.989 629.224C228.623 628.456 227.151 627.859 225.573 627.432C224.037 626.963 222.351 626.728 220.517 626.728C217.957 626.728 216.122 627.176 215.013 628.072C213.946 628.925 213.413 630.099 213.413 631.592C213.413 633.555 214.181 634.941 215.717 635.752C217.295 636.52 219.109 636.904 221.157 636.904H225.573V641.256H221.157C219.279 641.256 217.701 641.491 216.421 641.96C215.141 642.429 214.159 643.112 213.477 644.008C212.837 644.904 212.517 646.013 212.517 647.336C212.517 649.171 213.242 650.557 214.693 651.496C216.186 652.392 218.277 652.84 220.965 652.84C223.183 652.84 225.103 652.669 226.725 652.328C228.389 651.987 229.882 651.475 231.205 650.792V655.784C229.882 656.467 228.346 656.936 226.597 657.192C224.847 657.491 222.97 657.64 220.965 657.64ZM255.123 657.704C253.16 657.704 251.347 657.427 249.683 656.872C248.019 656.275 246.675 655.208 245.651 653.672C244.627 652.136 244.115 649.939 244.115 647.08V627.048H234.899V622.696H263.187V627.048H249.811V646.504C249.811 648.125 250.067 649.427 250.579 650.408C251.091 651.389 251.816 652.093 252.755 652.52C253.694 652.947 254.76 653.16 255.955 653.16C256.894 653.16 257.854 653.096 258.835 652.968C259.859 652.797 260.712 652.627 261.395 652.456V656.68C260.798 656.936 259.902 657.171 258.707 657.384C257.555 657.597 256.36 657.704 255.123 657.704ZM281.472 657.64C278.741 657.64 276.331 656.979 274.24 655.656C272.149 654.333 270.507 652.371 269.312 649.768C268.117 647.123 267.52 643.859 267.52 639.976C267.52 634.173 268.779 629.736 271.296 626.664C273.856 623.592 277.333 622.056 281.728 622.056C283.349 622.056 284.821 622.291 286.144 622.76C287.467 623.187 288.64 623.805 289.664 624.616C290.731 625.384 291.627 626.301 292.352 627.368H292.608L293.44 622.696H297.92V649.448C297.92 650.771 298.176 651.709 298.688 652.264C299.2 652.776 299.819 653.032 300.544 653.032C300.885 653.032 301.248 652.989 301.632 652.904C302.016 652.819 302.293 652.755 302.464 652.712V656.808C302.251 656.936 301.952 657.064 301.568 657.192C301.184 657.32 300.757 657.427 300.288 657.512C299.819 657.597 299.349 657.64 298.88 657.64C297.301 657.64 295.979 657.256 294.912 656.488C293.888 655.72 293.141 654.355 292.672 652.392H292.224C291.541 653.416 290.688 654.333 289.664 655.144C288.64 655.912 287.445 656.531 286.08 657C284.715 657.427 283.179 657.64 281.472 657.64ZM282.624 652.968C284.971 652.968 286.848 652.52 288.256 651.624C289.707 650.728 290.752 649.341 291.392 647.464C292.032 645.587 292.352 643.197 292.352 640.296V639.912C292.352 635.645 291.627 632.381 290.176 630.12C288.768 627.859 286.229 626.728 282.56 626.728C279.445 626.728 277.12 627.88 275.584 630.184C274.091 632.445 273.344 635.731 273.344 640.04C273.344 644.307 274.133 647.528 275.712 649.704C277.291 651.88 279.595 652.968 282.624 652.968ZM281.28 618.216V617.448L284.352 607.336H291.136V607.976L285.056 618.216H281.28Z" fill="white"/>
<path d="M391.816 638.952C391.816 634.664 389.128 631.656 385.288 631.656C380.808 631.656 377.672 634.408 377.672 638.376V657H373.064V638.952C373.064 634.664 370.44 631.656 366.664 631.656C362.12 631.656 358.984 635.432 358.984 639.656V657H354.376V627.496H358.984V631.848C360.776 629.288 363.848 627.496 366.664 627.496C370.376 627.496 374.088 629.736 375.752 633C377.672 629.736 381.512 627.496 385.288 627.496C391.752 627.496 396.424 632.04 396.424 638.504V657H391.816V638.952ZM418.417 657.32C410.161 657.32 404.337 651.112 404.337 642.408C404.337 633.704 410.161 627.496 418.417 627.496C427.505 627.496 430.257 634.792 430.513 635.56C432.305 640.296 431.665 644.52 431.665 644.52H409.137C409.905 649.576 413.745 653.16 418.417 653.16C424.753 653.16 426.993 649.064 427.377 648.488L430.961 650.536C429.489 653.8 425.329 657.32 418.417 657.32ZM409.137 640.424L427.121 640.36C426.609 635.432 424.305 631.656 418.417 631.656C413.681 631.656 409.905 635.176 409.137 640.424ZM441.385 657V631.592H436.074V627.496H441.385V617.32H445.994V627.496H452.97V631.592H445.994V657H441.385ZM470.916 657.448C462.724 657.448 456.9 651.24 456.9 642.536C456.9 633.832 462.724 627.56 470.916 627.56C474.18 627.56 477.828 629.352 480.452 633.064V627.496H485.06V657H480.452V651.88C477.764 655.912 474.244 657.448 470.916 657.448ZM461.508 642.536C461.508 648.808 465.412 653.288 470.98 653.288C475.972 653.288 480.452 648.808 480.516 642.536C480.452 636.328 475.972 631.72 470.98 631.72C465.412 631.72 461.508 636.2 461.508 642.536Z" fill="white"/>
<path d="M176.676 706.12V712.14H178.608V703.712H182.052V727.092H178.608V715.052H176.676V721.716H166.54V706.12H176.676ZM187.12 728.212H183.62V703.264H187.12V728.212ZM173.176 718.916V708.92H169.984V718.916H173.176ZM194.631 719.252C194.873 719.271 195.293 719.28 195.891 719.28C199.288 719.28 202.125 719.065 204.403 718.636C204.44 718.953 204.496 719.429 204.571 720.064C204.645 720.68 204.701 721.147 204.739 721.464C201.715 722.024 198.308 722.304 194.519 722.304C194.127 722.304 193.529 722.295 192.727 722.276C191.943 722.257 191.355 722.248 190.963 722.248V705.476H202.443V708.36H194.631V712.084H202.079V715.052H194.631V719.252ZM209.639 703.264V712.504H212.943V715.556H209.639V728.212H205.971V703.264H209.639ZM235.013 721.352H231.261V703.264H235.013V721.352ZM235.517 727.596H218.017V719.504H221.741V724.712H235.517V727.596ZM214.937 711.384C214.937 709.573 215.59 708.099 216.897 706.96C218.222 705.803 219.865 705.224 221.825 705.224C223.785 705.224 225.428 705.803 226.753 706.96C228.078 708.099 228.741 709.573 228.741 711.384C228.741 713.176 228.078 714.651 226.753 715.808C225.428 716.947 223.785 717.516 221.825 717.516C219.865 717.516 218.222 716.947 216.897 715.808C215.59 714.651 214.937 713.176 214.937 711.384ZM218.549 711.384C218.549 712.299 218.857 713.036 219.473 713.596C220.089 714.137 220.873 714.408 221.825 714.408C222.777 714.408 223.561 714.137 224.177 713.596C224.812 713.036 225.129 712.299 225.129 711.384C225.129 710.451 224.812 709.704 224.177 709.144C223.561 708.565 222.777 708.276 221.825 708.276C220.873 708.276 220.089 708.565 219.473 709.144C218.857 709.704 218.549 710.451 218.549 711.384ZM254.032 719.476L251.96 722.388C250.877 721.753 249.748 720.792 248.572 719.504C247.396 718.197 246.621 716.965 246.248 715.808C245.893 717.133 245.128 718.505 243.952 719.924C242.794 721.343 241.628 722.369 240.452 723.004L238.268 720.148C240.34 718.935 241.852 717.395 242.804 715.528C243.774 713.661 244.269 711.365 244.288 708.64H239.5V705.56H252.912V708.64H248.124C248.18 713.773 250.149 717.385 254.032 719.476ZM259.268 728.212H255.488V703.264H259.268V728.212ZM285.286 717.348H262.746V714.604H285.286V717.348ZM282.934 728.044H265.462V721.996H278.706V720.932H265.406V718.356H282.402V724.404H269.158V725.468H282.934V728.044ZM282.766 713.512H265.686V707.688H278.51V706.736H265.686V704.16H282.262V709.928H269.438V710.964H282.766V713.512ZM306.9 719.644L304.912 722.332C304.054 721.809 303.186 720.979 302.308 719.84C301.431 718.701 300.843 717.6 300.544 716.536C300.302 717.6 299.686 718.785 298.696 720.092C297.707 721.399 296.727 722.332 295.756 722.892L293.74 720.344C295.626 719.056 296.923 717.572 297.632 715.892C298.36 714.212 298.724 712.149 298.724 709.704V708.64H294.776V705.756H305.92V708.64H302.308V709.704C302.308 712.149 302.635 714.147 303.288 715.696C303.942 717.227 305.146 718.543 306.9 719.644ZM310.596 727.064H307.208V714.8H304.38V711.58H307.208V703.74H310.596V727.064ZM315.72 728.212H312.304V703.264H315.72V728.212ZM339.835 728.212H336.307V715.892H334.459V727.064H330.987V703.684H334.459V712.924H336.307V703.264H339.835V728.212ZM322.895 719.588H323.455C326.199 719.588 328.308 719.42 329.783 719.084L330.147 721.884C328.075 722.332 325.322 722.556 321.887 722.556H319.199V706.176H328.663V709.06H322.895V719.588ZM363.165 718.58H355.885V722.22H365.321V725.132H342.781V722.22H352.217V718.58H345.609V710.068H358.825V707.66H345.581V704.692H362.521V713.036H349.305V715.64H363.165V718.58ZM389.175 721.632C387.794 721.931 385.013 722.211 380.831 722.472C379.151 722.584 376.977 722.64 374.307 722.64L373.887 719.588H377.163C376.958 717.441 376.669 714.203 376.295 709.872C376.687 709.816 377.285 709.751 378.087 709.676C378.89 709.601 379.497 709.545 379.907 709.508C379.945 710.628 380.01 712.299 380.103 714.52C380.215 716.741 380.29 718.412 380.327 719.532L382.623 719.448C382.679 718.328 382.782 716.667 382.931 714.464C383.081 712.261 383.193 710.609 383.267 709.508L386.851 709.9C386.347 714.137 386.002 717.236 385.815 719.196C386.693 719.121 387.738 718.991 388.951 718.804L389.175 721.632ZM393.935 703.264V712.756H397.323V715.808H393.935V728.212H390.211V703.264H393.935ZM388.195 708.22H374.587V705.336H388.195V708.22ZM421.55 712.14H418.19V717.628H414.494V703.264H418.19V709.116H421.55V712.14ZM401.726 719.028H418.218V728.24H414.522V721.94H401.726V719.028ZM398.646 710.544C398.646 708.771 399.262 707.333 400.494 706.232C401.745 705.131 403.303 704.58 405.17 704.58C407.074 704.58 408.642 705.131 409.874 706.232C411.125 707.333 411.75 708.771 411.75 710.544C411.75 712.317 411.125 713.773 409.874 714.912C408.623 716.032 407.055 716.592 405.17 716.592C403.303 716.592 401.745 716.023 400.494 714.884C399.262 713.745 398.646 712.299 398.646 710.544ZM402.23 710.544C402.23 711.44 402.501 712.149 403.042 712.672C403.602 713.195 404.311 713.456 405.17 713.456C406.066 713.456 406.794 713.204 407.354 712.7C407.914 712.177 408.194 711.459 408.194 710.544C408.194 709.648 407.905 708.929 407.326 708.388C406.766 707.847 406.047 707.576 405.17 707.576C404.311 707.576 403.602 707.847 403.042 708.388C402.501 708.911 402.23 709.629 402.23 710.544ZM437.125 712.112H422.621V709.2H437.125V712.112ZM426.205 707.744V704.776H433.905V707.744H426.205ZM442.417 703.264V713.4H445.805V716.424H442.417V728.212H438.721V703.264H442.417ZM423.937 718.3C423.937 716.695 424.506 715.407 425.645 714.436C426.802 713.447 428.258 712.952 430.013 712.952C431.749 712.952 433.205 713.447 434.381 714.436C435.557 715.425 436.145 716.713 436.145 718.3C436.145 719.887 435.557 721.184 434.381 722.192C433.205 723.181 431.749 723.676 430.013 723.676C428.277 723.676 426.83 723.181 425.673 722.192C424.515 721.184 423.937 719.887 423.937 718.3ZM427.997 716.34C427.474 716.844 427.213 717.497 427.213 718.3C427.213 719.103 427.474 719.756 427.997 720.26C428.538 720.764 429.21 721.016 430.013 721.016C430.797 721.016 431.459 720.764 432.001 720.26C432.561 719.756 432.841 719.103 432.841 718.3C432.841 717.497 432.57 716.844 432.029 716.34C431.487 715.836 430.815 715.584 430.013 715.584C429.21 715.584 428.538 715.836 427.997 716.34ZM469.583 724.992H447.043V722.08H454.967V713.708H458.691V722.08H469.583V724.992ZM467.231 705.476C467.306 707.791 467.231 710.245 467.007 712.84C466.783 715.435 466.466 717.619 466.055 719.392C465.682 719.355 465.103 719.299 464.319 719.224C463.535 719.149 462.947 719.084 462.555 719.028C462.835 717.927 463.068 716.527 463.255 714.828C463.46 713.111 463.563 711.72 463.563 710.656C463.563 710.432 463.554 710.059 463.535 709.536C463.535 709.013 463.535 708.64 463.535 708.416H449.507V705.476H467.231ZM499.373 717.908H495.593V711.356H491.757V708.388H495.593V703.264H499.373V717.908ZM493.493 714.296L491.533 717.18C490.562 716.863 489.545 716.237 488.481 715.304C487.436 714.352 486.689 713.372 486.241 712.364C485.868 713.503 485.084 714.613 483.889 715.696C482.694 716.779 481.49 717.516 480.277 717.908L478.401 714.912C480.268 714.259 481.714 713.251 482.741 711.888C483.768 710.525 484.281 708.929 484.281 707.1V704.86H488.089V706.876C488.089 708.78 488.574 710.348 489.545 711.58C490.516 712.812 491.832 713.717 493.493 714.296ZM499.513 723.088C499.513 724.6 498.729 725.795 497.161 726.672C495.593 727.549 493.437 727.988 490.693 727.988C487.949 727.988 485.793 727.549 484.225 726.672C482.676 725.795 481.901 724.6 481.901 723.088C481.901 721.557 482.676 720.353 484.225 719.476C485.793 718.58 487.949 718.132 490.693 718.132C493.437 718.132 495.593 718.58 497.161 719.476C498.729 720.353 499.513 721.557 499.513 723.088ZM494.417 721.632C493.54 721.277 492.298 721.1 490.693 721.1C489.088 721.1 487.846 721.277 486.969 721.632C486.092 721.968 485.653 722.453 485.653 723.088C485.653 723.685 486.092 724.161 486.969 724.516C487.865 724.871 489.106 725.048 490.693 725.048C492.298 725.048 493.54 724.88 494.417 724.544C495.313 724.189 495.761 723.704 495.761 723.088C495.761 722.453 495.313 721.968 494.417 721.632ZM522.704 723.032C522.704 724.581 521.91 725.804 520.324 726.7C518.756 727.596 516.6 728.044 513.856 728.044C511.13 728.044 508.984 727.596 507.416 726.7C505.848 725.804 505.064 724.581 505.064 723.032C505.064 721.464 505.848 720.223 507.416 719.308C508.984 718.375 511.13 717.908 513.856 717.908C516.6 717.908 518.756 718.375 520.324 719.308C521.91 720.223 522.704 721.464 522.704 723.032ZM503.3 707.8V704.804H516.46V707.8H511.868C512.054 709.461 512.652 710.852 513.66 711.972C514.686 713.073 515.974 713.885 517.524 714.408L515.536 717.32C514.546 717.003 513.492 716.368 512.372 715.416C511.27 714.445 510.496 713.456 510.048 712.448C509.73 713.531 508.965 714.604 507.752 715.668C506.557 716.713 505.334 717.432 504.084 717.824L502.208 714.884C503.981 714.287 505.362 713.391 506.352 712.196C507.36 711.001 507.929 709.536 508.06 707.8H503.3ZM525.924 712.336H522.452V717.6H518.784V703.264H522.452V709.34H525.924V712.336ZM513.856 720.904C512.288 720.904 511.056 721.1 510.16 721.492C509.264 721.865 508.816 722.379 508.816 723.032C508.816 723.667 509.264 724.18 510.16 724.572C511.056 724.945 512.288 725.132 513.856 725.132C515.461 725.132 516.702 724.945 517.58 724.572C518.476 724.18 518.924 723.667 518.924 723.032C518.924 722.379 518.476 721.865 517.58 721.492C516.702 721.1 515.461 720.904 513.856 720.904ZM541.442 710.544H526.882V707.716H541.442V710.544ZM538.558 712.308C539.678 713.204 540.238 714.324 540.238 715.668C540.238 717.012 539.678 718.132 538.558 719.028C537.438 719.924 535.992 720.372 534.218 720.372C532.445 720.372 530.998 719.924 529.878 719.028C528.758 718.132 528.198 717.012 528.198 715.668C528.198 714.324 528.758 713.204 529.878 712.308C530.998 711.412 532.445 710.964 534.218 710.964C535.992 710.964 537.438 711.412 538.558 712.308ZM530.494 706.68V703.964H537.998V706.68H530.494ZM546.678 703.264V711.664H550.038V714.688H546.678V722.052H543.01V703.264H546.678ZM547.182 727.792H530.018V721.156H533.826V724.852H547.182V727.792ZM531.866 715.668C531.866 716.209 532.081 716.676 532.51 717.068C532.958 717.441 533.528 717.628 534.218 717.628C534.909 717.628 535.478 717.441 535.926 717.068C536.374 716.676 536.598 716.209 536.598 715.668C536.598 715.145 536.374 714.679 535.926 714.268C535.478 713.857 534.909 713.652 534.218 713.652C533.546 713.652 532.986 713.857 532.538 714.268C532.09 714.679 531.866 715.145 531.866 715.668ZM564.428 706.932V710.992H560.2V707.352C560.219 706.157 560.592 705.159 561.32 704.356C562.048 703.535 563.084 703.003 564.428 702.76V704.748C563.831 704.86 563.318 705.121 562.888 705.532C562.478 705.924 562.291 706.391 562.328 706.932H564.428ZM586.409 703.264V712.588H590.049V715.64H586.409V728.212H582.657V703.264H586.409ZM581.229 720.96C579.717 721.315 577.906 721.604 575.797 721.828C573.706 722.033 571.839 722.136 570.197 722.136H567.705V705.7H571.373V718.916H572.045C574.975 718.916 577.887 718.627 580.781 718.048C580.818 718.272 580.967 719.243 581.229 720.96ZM591.875 708.136V704.02H596.187V707.716C596.169 708.929 595.786 709.947 595.039 710.768C594.293 711.589 593.238 712.121 591.875 712.364V710.376C592.473 710.283 592.995 710.031 593.443 709.62C593.891 709.191 594.097 708.696 594.059 708.136H591.875ZM621.724 717.348H599.184V714.604H621.724V717.348ZM619.372 728.044H601.9V721.996H615.144V720.932H601.844V718.356H618.84V724.404H605.596V725.468H619.372V728.044ZM619.204 713.512H602.124V707.688H614.948V706.736H602.124V704.16H618.7V709.928H605.876V710.964H619.204V713.512ZM643.366 715.668H631.382V704.496H635.022V707.604H639.67V704.524H643.366V715.668ZM639.67 712.728V710.432H635.022V712.728H639.67ZM653.67 711.244H650.366V716.088H646.67V703.264H650.366V708.192H653.67V711.244ZM650.786 728.016H633.734V721.324H646.67V720.008H633.762V717.096H650.366V723.984H637.514V725.076H650.786V728.016ZM675.74 721.352H671.96V716.48H668.068V713.456H671.96V710.992H668.236V707.94H671.96V703.264H675.74V721.352ZM676.216 727.512H658.94V719.616H662.664V724.628H676.216V727.512ZM668.068 705.14C667.994 707.025 667.602 708.78 666.892 710.404C666.183 712.009 665.259 713.363 664.12 714.464C663 715.565 661.787 716.48 660.48 717.208C659.192 717.917 657.848 718.431 656.448 718.748L654.936 715.808C657.176 715.304 659.146 714.343 660.844 712.924C662.543 711.487 663.588 709.909 663.98 708.192H656.084V705.14H668.068ZM700.499 728.212H696.971V716.34H695.263V727.092H691.903V703.656H695.263V713.372H696.971V703.264H700.499V728.212ZM689.159 714.464C690.186 715.435 690.699 716.657 690.699 718.132C690.699 719.607 690.186 720.829 689.159 721.8C688.132 722.771 686.807 723.256 685.183 723.256C683.503 723.256 682.15 722.771 681.123 721.8C680.115 720.829 679.611 719.607 679.611 718.132C679.611 716.657 680.124 715.435 681.151 714.464C682.196 713.493 683.54 713.008 685.183 713.008C686.807 713.008 688.132 713.493 689.159 714.464ZM679.107 712.28V709.396H691.091V712.28H679.107ZM681.935 708.08V705.168H688.627V708.08H681.935ZM686.779 719.84C687.208 719.373 687.423 718.804 687.423 718.132C687.423 717.46 687.208 716.9 686.779 716.452C686.35 715.985 685.818 715.752 685.183 715.752C684.53 715.752 683.979 715.985 683.531 716.452C683.083 716.9 682.859 717.46 682.859 718.132C682.859 718.823 683.074 719.392 683.503 719.84C683.951 720.288 684.511 720.512 685.183 720.512C685.818 720.512 686.35 720.288 686.779 719.84ZM725.985 725.132H703.445V722.192H712.881V717.768H706.049V704.86H709.745V708.584H719.629V704.86H723.353V717.768H716.549V722.192H725.985V725.132ZM719.629 714.856V711.412H709.745V714.856H719.629ZM748.952 728.212H745.48V703.264H748.952V728.212ZM743.912 727.092H740.552V714.8H737.584V711.692H740.552V703.712H743.912V727.092ZM740.384 719.364L738.172 722.248C737.351 721.725 736.492 720.913 735.596 719.812C734.719 718.692 734.14 717.609 733.86 716.564C733.543 717.74 732.927 718.935 732.012 720.148C731.097 721.343 730.099 722.248 729.016 722.864L726.916 720.092C728.615 719.065 729.884 717.665 730.724 715.892C731.583 714.1 732.012 711.823 732.012 709.06V705.672H735.708V709.004C735.708 711.748 736.1 713.923 736.884 715.528C737.668 717.115 738.835 718.393 740.384 719.364ZM769.903 706.428C771.601 707.604 772.451 709.153 772.451 711.076C772.451 712.999 771.601 714.567 769.903 715.78C768.204 716.975 765.955 717.572 763.155 717.572C760.373 717.572 758.133 716.975 756.435 715.78C754.736 714.567 753.887 712.999 753.887 711.076C753.887 709.153 754.736 707.604 756.435 706.428C758.133 705.233 760.373 704.636 763.155 704.636C765.955 704.636 768.204 705.233 769.903 706.428ZM774.439 725.132H751.899V722.192H756.687V718.272L760.467 718.44V722.192H765.815V718.44L769.595 718.272V722.192H774.439V725.132ZM768.671 711.104C768.671 710.059 768.167 709.2 767.159 708.528C766.151 707.837 764.816 707.492 763.155 707.492C761.493 707.492 760.159 707.837 759.151 708.528C758.143 709.2 757.639 710.059 757.639 711.104C757.639 712.187 758.143 713.073 759.151 713.764C760.159 714.436 761.493 714.772 763.155 714.772C764.797 714.772 766.123 714.427 767.131 713.736C768.157 713.045 768.671 712.168 768.671 711.104ZM777.693 719.168L777.105 704.916H781.277L780.829 719.168H777.693ZM777.385 725.244V721.688H781.137V725.244H777.385Z" fill="white"/>
<path d="M171.464 795.624C170.568 795.688 169.096 795.624 168.264 795.624C167.624 795.624 167.368 795.624 167.112 795.304C166.792 794.92 166.536 794.408 166.408 794.088C166.216 793.576 166.216 793.256 167.048 793.128C169.608 792.68 172.296 791.784 174.152 791.08C175.112 790.696 175.24 790.632 175.816 791.08L176.84 791.912C177.032 792.04 177.096 792.424 176.904 792.872C176.584 793.768 176.456 794.664 176.392 795.816V797.416C178.696 794.152 182.152 791.272 187.272 791.272C190.6 791.272 194.312 793.32 195.656 798.056C198.92 794.024 202.824 791.272 208.52 791.272C213.448 791.272 216.776 794.6 216.776 802.024V820.584C216.904 821.224 217.288 821.608 218.12 821.992C218.888 822.312 219.592 822.568 220.36 822.696C220.68 823.144 220.616 824.296 220.36 825H208.264C208.008 824.296 207.944 823.144 208.264 822.696C209.032 822.568 209.8 822.312 210.568 821.992C211.4 821.608 211.784 821.224 211.912 820.584V802.6C211.912 797.928 210.376 795.048 207.112 795.048C202.632 795.048 199.56 796.968 196.168 801.128C196.296 802.152 196.36 802.6 196.36 803.816V820.584C196.36 821.16 196.808 821.672 197.64 822.056C198.408 822.376 199.048 822.568 199.688 822.696C200.008 823.144 199.944 824.296 199.688 825H188.36C188.104 824.296 188.04 823.144 188.36 822.696C189.128 822.568 189.768 822.376 190.472 822.056C191.304 821.672 191.688 821.16 191.688 820.584V803.816C191.688 797.352 189.384 795.112 186.376 795.048C181.896 794.984 179.464 797.16 176.328 801.064V820.84C176.456 821.48 176.84 821.864 177.672 822.248C178.44 822.568 179.272 822.632 179.912 822.696C180.232 823.144 180.168 824.296 179.912 825H167.816C167.56 824.296 167.496 823.144 167.816 822.696C168.712 822.568 169.416 822.504 170.12 822.248C170.952 821.928 171.336 821.48 171.464 820.84V795.624ZM250.132 805.416C250.324 799.336 247.38 794.664 241.172 794.6C235.924 794.536 230.996 799.016 230.996 805.416H250.132ZM242.068 825.576C231.828 825.576 225.748 819.368 225.748 808.424C225.748 797.096 232.595 791.272 241.3 791.272C248.532 791.272 254.868 796.2 254.868 803.368V805.992C254.868 807.144 254.42 808.296 252.692 808.296H230.932C230.932 817.32 235.348 822.248 242.003 822.248C245.396 822.248 249.62 820.776 252.948 817.704L254.356 819.304C254.612 819.624 254.676 819.944 254.228 820.392C251.156 823.464 247.188 825.384 242.068 825.576ZM269.854 796.072V817.384C269.854 819.24 269.982 820.392 270.558 821.352C271.07 822.184 271.902 822.376 272.862 822.44C274.654 822.504 276.702 821.8 279.198 820.008L280.478 821.352C280.734 821.672 280.862 821.992 280.35 822.44C278.942 823.656 277.918 824.296 276.126 824.936C275.23 825.256 273.502 825.704 271.71 825.64C266.974 825.512 264.926 822.44 264.926 817.64V796.072H258.078L259.038 793.128H264.926V786.088L268.638 783.784C269.342 783.336 269.854 783.656 269.854 784.104V793.128H278.238L277.214 796.072H269.854ZM299.073 794.344C297.153 794.28 295.297 794.536 293.505 795.304C292.161 795.88 291.201 796.584 290.945 797.608C290.689 798.632 291.137 799.464 292.097 799.784C292.033 801.256 290.881 802.6 289.025 802.472C287.297 802.344 286.273 801.192 286.273 799.528C286.273 797.544 287.105 796.264 288.513 794.856C289.793 793.576 292.289 792.36 294.273 791.912C295.809 791.528 297.409 791.272 299.201 791.272C305.921 791.272 309.889 794.856 309.889 801.512V817.576C309.889 821.288 310.721 822.44 312.321 822.44C313.473 822.44 314.433 821.736 315.137 820.968L315.969 821.8C316.417 822.248 316.289 822.76 315.905 823.272C314.753 824.744 312.961 825.448 310.913 825.448C307.649 825.448 305.601 823.272 305.025 819.752C302.913 822.504 298.497 825.576 294.273 825.576C289.025 825.576 285.377 822.568 285.249 817.384C285.121 812.648 288.961 808.552 296.449 806.44C298.945 805.736 302.273 804.968 304.897 804.584V801.448C304.897 796.776 302.785 794.472 299.073 794.344ZM304.897 807.144C302.913 807.4 299.713 808.04 297.793 808.744C291.585 811.048 290.177 813.736 290.177 816.296C290.177 820.136 292.737 821.8 295.489 821.8C298.881 821.8 302.081 820.008 304.897 817.384V807.144ZM322.713 799.208H344.345V802.792H322.713V799.208ZM370.318 822.248C373.966 822.248 377.87 821.032 381.39 817.704L382.734 819.304C382.99 819.624 383.054 819.944 382.606 820.392C379.534 823.464 375.63 825.448 370.51 825.64C361.742 825.96 353.998 819.944 353.998 808.168C353.998 798.376 360.526 791.272 370.83 791.272C374.094 791.272 378.446 792.168 380.878 794.6C382.094 795.816 382.862 797.096 383.054 798.568C383.374 800.872 382.35 802.664 380.43 803.176C378.51 803.688 376.846 802.088 376.654 800.808C377.422 800.232 377.486 799.336 377.422 798.504C377.358 797.608 376.91 796.712 375.886 795.88C374.478 794.728 372.366 794.28 370.574 794.28C364.942 794.344 359.054 799.656 359.054 808.36C359.054 817.192 363.918 822.248 370.318 822.248ZM402.935 825.64C394.999 825.64 386.935 820.008 386.935 808.424C386.935 796.776 394.999 791.208 402.935 791.208C410.679 791.208 418.871 796.776 418.871 808.424C418.871 820.008 410.807 825.64 402.935 825.64ZM402.935 822.76C409.143 822.76 413.495 818.024 413.495 808.424C413.495 798.888 409.143 794.088 402.935 794.088C396.663 794.088 392.375 798.888 392.375 808.424C392.375 818.024 396.663 822.76 402.935 822.76ZM438.398 812.2C442.942 812.2 446.142 807.912 446.142 802.472C446.142 797.16 443.07 793.512 438.398 793.512C433.918 793.512 430.462 797.224 430.462 803.304C430.462 808.552 433.342 812.2 438.398 812.2ZM432.19 824.68C428.03 823.784 426.494 821.736 426.494 819.112C426.494 816.808 427.71 814.952 431.038 812.968C427.774 811.112 425.598 807.272 425.598 803.24C425.598 795.368 431.614 791.208 438.398 791.208C441.726 791.208 444.798 792.104 446.974 793.768C447.87 792.296 449.47 790.696 451.582 790.12C452.734 789.8 454.27 789.8 455.87 790.632C457.342 791.4 457.854 792.936 457.278 794.28C456.83 795.368 455.422 796.2 454.206 795.944C453.757 794.472 451.902 793.64 450.686 794.024C449.982 794.28 449.214 794.792 448.702 795.688C450.046 797.48 451.006 799.784 451.006 802.6C451.006 809.896 445.374 814.632 438.333 814.632C436.35 814.632 434.494 814.312 432.894 813.736C431.614 814.888 430.718 815.592 430.526 817.256C430.334 819.24 431.87 820.52 435.262 820.52H442.558C450.174 820.52 454.718 823.464 454.718 830.504C454.718 836.456 449.342 840.808 438.782 840.808C428.478 840.808 423.998 836.712 424.062 832.104C424.126 828.392 426.238 826.728 428.414 826.728C429.438 826.728 430.142 826.984 430.782 827.752C429.566 828.712 428.99 830.312 429.054 832.168C429.118 835.368 433.022 838.184 438.846 838.184C446.206 838.184 450.238 835.112 450.238 830.824C450.238 827.304 447.998 824.872 442.814 824.872H435.646C434.366 824.872 433.214 824.872 432.19 824.68ZM464.027 795.624C463.131 795.688 461.659 795.624 460.827 795.624C460.187 795.624 459.931 795.624 459.674 795.304C459.355 794.92 459.099 794.408 458.971 794.088C458.779 793.576 458.779 793.256 459.611 793.128C462.171 792.68 464.859 791.784 466.715 791.08C467.675 790.696 467.803 790.632 468.379 791.08L469.403 791.912C469.595 792.04 469.659 792.424 469.467 792.872C469.147 793.768 469.019 794.664 468.955 795.816V797.224C471.323 794.344 476.059 791.272 481.819 791.272C488.155 791.272 491.611 795.432 491.611 802.024V820.84C491.739 821.48 492.123 821.928 492.955 822.248C493.659 822.504 494.363 822.568 495.259 822.696C495.579 823.144 495.515 824.296 495.259 825H483.099C482.843 824.296 482.779 823.144 483.099 822.696C483.739 822.632 484.571 822.568 485.339 822.248C486.171 821.864 486.555 821.48 486.683 820.84V804.008C486.683 798.248 485.019 795.176 480.923 795.112C476.571 795.048 472.091 797.288 468.955 801.256V820.84C469.083 821.48 469.467 821.864 470.299 822.248C471.067 822.568 471.899 822.632 472.539 822.696C472.859 823.144 472.795 824.296 472.539 825H460.379C460.123 824.296 460.059 823.144 460.379 822.696C461.275 822.568 461.979 822.504 462.683 822.248C463.515 821.928 463.899 821.48 464.027 820.84V795.624ZM509.775 820.584C509.903 821.224 510.287 821.608 511.119 821.992C511.887 822.312 513.231 822.568 513.999 822.696C514.319 823.144 514.255 824.296 513.999 825H500.367C500.111 824.296 500.047 823.144 500.367 822.696C501.135 822.568 502.479 822.312 503.247 821.992C504.079 821.608 504.463 821.224 504.591 820.584V795.624H501.327C500.687 795.624 500.431 795.624 500.174 795.304C499.855 794.92 499.599 794.408 499.471 794.088C499.279 793.576 499.279 793.256 500.111 793.128C502.351 792.808 505.359 791.912 507.535 791.08C508.495 790.696 508.623 790.632 509.199 791.08L510.287 791.912C510.479 792.04 510.543 792.424 510.351 792.872C510.031 793.512 509.775 794.664 509.775 795.816V820.584ZM506.447 783.4C504.079 783.4 502.159 781.672 502.159 779.24C502.159 776.68 504.079 775.016 506.447 775.016C508.943 775.016 510.863 776.68 510.863 779.24C510.863 781.672 508.943 783.4 506.447 783.4ZM526.666 796.072V817.384C526.666 819.24 526.794 820.392 527.37 821.352C527.882 822.184 528.714 822.376 529.674 822.44C531.466 822.504 533.514 821.8 536.01 820.008L537.29 821.352C537.546 821.672 537.674 821.992 537.162 822.44C535.754 823.656 534.73 824.296 532.938 824.936C532.042 825.256 530.314 825.704 528.522 825.64C523.786 825.512 521.738 822.44 521.738 817.64V796.072H514.89L515.85 793.128H521.738V786.088L525.45 783.784C526.154 783.336 526.666 783.656 526.666 784.104V793.128H535.05L534.026 796.072H526.666ZM551.15 820.584C551.278 821.224 551.662 821.608 552.494 821.992C553.262 822.312 554.606 822.568 555.374 822.696C555.694 823.144 555.63 824.296 555.374 825H541.742C541.486 824.296 541.422 823.144 541.742 822.696C542.51 822.568 543.854 822.312 544.622 821.992C545.454 821.608 545.838 821.224 545.966 820.584V795.624H542.702C542.062 795.624 541.806 795.624 541.549 795.304C541.23 794.92 540.974 794.408 540.846 794.088C540.654 793.576 540.654 793.256 541.486 793.128C543.726 792.808 546.734 791.912 548.91 791.08C549.87 790.696 549.998 790.632 550.574 791.08L551.662 791.912C551.854 792.04 551.918 792.424 551.726 792.872C551.406 793.512 551.15 794.664 551.15 795.816V820.584ZM547.822 783.4C545.454 783.4 543.534 781.672 543.534 779.24C543.534 776.68 545.454 775.016 547.822 775.016C550.318 775.016 552.238 776.68 552.238 779.24C552.238 781.672 550.318 783.4 547.822 783.4ZM576.748 825.64C568.812 825.64 560.748 820.008 560.748 808.424C560.748 796.776 568.812 791.208 576.748 791.208C584.492 791.208 592.684 796.776 592.684 808.424C592.684 820.008 584.62 825.64 576.748 825.64ZM576.748 822.76C582.956 822.76 587.308 818.024 587.308 808.424C587.308 798.888 582.956 794.088 576.748 794.088C570.476 794.088 566.188 798.888 566.188 808.424C566.188 818.024 570.476 822.76 576.748 822.76ZM601.714 795.624C600.818 795.688 599.346 795.624 598.514 795.624C597.874 795.624 597.618 795.624 597.362 795.304C597.042 794.92 596.786 794.408 596.658 794.088C596.466 793.576 596.466 793.256 597.298 793.128C599.858 792.68 602.546 791.784 604.402 791.08C605.362 790.696 605.49 790.632 606.066 791.08L607.09 791.912C607.282 792.04 607.346 792.424 607.154 792.872C606.834 793.768 606.706 794.664 606.642 795.816V797.224C609.01 794.344 613.746 791.272 619.506 791.272C625.842 791.272 629.298 795.432 629.298 802.024V820.84C629.426 821.48 629.81 821.928 630.642 822.248C631.346 822.504 632.05 822.568 632.946 822.696C633.266 823.144 633.202 824.296 632.946 825H620.786C620.53 824.296 620.466 823.144 620.786 822.696C621.426 822.632 622.258 822.568 623.026 822.248C623.858 821.864 624.242 821.48 624.37 820.84V804.008C624.37 798.248 622.706 795.176 618.61 795.112C614.258 795.048 609.778 797.288 606.642 801.256V820.84C606.77 821.48 607.154 821.864 607.986 822.248C608.754 822.568 609.586 822.632 610.226 822.696C610.546 823.144 610.482 824.296 610.226 825H598.066C597.81 824.296 597.746 823.144 598.066 822.696C598.962 822.568 599.666 822.504 600.37 822.248C601.202 821.928 601.586 821.48 601.714 820.84V795.624Z" fill="white"/>
<g filter="url(#filter5_f_206_149)">
<circle cx="1142" cy="661" r="52" transform="rotate(-180 1142 661)" fill="white" fill-opacity="0.2"/>
</g>
<g filter="url(#filter6_f_206_149)">
<circle cx="1141.5" cy="661.5" r="29.5" transform="rotate(-180 1141.5 661.5)" fill="white" fill-opacity="0.5"/>
</g>
<path d="M1147 661.5C1147 658.186 1144.31 655.5 1141 655.5C1137.69 655.5 1135 658.186 1135 661.5L1147 661.5ZM1136.76 852.243C1139.1 854.586 1142.9 854.586 1145.24 852.243L1183.43 814.059C1185.77 811.716 1185.77 807.917 1183.43 805.574C1181.08 803.23 1177.28 803.23 1174.94 805.574L1141 839.515L1107.06 805.574C1104.72 803.23 1100.92 803.23 1098.57 805.574C1096.23 807.917 1096.23 811.716 1098.57 814.059L1136.76 852.243ZM1135 661.5L1135 848L1147 848L1147 661.5L1135 661.5Z" fill="white" fill-opacity="0.8"/>
<mask id="path-18-inside-1_206_149" fill="white">
<rect x="165" y="426" width="665" height="100" rx="4"/>
</mask>
<rect x="165" y="426" width="665" height="100" rx="4" stroke="white" stroke-width="10" mask="url(#path-18-inside-1_206_149)"/>
<defs>
<filter id="filter0_f_206_149" x="-629.411" y="-314.178" width="1295.49" height="1359.56" filterUnits="userSpaceOnUse" color-interpolation-filters="sRGB">
<feFlood flood-opacity="0" result="BackgroundImageFix"/>
<feBlend mode="normal" in="SourceGraphic" in2="BackgroundImageFix" result="shape"/>
<feGaussianBlur stdDeviation="80" result="effect1_foregroundBlur_206_149"/>
</filter>
<filter id="filter1_f_206_149" x="-329.362" y="-456.493" width="1329.51" height="1405.74" filterUnits="userSpaceOnUse" color-interpolation-filters="sRGB">
<feFlood flood-opacity="0" result="BackgroundImageFix"/>
<feBlend mode="normal" in="SourceGraphic" in2="BackgroundImageFix" result="shape"/>
<feGaussianBlur stdDeviation="80" result="effect1_foregroundBlur_206_149"/>
</filter>
<filter id="filter2_f_206_149" x="-623.123" y="316.845" width="1487.93" height="1422.21" filterUnits="userSpaceOnUse" color-interpolation-filters="sRGB">
<feFlood flood-opacity="0" result="BackgroundImageFix"/>
<feBlend mode="normal" in="SourceGraphic" in2="BackgroundImageFix" result="shape"/>
<feGaussianBlur stdDeviation="80" result="effect1_foregroundBlur_206_149"/>
</filter>
<filter id="filter3_f_206_149" x="313.938" y="160.106" width="1459.06" height="1433.68" filterUnits="userSpaceOnUse" color-interpolation-filters="sRGB">
<feFlood flood-opacity="0" result="BackgroundImageFix"/>
<feBlend mode="normal" in="SourceGraphic" in2="BackgroundImageFix" result="shape"/>
<feGaussianBlur stdDeviation="80" result="effect1_foregroundBlur_206_149"/>
</filter>
<filter id="filter4_f_206_149" x="332.096" y="-486.041" width="1421.9" height="1450.23" filterUnits="userSpaceOnUse" color-interpolation-filters="sRGB">
<feFlood flood-opacity="0" result="BackgroundImageFix"/>
<feBlend mode="normal" in="SourceGraphic" in2="BackgroundImageFix" result="shape"/>
<feGaussianBlur stdDeviation="80" result="effect1_foregroundBlur_206_149"/>
</filter>
<filter id="filter5_f_206_149" x="1082" y="601" width="120" height="120" filterUnits="userSpaceOnUse" color-interpolation-filters="sRGB">
<feFlood flood-opacity="0" result="BackgroundImageFix"/>
<feBlend mode="normal" in="SourceGraphic" in2="BackgroundImageFix" result="shape"/>
<feGaussianBlur stdDeviation="4" result="effect1_foregroundBlur_206_149"/>
</filter>
<filter id="filter6_f_206_149" x="1108" y="628" width="67" height="67" filterUnits="userSpaceOnUse" color-interpolation-filters="sRGB">
<feFlood flood-opacity="0" result="BackgroundImageFix"/>
<feBlend mode="normal" in="SourceGraphic" in2="BackgroundImageFix" result="shape"/>
<feGaussianBlur stdDeviation="2" result="effect1_foregroundBlur_206_149"/>
</filter>
</defs>
</svg>