<svg width="28" height="28" viewBox="0 0 28 28" fill="none" xmlns="http://www.w3.org/2000/svg">
<rect width="28" height="28" rx="14" fill="#F87980"/>
<path d="M13.9902 21.1953C10.9727 21.1953 8.81445 19.5547 8.75586 17.1719H11.3145C11.3828 18.3047 12.5156 19.0566 13.9902 19.0469C15.543 19.0566 16.666 18.1973 16.666 16.9375C16.666 15.668 15.5723 14.7598 13.7363 14.75H12.4668V12.7969H13.7363C15.2402 12.7969 16.2852 11.957 16.2754 10.7266C16.2852 9.53516 15.3867 8.73438 14.0098 8.73438C12.6816 8.73438 11.5391 9.47656 11.4902 10.668H9.04883C9.10742 8.29492 11.2656 6.66406 14.0293 6.66406C16.9004 6.66406 18.7559 8.42188 18.7363 10.5898C18.7559 12.1719 17.7012 13.3145 16.1582 13.6367V13.7539C18.1504 14.0176 19.2832 15.2969 19.2637 17.0742C19.2832 19.4668 17.0469 21.1953 13.9902 21.1953Z" fill="white"/>
</svg>
