<svg width="18" height="18" viewBox="0 0 18 18" xmlns="http://www.w3.org/2000/svg" xmlns:xlink="http://www.w3.org/1999/xlink">
    <defs>
        <filter x="-8%" y="-5.3%" width="116%" height="121.3%" filterUnits="objectBoundingBox" id="zl4tvpe96a">
            <feOffset dy=".8" in="SourceAlpha" result="shadowOffsetOuter1"/>
            <feColorMatrix values="0 0 0 0 1 0 0 0 0 1 0 0 0 0 1 0 0 0 0.38 0" in="shadowOffsetOuter1"/>
        </filter>
        <filter x="-4.8%" y="-5.3%" width="112.8%" height="121.3%" filterUnits="objectBoundingBox" id="sf0tk6akvc">
            <feOffset dy=".8" in="SourceAlpha" result="shadowOffsetOuter1"/>
            <feColorMatrix values="0 0 0 0 1 0 0 0 0 1 0 0 0 0 1 0 0 0 0.38 0" in="shadowOffsetOuter1"/>
        </filter>
        <filter x="-8%" y="-5.3%" width="112.8%" height="121.3%" filterUnits="objectBoundingBox" id="3aesmc0gfe">
            <feOffset dy=".8" in="SourceAlpha" result="shadowOffsetOuter1"/>
            <feColorMatrix values="0 0 0 0 1 0 0 0 0 1 0 0 0 0 1 0 0 0 0.38 0" in="shadowOffsetOuter1"/>
        </filter>
        <path d="M5 0h5v5a2.5 2.5 0 0 1-5 0V0z" id="tj5tak2qvb"/>
        <path d="M1.436 0H5v5a2.5 2.5 0 0 1-2.5 2.5A2.339 2.339 0 0 1 .166 5.006L.438.933A1 1 0 0 1 1.436 0z" id="fuxb7wo5bd"/>
        <path d="M10 0h3.564a1 1 0 0 1 .998.933l.272 4.073A2.339 2.339 0 0 1 12.5 7.5 2.5 2.5 0 0 1 10 5V0z" id="hvgwspcq2f"/>
    </defs>
    <g fill="none" fill-rule="evenodd">
        <path d="M0 0h18v18H0z"/>
        <path d="M14.75 6.25V15a.748.748 0 0 1-.75.75H4a.748.748 0 0 1-.75-.75V6.25h11.5z" stroke-opacity=".08" stroke="#111D46" stroke-width=".5" fill="#BEC4D6"/>
        <g transform="translate(1.5 3)">
            <use fill="#000" filter="url(#zl4tvpe96a)" xlink:href="#tj5tak2qvb"/>
            <use fill="#00B657" xlink:href="#tj5tak2qvb"/>
        </g>
        <g transform="translate(1.5 3)">
            <use fill="#000" filter="url(#sf0tk6akvc)" xlink:href="#fuxb7wo5bd"/>
            <use fill="#FE5D5D" xlink:href="#fuxb7wo5bd"/>
        </g>
        <g transform="translate(1.5 3)">
            <use fill="#000" filter="url(#3aesmc0gfe)" xlink:href="#hvgwspcq2f"/>
            <use fill="#4355E4" xlink:href="#hvgwspcq2f"/>
        </g>
    </g>
</svg>
