<svg width="16" height="16" viewBox="0 0 16 16" fill="none" xmlns="http://www.w3.org/2000/svg">
<g id="Frame 47">
<rect width="16" height="16" rx="8" fill="black"/>
<path id="Star 5" d="M7.55305 4.17874C7.73646 3.80712 8.26638 3.80712 8.44978 4.17874L9.35454 6.01199C9.42738 6.15956 9.56816 6.26184 9.73101 6.28551L11.7541 6.57948C12.1642 6.63907 12.328 7.14306 12.0312 7.43233L10.5673 8.85931C10.4494 8.97418 10.3957 9.13968 10.4235 9.30187L10.7691 11.3168C10.8391 11.7253 10.4104 12.0367 10.0436 11.8439L8.23409 10.8926C8.08843 10.816 7.91441 10.816 7.76875 10.8926L5.95923 11.8439C5.59241 12.0367 5.1637 11.7253 5.23375 11.3168L5.57934 9.30187C5.60716 9.13968 5.55338 8.97418 5.43554 8.85931L3.97161 7.43233C3.67485 7.14306 3.83861 6.63907 4.24872 6.57948L6.27182 6.28551C6.43468 6.26184 6.57546 6.15956 6.64829 6.01199L7.55305 4.17874Z" fill="white"/>
</g>
</svg>
