<svg width="20" height="16" viewBox="0 0 20 16" fill="none" xmlns="http://www.w3.org/2000/svg">
<g id="Frame 34">
<path id="Union" fill-rule="evenodd" clip-rule="evenodd" d="M5.5 7.75C5.5 8.7165 4.7165 9.5 3.75 9.5C2.7835 9.5 2 8.7165 2 7.75C2 6.7835 2.7835 6 3.75 6C4.7165 6 5.5 6.7835 5.5 7.75ZM12 7.75C12 8.7165 11.2165 9.5 10.25 9.5C9.2835 9.5 8.5 8.7165 8.5 7.75C8.5 6.7835 9.2835 6 10.25 6C11.2165 6 12 6.7835 12 7.75ZM16.75 9.5C17.7165 9.5 18.5 8.7165 18.5 7.75C18.5 6.7835 17.7165 6 16.75 6C15.7835 6 15 6.7835 15 7.75C15 8.7165 15.7835 9.5 16.75 9.5Z" fill="#565656"/>
</g>
</svg>
